<svg width="155" height="147" viewBox="0 0 155 147" fill="none" xmlns="http://www.w3.org/2000/svg">
<g id="Frame" clip-path="url(#clip0_561_2388)">
<g id="Group">
<path id="Vector" d="M6.62178 143.682C6.62178 145.521 5.14627 147 3.31089 147C1.4755 147 0 145.521 0 143.682C0 141.843 1.4755 140.364 3.31089 140.364C5.14627 140.364 6.62178 141.843 6.62178 143.682Z" fill="#D4EFEA"/>
<path id="Vector_2" d="M27.8187 143.682C27.8187 145.521 26.3432 147 24.5078 147C22.6724 147 21.1969 145.521 21.1969 143.682C21.1969 141.843 22.6724 140.364 24.5078 140.364C26.3432 140.364 27.8187 141.843 27.8187 143.682Z" fill="#D4EFEA"/>
<path id="Vector_3" d="M49.0156 143.682C49.0156 145.521 47.5401 147 45.7047 147C43.8693 147 42.3938 145.521 42.3938 143.682C42.3938 141.843 43.8693 140.364 45.7047 140.364C47.5401 140.364 49.0156 141.843 49.0156 143.682Z" fill="#D4EFEA"/>
<path id="Vector_4" d="M70.2125 143.682C70.2125 145.521 68.737 147 66.9016 147C65.0662 147 63.5907 145.521 63.5907 143.682C63.5907 141.843 65.0662 140.364 66.9016 140.364C68.737 140.364 70.2125 141.843 70.2125 143.682Z" fill="#D4EFEA"/>
<path id="Vector_5" d="M91.4094 143.682C91.4094 145.521 89.9339 147 88.0985 147C86.2631 147 84.7876 145.521 84.7876 143.682C84.7876 141.843 86.2631 140.364 88.0985 140.364C89.9339 140.364 91.4094 141.843 91.4094 143.682Z" fill="#D4EFEA"/>
<path id="Vector_6" d="M112.606 143.682C112.606 145.521 111.131 147 109.295 147C107.46 147 105.984 145.521 105.984 143.682C105.984 141.843 107.46 140.364 109.295 140.364C111.131 140.364 112.606 141.843 112.606 143.682Z" fill="#D4EFEA"/>
<path id="Vector_7" d="M133.803 143.682C133.803 145.521 132.328 147 130.492 147C128.657 147 127.181 145.521 127.181 143.682C127.181 141.843 128.657 140.364 130.492 140.364C132.328 140.364 133.803 141.843 133.803 143.682Z" fill="#D4EFEA"/>
<path id="Vector_8" d="M155 143.682C155 145.521 153.524 147 151.689 147C149.854 147 148.378 145.521 148.378 143.682C148.378 141.843 149.854 140.364 151.689 140.364C153.524 140.364 155 141.843 155 143.682Z" fill="#D4EFEA"/>
</g>
<g id="Group_2">
<path id="Vector_9" d="M6.62178 123.63C6.62178 125.469 5.14627 126.948 3.31089 126.948C1.4755 126.948 0 125.469 0 123.63C0 121.791 1.4755 120.312 3.31089 120.312C5.14627 120.312 6.62178 121.791 6.62178 123.63Z" fill="#D4EFEA"/>
<path id="Vector_10" d="M27.8187 123.63C27.8187 125.469 26.3432 126.948 24.5078 126.948C22.6724 126.948 21.1969 125.469 21.1969 123.63C21.1969 121.791 22.6724 120.312 24.5078 120.312C26.3432 120.312 27.8187 121.791 27.8187 123.63Z" fill="#D4EFEA"/>
<path id="Vector_11" d="M49.0156 123.63C49.0156 125.469 47.5401 126.948 45.7047 126.948C43.8693 126.948 42.3938 125.469 42.3938 123.63C42.3938 121.791 43.8693 120.312 45.7047 120.312C47.5401 120.312 49.0156 121.791 49.0156 123.63Z" fill="#D4EFEA"/>
<path id="Vector_12" d="M70.2125 123.63C70.2125 125.469 68.737 126.948 66.9016 126.948C65.0662 126.948 63.5907 125.469 63.5907 123.63C63.5907 121.791 65.0662 120.312 66.9016 120.312C68.737 120.312 70.2125 121.791 70.2125 123.63Z" fill="#D4EFEA"/>
<path id="Vector_13" d="M91.4094 123.63C91.4094 125.469 89.9339 126.948 88.0985 126.948C86.2631 126.948 84.7876 125.469 84.7876 123.63C84.7876 121.791 86.2631 120.312 88.0985 120.312C89.9339 120.312 91.4094 121.791 91.4094 123.63Z" fill="#D4EFEA"/>
<path id="Vector_14" d="M112.606 123.63C112.606 125.469 111.131 126.948 109.295 126.948C107.46 126.948 105.984 125.469 105.984 123.63C105.984 121.791 107.46 120.312 109.295 120.312C111.131 120.312 112.606 121.791 112.606 123.63Z" fill="#D4EFEA"/>
<path id="Vector_15" d="M133.803 123.63C133.803 125.469 132.328 126.948 130.492 126.948C128.657 126.948 127.181 125.469 127.181 123.63C127.181 121.791 128.657 120.312 130.492 120.312C132.328 120.312 133.803 121.791 133.803 123.63Z" fill="#D4EFEA"/>
<path id="Vector_16" d="M155 123.63C155 125.469 153.524 126.948 151.689 126.948C149.854 126.948 148.378 125.469 148.378 123.63C148.378 121.791 149.854 120.312 151.689 120.312C153.524 120.312 155 121.791 155 123.63Z" fill="#D4EFEA"/>
</g>
<g id="Group_3">
<path id="Vector_17" d="M6.62178 103.578C6.62178 105.417 5.14627 106.896 3.31089 106.896C1.4755 106.896 0 105.417 0 103.578C0 101.739 1.4755 100.26 3.31089 100.26C5.14627 100.26 6.62178 101.739 6.62178 103.578Z" fill="#D4EFEA"/>
<path id="Vector_18" d="M27.8187 103.578C27.8187 105.417 26.3432 106.896 24.5078 106.896C22.6724 106.896 21.1969 105.417 21.1969 103.578C21.1969 101.739 22.6724 100.26 24.5078 100.26C26.3432 100.26 27.8187 101.739 27.8187 103.578Z" fill="#D4EFEA"/>
<path id="Vector_19" d="M49.0156 103.578C49.0156 105.417 47.5401 106.896 45.7047 106.896C43.8693 106.896 42.3938 105.417 42.3938 103.578C42.3938 101.739 43.8693 100.26 45.7047 100.26C47.5401 100.26 49.0156 101.739 49.0156 103.578Z" fill="#D4EFEA"/>
<path id="Vector_20" d="M70.2125 103.578C70.2125 105.417 68.737 106.896 66.9016 106.896C65.0662 106.896 63.5907 105.417 63.5907 103.578C63.5907 101.739 65.0662 100.26 66.9016 100.26C68.737 100.26 70.2125 101.739 70.2125 103.578Z" fill="#D4EFEA"/>
<path id="Vector_21" d="M91.4094 103.578C91.4094 105.417 89.9339 106.896 88.0985 106.896C86.2631 106.896 84.7876 105.417 84.7876 103.578C84.7876 101.739 86.2631 100.26 88.0985 100.26C89.9339 100.26 91.4094 101.739 91.4094 103.578Z" fill="#D4EFEA"/>
<path id="Vector_22" d="M112.606 103.578C112.606 105.417 111.131 106.896 109.295 106.896C107.46 106.896 105.984 105.417 105.984 103.578C105.984 101.739 107.46 100.26 109.295 100.26C111.131 100.26 112.606 101.739 112.606 103.578Z" fill="#D4EFEA"/>
<path id="Vector_23" d="M133.803 103.578C133.803 105.417 132.328 106.896 130.492 106.896C128.657 106.896 127.181 105.417 127.181 103.578C127.181 101.739 128.657 100.26 130.492 100.26C132.328 100.26 133.803 101.739 133.803 103.578Z" fill="#D4EFEA"/>
<path id="Vector_24" d="M155 103.578C155 105.417 153.524 106.896 151.689 106.896C149.854 106.896 148.378 105.417 148.378 103.578C148.378 101.739 149.854 100.26 151.689 100.26C153.524 100.26 155 101.739 155 103.578Z" fill="#D4EFEA"/>
</g>
<g id="Group_4">
<path id="Vector_25" d="M6.62178 83.526C6.62178 85.3653 5.14627 86.844 3.31089 86.844C1.4755 86.844 0 85.3653 0 83.526C0 81.6867 1.4755 80.2081 3.31089 80.2081C5.14627 80.2081 6.62178 81.6867 6.62178 83.526Z" fill="#D4EFEA"/>
<path id="Vector_26" d="M27.8187 83.526C27.8187 85.3653 26.3432 86.844 24.5078 86.844C22.6724 86.844 21.1969 85.3653 21.1969 83.526C21.1969 81.6867 22.6724 80.2081 24.5078 80.2081C26.3432 80.2081 27.8187 81.6867 27.8187 83.526Z" fill="#D4EFEA"/>
<path id="Vector_27" d="M49.0156 83.526C49.0156 85.3653 47.5401 86.844 45.7047 86.844C43.8693 86.844 42.3938 85.3653 42.3938 83.526C42.3938 81.6867 43.8693 80.2081 45.7047 80.2081C47.5401 80.2081 49.0156 81.6867 49.0156 83.526Z" fill="#D4EFEA"/>
<path id="Vector_28" d="M70.2125 83.526C70.2125 85.3653 68.737 86.844 66.9016 86.844C65.0662 86.844 63.5907 85.3653 63.5907 83.526C63.5907 81.6867 65.0662 80.2081 66.9016 80.2081C68.737 80.2081 70.2125 81.6867 70.2125 83.526Z" fill="#D4EFEA"/>
<path id="Vector_29" d="M91.4094 83.526C91.4094 85.3653 89.9339 86.844 88.0985 86.844C86.2631 86.844 84.7876 85.3653 84.7876 83.526C84.7876 81.6867 86.2631 80.2081 88.0985 80.2081C89.9339 80.2081 91.4094 81.6867 91.4094 83.526Z" fill="#D4EFEA"/>
<path id="Vector_30" d="M112.606 83.526C112.606 85.3653 111.131 86.844 109.295 86.844C107.46 86.844 105.984 85.3653 105.984 83.526C105.984 81.6867 107.46 80.2081 109.295 80.2081C111.131 80.2081 112.606 81.6867 112.606 83.526Z" fill="#D4EFEA"/>
<path id="Vector_31" d="M133.803 83.526C133.803 85.3653 132.328 86.844 130.492 86.844C128.657 86.844 127.181 85.3653 127.181 83.526C127.181 81.6867 128.657 80.2081 130.492 80.2081C132.328 80.2081 133.803 81.6867 133.803 83.526Z" fill="#D4EFEA"/>
<path id="Vector_32" d="M155 83.526C155 85.3653 153.524 86.844 151.689 86.844C149.854 86.844 148.378 85.3653 148.378 83.526C148.378 81.6867 149.854 80.2081 151.689 80.2081C153.524 80.2081 155 81.6867 155 83.526Z" fill="#D4EFEA"/>
</g>
<g id="Group_5">
<path id="Vector_33" d="M6.62178 63.474C6.62178 65.3133 5.14627 66.792 3.31089 66.792C1.4755 66.792 0 65.3133 0 63.474C0 61.6347 1.4755 60.156 3.31089 60.156C5.14627 60.156 6.62178 61.6347 6.62178 63.474Z" fill="#D4EFEA"/>
<path id="Vector_34" d="M27.8187 63.474C27.8187 65.3133 26.3432 66.792 24.5078 66.792C22.6724 66.792 21.1969 65.3133 21.1969 63.474C21.1969 61.6347 22.6724 60.156 24.5078 60.156C26.3432 60.156 27.8187 61.6347 27.8187 63.474Z" fill="#D4EFEA"/>
<path id="Vector_35" d="M49.0156 63.474C49.0156 65.3133 47.5401 66.792 45.7047 66.792C43.8693 66.792 42.3938 65.3133 42.3938 63.474C42.3938 61.6347 43.8693 60.156 45.7047 60.156C47.5401 60.156 49.0156 61.6347 49.0156 63.474Z" fill="#D4EFEA"/>
<path id="Vector_36" d="M70.2125 63.474C70.2125 65.3133 68.737 66.792 66.9016 66.792C65.0662 66.792 63.5907 65.3133 63.5907 63.474C63.5907 61.6347 65.0662 60.156 66.9016 60.156C68.737 60.156 70.2125 61.6347 70.2125 63.474Z" fill="#D4EFEA"/>
<path id="Vector_37" d="M91.4094 63.474C91.4094 65.3133 89.9339 66.792 88.0985 66.792C86.2631 66.792 84.7876 65.3133 84.7876 63.474C84.7876 61.6347 86.2631 60.156 88.0985 60.156C89.9339 60.156 91.4094 61.6347 91.4094 63.474Z" fill="#D4EFEA"/>
<path id="Vector_38" d="M112.606 63.474C112.606 65.3133 111.131 66.792 109.295 66.792C107.46 66.792 105.984 65.3133 105.984 63.474C105.984 61.6347 107.46 60.156 109.295 60.156C111.131 60.156 112.606 61.6347 112.606 63.474Z" fill="#D4EFEA"/>
<path id="Vector_39" d="M133.803 63.474C133.803 65.3133 132.328 66.792 130.492 66.792C128.657 66.792 127.181 65.3133 127.181 63.474C127.181 61.6347 128.657 60.156 130.492 60.156C132.328 60.156 133.803 61.6347 133.803 63.474Z" fill="#D4EFEA"/>
<path id="Vector_40" d="M155 63.474C155 65.3133 153.524 66.792 151.689 66.792C149.854 66.792 148.378 65.3133 148.378 63.474C148.378 61.6347 149.854 60.156 151.689 60.156C153.524 60.156 155 61.6347 155 63.474Z" fill="#D4EFEA"/>
</g>
<g id="Group_6">
<path id="Vector_41" d="M6.62178 43.422C6.62178 45.2613 5.14627 46.74 3.31089 46.74C1.4755 46.74 0 45.2613 0 43.422C0 41.5827 1.4755 40.104 3.31089 40.104C5.14627 40.104 6.62178 41.5827 6.62178 43.422Z" fill="#D4EFEA"/>
<path id="Vector_42" d="M27.8187 43.422C27.8187 45.2613 26.3432 46.74 24.5078 46.74C22.6724 46.74 21.1969 45.2613 21.1969 43.422C21.1969 41.5827 22.6724 40.104 24.5078 40.104C26.3432 40.104 27.8187 41.5827 27.8187 43.422Z" fill="#D4EFEA"/>
<path id="Vector_43" d="M49.0156 43.422C49.0156 45.2613 47.5401 46.74 45.7047 46.74C43.8693 46.74 42.3938 45.2613 42.3938 43.422C42.3938 41.5827 43.8693 40.104 45.7047 40.104C47.5401 40.104 49.0156 41.5827 49.0156 43.422Z" fill="#D4EFEA"/>
<path id="Vector_44" d="M70.2125 43.422C70.2125 45.2613 68.737 46.74 66.9016 46.74C65.0662 46.74 63.5907 45.2613 63.5907 43.422C63.5907 41.5827 65.0662 40.104 66.9016 40.104C68.737 40.104 70.2125 41.5827 70.2125 43.422Z" fill="#D4EFEA"/>
<path id="Vector_45" d="M91.4094 43.422C91.4094 45.2613 89.9339 46.74 88.0985 46.74C86.2631 46.74 84.7876 45.2613 84.7876 43.422C84.7876 41.5827 86.2631 40.104 88.0985 40.104C89.9339 40.104 91.4094 41.5827 91.4094 43.422Z" fill="#D4EFEA"/>
<path id="Vector_46" d="M112.606 43.422C112.606 45.2613 111.131 46.74 109.295 46.74C107.46 46.74 105.984 45.2613 105.984 43.422C105.984 41.5827 107.46 40.104 109.295 40.104C111.131 40.104 112.606 41.5827 112.606 43.422Z" fill="#D4EFEA"/>
<path id="Vector_47" d="M133.803 43.422C133.803 45.2613 132.328 46.74 130.492 46.74C128.657 46.74 127.181 45.2613 127.181 43.422C127.181 41.5827 128.657 40.104 130.492 40.104C132.328 40.104 133.803 41.5827 133.803 43.422Z" fill="#D4EFEA"/>
<path id="Vector_48" d="M155 43.422C155 45.2613 153.524 46.74 151.689 46.74C149.854 46.74 148.378 45.2613 148.378 43.422C148.378 41.5827 149.854 40.104 151.689 40.104C153.524 40.104 155 41.5827 155 43.422Z" fill="#D4EFEA"/>
</g>
<g id="Group_7">
<path id="Vector_49" d="M6.62178 23.37C6.62178 25.2093 5.14627 26.6879 3.31089 26.6879C1.4755 26.6879 0 25.2093 0 23.37C0 21.5307 1.4755 20.052 3.31089 20.052C5.14627 20.052 6.62178 21.5307 6.62178 23.37Z" fill="#D4EFEA"/>
<path id="Vector_50" d="M27.8187 23.37C27.8187 25.2093 26.3432 26.6879 24.5078 26.6879C22.6724 26.6879 21.1969 25.2093 21.1969 23.37C21.1969 21.5307 22.6724 20.052 24.5078 20.052C26.3432 20.052 27.8187 21.5307 27.8187 23.37Z" fill="#D4EFEA"/>
<path id="Vector_51" d="M49.0156 23.37C49.0156 25.2093 47.5401 26.6879 45.7047 26.6879C43.8693 26.6879 42.3938 25.2093 42.3938 23.37C42.3938 21.5307 43.8693 20.052 45.7047 20.052C47.5401 20.052 49.0156 21.5307 49.0156 23.37Z" fill="#D4EFEA"/>
<path id="Vector_52" d="M70.2125 23.37C70.2125 25.2093 68.737 26.6879 66.9016 26.6879C65.0662 26.6879 63.5907 25.2093 63.5907 23.37C63.5907 21.5307 65.0662 20.052 66.9016 20.052C68.737 20.052 70.2125 21.5307 70.2125 23.37Z" fill="#D4EFEA"/>
<path id="Vector_53" d="M91.4094 23.37C91.4094 25.2093 89.9339 26.6879 88.0985 26.6879C86.2631 26.6879 84.7876 25.2093 84.7876 23.37C84.7876 21.5307 86.2631 20.052 88.0985 20.052C89.9339 20.052 91.4094 21.5307 91.4094 23.37Z" fill="#D4EFEA"/>
<path id="Vector_54" d="M112.606 23.37C112.606 25.2093 111.131 26.6879 109.295 26.6879C107.46 26.6879 105.984 25.2093 105.984 23.37C105.984 21.5307 107.46 20.052 109.295 20.052C111.131 20.052 112.606 21.5307 112.606 23.37Z" fill="#D4EFEA"/>
<path id="Vector_55" d="M133.803 23.37C133.803 25.2093 132.328 26.6879 130.492 26.6879C128.657 26.6879 127.181 25.2093 127.181 23.37C127.181 21.5307 128.657 20.052 130.492 20.052C132.328 20.052 133.803 21.5307 133.803 23.37Z" fill="#D4EFEA"/>
<path id="Vector_56" d="M155 23.37C155 25.2093 153.524 26.6879 151.689 26.6879C149.854 26.6879 148.378 25.2093 148.378 23.37C148.378 21.5307 149.854 20.052 151.689 20.052C153.524 20.052 155 21.5307 155 23.37Z" fill="#D4EFEA"/>
</g>
<g id="Group_8">
<path id="Vector_57" d="M6.62178 3.31796C6.62178 5.15726 5.14627 6.63592 3.31089 6.63592C1.4755 6.63592 0 5.15726 0 3.31796C0 1.47866 1.4755 0 3.31089 0C5.14627 0 6.62178 1.47866 6.62178 3.31796Z" fill="#D4EFEA"/>
<path id="Vector_58" d="M27.8187 3.31796C27.8187 5.15726 26.3432 6.63592 24.5078 6.63592C22.6724 6.63592 21.1969 5.15726 21.1969 3.31796C21.1969 1.47866 22.6724 0 24.5078 0C26.3432 0 27.8187 1.47866 27.8187 3.31796Z" fill="#D4EFEA"/>
<path id="Vector_59" d="M49.0156 3.31796C49.0156 5.15726 47.5401 6.63592 45.7047 6.63592C43.8693 6.63592 42.3938 5.15726 42.3938 3.31796C42.3938 1.47866 43.8693 0 45.7047 0C47.5401 0 49.0156 1.47866 49.0156 3.31796Z" fill="#D4EFEA"/>
<path id="Vector_60" d="M70.2125 3.31796C70.2125 5.15726 68.737 6.63592 66.9016 6.63592C65.0662 6.63592 63.5907 5.15726 63.5907 3.31796C63.5907 1.47866 65.0662 0 66.9016 0C68.737 0 70.2125 1.47866 70.2125 3.31796Z" fill="#D4EFEA"/>
<path id="Vector_61" d="M91.4094 3.31796C91.4094 5.15726 89.9339 6.63592 88.0985 6.63592C86.2631 6.63592 84.7876 5.15726 84.7876 3.31796C84.7876 1.47866 86.2631 0 88.0985 0C89.9339 0 91.4094 1.47866 91.4094 3.31796Z" fill="#D4EFEA"/>
<path id="Vector_62" d="M112.606 3.31796C112.606 5.15726 111.131 6.63592 109.295 6.63592C107.46 6.63592 105.984 5.15726 105.984 3.31796C105.984 1.47866 107.46 0 109.295 0C111.131 0 112.606 1.47866 112.606 3.31796Z" fill="#D4EFEA"/>
<path id="Vector_63" d="M133.803 3.31796C133.803 5.15726 132.328 6.63592 130.492 6.63592C128.657 6.63592 127.181 5.15726 127.181 3.31796C127.181 1.47866 128.657 0 130.492 0C132.328 0 133.803 1.47866 133.803 3.31796Z" fill="#D4EFEA"/>
<path id="Vector_64" d="M155 3.31796C155 5.15726 153.524 6.63592 151.689 6.63592C149.854 6.63592 148.378 5.15726 148.378 3.31796C148.378 1.47866 149.854 0 151.689 0C153.524 0 155 1.47866 155 3.31796Z" fill="#D4EFEA"/>
</g>
</g>
<defs>
<clipPath id="clip0_561_2388">
<rect width="155" height="147" fill="white"/>
</clipPath>
</defs>
</svg>
