<svg width="72" height="72" viewBox="0 0 72 72" fill="none" xmlns="http://www.w3.org/2000/svg">
<g filter="url(#filter0_d_560_4680)">
<rect x="6" y="2" width="60" height="60" rx="16" fill="url(#paint0_linear_560_4680)" shape-rendering="crispEdges"/>
<path d="M36 24V22" stroke="white" stroke-width="1.5" stroke-linecap="round" stroke-linejoin="round"/>
<path d="M28 32H26" stroke="white" stroke-width="1.5" stroke-linecap="round" stroke-linejoin="round"/>
<path d="M36 40V42" stroke="white" stroke-width="1.5" stroke-linecap="round" stroke-linejoin="round"/>
<path d="M44 32H46" stroke="white" stroke-width="1.5" stroke-linecap="round" stroke-linejoin="round"/>
<path d="M36 39.5C40.1421 39.5 43.5 36.1421 43.5 32C43.5 27.8579 40.1421 24.5 36 24.5C31.8579 24.5 28.5 27.8579 28.5 32C28.5 36.1421 31.8579 39.5 36 39.5Z" stroke="white" stroke-width="1.5" stroke-linecap="round" stroke-linejoin="round"/>
<path d="M36 35C37.6569 35 39 33.6569 39 32C39 30.3431 37.6569 29 36 29C34.3431 29 33 30.3431 33 32C33 33.6569 34.3431 35 36 35Z" stroke="white" stroke-width="1.5" stroke-linecap="round" stroke-linejoin="round"/>
</g>
<defs>
<filter id="filter0_d_560_4680" x="0" y="0" width="72" height="72" filterUnits="userSpaceOnUse" color-interpolation-filters="sRGB">
<feFlood flood-opacity="0" result="BackgroundImageFix"/>
<feColorMatrix in="SourceAlpha" type="matrix" values="0 0 0 0 0 0 0 0 0 0 0 0 0 0 0 0 0 0 127 0" result="hardAlpha"/>
<feOffset dy="4"/>
<feGaussianBlur stdDeviation="3"/>
<feComposite in2="hardAlpha" operator="out"/>
<feColorMatrix type="matrix" values="0 0 0 0 0.945098 0 0 0 0 0.8 0 0 0 0 0.65098 0 0 0 0.25 0"/>
<feBlend mode="normal" in2="BackgroundImageFix" result="effect1_dropShadow_560_4680"/>
<feBlend mode="normal" in="SourceGraphic" in2="effect1_dropShadow_560_4680" result="shape"/>
</filter>
<linearGradient id="paint0_linear_560_4680" x1="18.9545" y1="6.77273" x2="51.6818" y2="56.5455" gradientUnits="userSpaceOnUse">
<stop offset="0.0193674" stop-color="#F1CCA6"/>
<stop offset="1" stop-color="#F3AE5B"/>
</linearGradient>
</defs>
</svg>
