<svg width="72" height="72" viewBox="0 0 72 72" fill="none" xmlns="http://www.w3.org/2000/svg">
<g filter="url(#filter0_d_561_3531)">
<rect x="6" y="2" width="60" height="60" rx="16" fill="url(#paint0_linear_561_3531)" shape-rendering="crispEdges"/>
<path d="M39.58 32C39.58 33.98 37.98 35.58 36 35.58C34.02 35.58 32.42 33.98 32.42 32C32.42 30.02 34.02 28.42 36 28.42C37.98 28.42 39.58 30.02 39.58 32Z" stroke="white" stroke-width="1.5" stroke-linecap="round" stroke-linejoin="round"/>
<path d="M36 40.27C39.53 40.27 42.82 38.19 45.11 34.59C46.01 33.18 46.01 30.81 45.11 29.4C42.82 25.8 39.53 23.72 36 23.72C32.47 23.72 29.18 25.8 26.89 29.4C25.99 30.81 25.99 33.18 26.89 34.59C29.18 38.19 32.47 40.27 36 40.27Z" stroke="white" stroke-width="1.5" stroke-linecap="round" stroke-linejoin="round"/>
</g>
<defs>
<filter id="filter0_d_561_3531" x="0" y="0" width="72" height="72" filterUnits="userSpaceOnUse" color-interpolation-filters="sRGB">
<feFlood flood-opacity="0" result="BackgroundImageFix"/>
<feColorMatrix in="SourceAlpha" type="matrix" values="0 0 0 0 0 0 0 0 0 0 0 0 0 0 0 0 0 0 127 0" result="hardAlpha"/>
<feOffset dy="4"/>
<feGaussianBlur stdDeviation="3"/>
<feComposite in2="hardAlpha" operator="out"/>
<feColorMatrix type="matrix" values="0 0 0 0 0.709804 0 0 0 0 0.890196 0 0 0 0 0.858824 0 0 0 0.25 0"/>
<feBlend mode="normal" in2="BackgroundImageFix" result="effect1_dropShadow_561_3531"/>
<feBlend mode="normal" in="SourceGraphic" in2="effect1_dropShadow_561_3531" result="shape"/>
</filter>
<linearGradient id="paint0_linear_561_3531" x1="18.9545" y1="6.77273" x2="51.6818" y2="56.5455" gradientUnits="userSpaceOnUse">
<stop offset="0.0193674" stop-color="#B5E3DB"/>
<stop offset="1" stop-color="#93C8BF"/>
</linearGradient>
</defs>
</svg>
