<svg width="32" height="32" viewBox="0 0 32 32" fill="none" xmlns="http://www.w3.org/2000/svg">
<rect width="32" height="32" rx="6" fill="#EAEAEE"/>
<g clip-path="url(#clip0_561_2565)">
<path d="M19.75 11H17.25C17.029 11 16.817 11.0878 16.6607 11.2441C16.5044 11.4004 16.4166 11.6123 16.4166 11.8333V14.3333H19.75C19.7967 14.3323 19.843 14.3425 19.8849 14.3631C19.9268 14.3836 19.9632 14.414 19.991 14.4516C20.0188 14.4891 20.0371 14.5328 20.0445 14.579C20.0518 14.6251 20.048 14.6723 20.0333 14.7167L19.4166 16.55C19.3889 16.6321 19.3363 16.7035 19.2661 16.7543C19.1959 16.8051 19.1116 16.8327 19.025 16.8333H16.4166V23.0833C16.4166 23.1938 16.3727 23.2998 16.2946 23.378C16.2165 23.4561 16.1105 23.5 16 23.5H13.9166C13.8061 23.5 13.7002 23.4561 13.622 23.378C13.5439 23.2998 13.5 23.1938 13.5 23.0833V16.8333H12.25C12.1395 16.8333 12.0335 16.7894 11.9554 16.7113C11.8772 16.6332 11.8333 16.5272 11.8333 16.4167V14.75C11.8333 14.6395 11.8772 14.5335 11.9554 14.4554C12.0335 14.3772 12.1395 14.3333 12.25 14.3333H13.5V11.8333C13.5 10.9493 13.8512 10.1014 14.4763 9.47631C15.1014 8.85119 15.9493 8.5 16.8333 8.5H19.75C19.8605 8.5 19.9665 8.5439 20.0446 8.62204C20.1227 8.70018 20.1666 8.80616 20.1666 8.91667V10.5833C20.1666 10.6938 20.1227 10.7998 20.0446 10.878C19.9665 10.9561 19.8605 11 19.75 11Z" fill="#74738E"/>
</g>
<defs>
<clipPath id="clip0_561_2565">
<rect width="20" height="20" fill="white" transform="translate(6 6)"/>
</clipPath>
</defs>
</svg>
