<svg width="32" height="32" viewBox="0 0 32 32" fill="none" xmlns="http://www.w3.org/2000/svg">
<rect width="32" height="32" rx="6" fill="#EAEAEE"/>
<g clip-path="url(#clip0_561_2560)">
<path d="M23.0834 22.6667H21C20.8895 22.6667 20.7835 22.6228 20.7054 22.5446C20.6273 22.4665 20.5834 22.3605 20.5834 22.25V17.4833C20.5867 17.2624 20.546 17.043 20.4637 16.8378C20.3815 16.6327 20.2592 16.4461 20.1041 16.2886C19.949 16.1312 19.7642 16.0062 19.5603 15.9209C19.3565 15.8356 19.1377 15.7916 18.9167 15.7917C18.8214 15.7918 18.7263 15.8001 18.6325 15.8167C18.2348 15.8964 17.878 16.1141 17.6251 16.4312C17.3722 16.7483 17.2394 17.1445 17.25 17.55V22.25C17.25 22.3605 17.2061 22.4665 17.128 22.5446C17.0498 22.6228 16.9439 22.6667 16.8334 22.6667H14.75C14.6395 22.6667 14.5335 22.6228 14.4554 22.5446C14.3773 22.4665 14.3334 22.3605 14.3334 22.25V13.9167C14.3334 13.8062 14.3773 13.7002 14.4554 13.622C14.5335 13.5439 14.6395 13.5 14.75 13.5H16.8334C16.9439 13.5 17.0498 13.5439 17.128 13.622C17.2061 13.7002 17.25 13.8062 17.25 13.9167V14.2667C17.6877 13.8661 18.2149 13.5761 18.7875 13.421C19.3602 13.2659 19.9617 13.2501 20.5417 13.375C21.3942 13.5761 22.1523 14.0626 22.6904 14.7538C23.2284 15.4449 23.5141 16.2992 23.5 17.175V22.25C23.5 22.3605 23.4561 22.4665 23.378 22.5446C23.2998 22.6228 23.1939 22.6667 23.0834 22.6667ZM11.8334 22.6667H9.75002C9.63951 22.6667 9.53353 22.6228 9.45539 22.5446C9.37725 22.4665 9.33335 22.3605 9.33335 22.25V13.9167C9.33335 13.8062 9.37725 13.7002 9.45539 13.622C9.53353 13.5439 9.63951 13.5 9.75002 13.5H11.8334C11.9439 13.5 12.0498 13.5439 12.128 13.622C12.2061 13.7002 12.25 13.8062 12.25 13.9167V22.25C12.25 22.3605 12.2061 22.4665 12.128 22.5446C12.0498 22.6228 11.9439 22.6667 11.8334 22.6667ZM10.5834 11.8333C10.2537 11.8333 9.93149 11.7356 9.6574 11.5525C9.38332 11.3693 9.1697 11.109 9.04356 10.8045C8.91741 10.4999 8.8844 10.1648 8.94871 9.84152C9.01302 9.51822 9.17176 9.22124 9.40484 8.98816C9.63793 8.75507 9.9349 8.59633 10.2582 8.53203C10.5815 8.46772 10.9166 8.50072 11.2212 8.62687C11.5257 8.75301 11.786 8.96664 11.9691 9.24072C12.1523 9.5148 12.25 9.83703 12.25 10.1667C12.25 10.6087 12.0744 11.0326 11.7619 11.3452C11.4493 11.6577 11.0254 11.8333 10.5834 11.8333Z" fill="#74738E"/>
</g>
<defs>
<clipPath id="clip0_561_2560">
<rect width="20" height="20" fill="white" transform="translate(6 6)"/>
</clipPath>
</defs>
</svg>
