<svg width="26" height="27" viewBox="0 0 26 27" fill="none" xmlns="http://www.w3.org/2000/svg">
<path id="Fill 54" fill-rule="evenodd" clip-rule="evenodd" d="M13.6618 23.1427V27H12.3375V23.1427H13.6618ZM18.2168 21.5073L20.0734 24.8476L18.9266 25.5352L17.0693 22.1949L18.2168 21.5073ZM7.78331 21.5073L8.93078 22.1949L7.0735 25.5352L5.9267 24.8476L7.78331 21.5073ZM21.373 17.7261L24.5897 19.6548L23.9275 20.8457L20.7109 18.917L21.373 17.7261ZM4.62645 17.7261L5.28858 18.917L2.07261 20.8457L1.41048 19.6548L4.62645 17.7261ZM3.71392 12.8124V14.1876H0V12.8124H3.71392ZM26 12.8124V14.1876H22.2854V12.8124H26ZM2.07288 6.15469L5.28887 8.08336L4.62671 9.27425L1.41075 7.34558L2.07288 6.15469ZM23.9273 6.15469L24.5894 7.34558L21.3728 9.27425L20.7106 8.08336L23.9273 6.15469ZM18.9264 1.46503L20.0739 2.15262L18.2166 5.49289L17.0698 4.80531L18.9264 1.46503ZM7.07371 1.46503L8.93031 4.80531L7.78351 5.49289L5.92623 2.15262L7.07371 1.46503ZM13.6618 0V3.85734H12.3375V0H13.6618Z" fill="#93C8BF"/>
</svg>
