<svg width="35" height="35" viewBox="0 0 35 35" fill="none" xmlns="http://www.w3.org/2000/svg">
<path id="Fill 56" fill-rule="evenodd" clip-rule="evenodd" d="M7.21332 17.5C11.858 19.4218 15.5789 23.1425 17.5007 27.787C19.4226 23.1425 23.142 19.4218 27.7881 17.5C23.142 15.5782 19.4226 11.8575 17.5007 7.21301C15.5789 11.8575 11.858 15.5782 7.21332 17.5ZM18.9285 35H16.0729C16.0729 26.1379 8.86244 18.9277 0 18.9277V16.0723H0.0542554C8.89242 16.0423 16.0729 8.84494 16.0729 0H18.9285C18.9285 8.86207 26.139 16.0723 35 16.0723V18.9277H34.9457C26.109 18.9577 18.9285 26.1551 18.9285 35Z" fill="#FAECA6"/>
</svg>
