<svg width="24" height="24" viewBox="0 0 24 24" fill="none" xmlns="http://www.w3.org/2000/svg">
<g id="vuesax/bold/facebook">
<g id="Group">
<path id="Vector" d="M16.9841 2H7C4.25397 2 2 4.25397 2 7.01587V17C2 19.746 4.25397 22 7 22H16.9841C19.746 22 22 19.746 22 16.9841V7.01587C22 4.25397 19.746 2 16.9841 2ZM14.6825 12H12.7937V18.1905H10.4127V12H9.14286V9.46032H10.254V8.38095C10.254 7.36508 10.7619 5.7619 12.9048 5.7619H14.8571V7.87302H13.4762C13.254 7.87302 12.9524 8.01587 12.9524 8.50794V9.46032H14.9048L14.6825 12Z" fill="white"/>
</g>
</g>
</svg>
