<svg width="18" height="18" viewBox="0 0 18 18" fill="none" xmlns="http://www.w3.org/2000/svg">
<g id="svgexport-8 1">
<g id="Group">
<path id="Vector" d="M16.6521 3.10345H1.34825C1.03255 3.10345 0.742406 3.21226 0.512695 3.39406L7.23355 7.03449H18.0002V4.45152C18.0002 3.70698 17.3967 3.10345 16.6521 3.10345Z" fill="#464655"/>
<path id="Vector_2" d="M0.512695 14.6059C0.742441 14.7877 1.03255 14.8965 1.34825 14.8965H16.6521C17.3966 14.8965 18.0002 14.293 18.0002 13.5485V10.9655H7.23359L0.512695 14.6059Z" fill="#73AF00"/>
<path id="Vector_3" d="M10.6302 8.87439C10.7299 8.92842 10.7299 9.07161 10.6302 9.12565L7.23343 10.9655H18V7.03448H7.2334L10.6302 8.87439Z" fill="#F5F5F5"/>
<path id="Vector_4" d="M10.6301 9.12565C10.7299 9.07162 10.7299 8.92843 10.6301 8.87439L7.23336 7.03452L0.512508 3.39406C0.200461 3.64096 0 4.02269 0 4.45152V7.03449V10.9655V13.5485C0 13.9773 0.200461 14.3591 0.512508 14.606L7.23336 10.9655L10.6301 9.12565Z" fill="#FF4B55"/>
<path id="Vector_5" d="M3.35401 8.19717L3.53847 8.59729L3.96629 8.49203C3.99297 8.48549 4.01512 8.51319 4.00278 8.5378L3.80499 8.93148L4.15402 9.20036C4.17582 9.21716 4.16791 9.25175 4.14098 9.25741L3.70986 9.34822L3.71728 9.78873C3.71774 9.81622 3.68574 9.83162 3.66454 9.81415L3.32476 9.53371L2.98497 9.81415C2.96374 9.83166 2.93178 9.81626 2.93224 9.78873L2.93966 9.34822L2.50854 9.25741C2.48161 9.25175 2.4737 9.21716 2.49549 9.20036L2.84452 8.93148L2.64674 8.5378C2.6344 8.51319 2.65651 8.48545 2.68323 8.49203L3.11104 8.59729L3.29551 8.19717C3.30697 8.17221 3.34248 8.17221 3.35401 8.19717Z" fill="#F5F5F5"/>
</g>
</g>
</svg>
