<svg width="183" height="39" viewBox="0 0 183 39" fill="none" xmlns="http://www.w3.org/2000/svg">
<g id="Group">
<path id="Vector" d="M19.4114 38.1419C14.3211 38.1414 9.43461 36.1769 5.80444 32.6715C2.17428 29.1661 0.0908548 24.4003 0.00290166 19.4005C-0.0850515 14.4007 1.8295 9.56701 5.33421 5.94048C8.83891 2.31395 13.6534 0.184751 18.7406 0.0114662C23.8278 -0.161818 28.7808 1.63468 32.5328 5.01403C36.2848 8.39338 38.5356 13.0852 38.8004 18.0789C39.0652 23.0727 37.3228 27.9689 33.9485 31.7128C30.5742 35.4568 25.838 37.7491 20.7599 38.096C20.3073 38.1419 19.8584 38.1419 19.4114 38.1419ZM19.4525 1.3928C19.0391 1.3928 18.6258 1.4075 18.2068 1.43507C13.4884 1.75578 9.08709 3.8843 5.95084 7.36214C2.8146 10.84 1.19442 15.3888 1.43931 20.0288C1.68421 24.6688 3.77456 29.0287 7.26012 32.1693C10.7457 35.3098 15.3475 36.9798 20.0743 36.8194C24.8011 36.6591 29.2747 34.6812 32.5314 31.3119C35.7881 27.9426 37.5673 23.4515 37.4858 18.8059C37.4043 14.1604 35.4685 9.73217 32.0955 6.47517C28.7225 3.21816 24.1822 1.39299 19.4525 1.3928Z" fill="#A2DCD2"/>
<path id="Vector_2" d="M4.2832 30.6651C3.9905 24.2986 5.23118 17.954 7.90438 12.1472C9.91231 7.82132 12.6905 3.88246 16.1081 0.516113L17.0434 1.42382C13.7356 4.68156 11.0467 8.4935 9.10333 12.6801C6.51297 18.3013 5.31007 24.444 5.59251 30.6081L4.2832 30.6651Z" fill="#A2DCD2"/>
<path id="Vector_3" d="M11.5388 36.1814C10.4783 30.3897 10.121 21.5314 14.4455 12.2283C16.4577 7.91062 19.252 3.9882 22.6923 0.652344L23.6144 1.57107C20.2842 4.79501 17.5791 8.58746 15.6314 12.763C11.4472 21.7666 11.7932 30.342 12.8257 35.9536L11.5388 36.1814Z" fill="#A2DCD2"/>
<path id="Vector_4" d="M22.956 37.4932C17.4779 31.1833 14.1112 23.369 13.3138 15.113L14.6232 14.9917C15.3958 22.9846 18.6553 30.5499 23.9585 36.659L22.956 37.4932Z" fill="#A2DCD2"/>
<path id="Vector_5" d="M31.5542 33.3428C27.9539 30.9511 24.5999 28.22 21.5398 25.1882C18.5197 22.1924 15.8006 18.9176 13.4202 15.4092L14.5088 14.6963C16.8424 18.1352 19.5076 21.3453 22.4676 24.2823C25.4665 27.2553 28.7549 29.9324 32.2855 32.2752L31.5542 33.3428Z" fill="#A2DCD2"/>
<path id="Vector_6" d="M24.5814 27.6832L24.3495 26.4171C26.7197 25.9971 29.0439 25.3567 31.2907 24.5044C33.4811 23.6727 35.5886 22.6443 37.5866 21.4321L38.2749 22.5254C36.2082 23.7796 34.028 24.8437 31.7621 25.7042C29.4377 26.5858 27.0334 27.2484 24.5814 27.6832Z" fill="#A2DCD2"/>
<path id="Vector_7" d="M17.0752 15.8625C16.0129 15.8626 14.9513 15.8049 13.8954 15.6898L14.0395 14.4128C16.6995 14.7017 19.3881 14.6082 22.0207 14.1353C25.434 13.5218 28.6958 12.2705 31.6291 10.4494C32.6355 9.81144 33.5949 9.10473 34.5002 8.33447L35.3588 9.30649C34.4068 10.1162 33.398 10.8592 32.3399 11.5298C29.2622 13.4426 25.8389 14.7563 22.2563 15.3995C20.5472 15.7083 18.813 15.8633 17.0752 15.8625Z" fill="#A2DCD2"/>
<path id="Vector_8" d="M18.9248 22.0695L18.8594 20.7833C20.2676 20.7131 21.6696 20.5529 23.0566 20.3037C28.0881 19.3979 32.8522 17.3326 37.2122 14.1611L37.9921 15.1956C33.4694 18.481 28.524 20.6308 23.2998 21.5716C21.8539 21.8301 20.3926 21.9964 18.9248 22.0695Z" fill="#A2DCD2"/>
<path id="Vector_9" d="M17.7297 9.49413H17.5427C17.3743 9.49413 17.1686 9.49414 16.9684 9.48127L17.0302 8.19505C17.2041 8.19505 17.3781 8.20424 17.552 8.20608C18.7576 8.21617 19.9616 8.11776 21.1489 7.91208C24.4582 7.34404 27.5622 5.94661 30.1607 3.85498L30.993 4.84721C28.2197 7.07992 24.9071 8.57222 21.3752 9.17993C20.1716 9.38817 18.9518 9.4933 17.7297 9.49413Z" fill="#A2DCD2"/>
<path id="Vector_10" d="M130.626 12.1035C128.265 12.1003 125.985 12.9438 124.212 14.4757C123.264 15.3233 122.522 16.3703 122.042 17.5387C121.471 18.8888 121.188 20.3397 121.21 21.8016C121.21 24.7673 122.125 27.1082 123.935 28.8391C125.746 30.57 128.237 31.4354 131.417 31.4354H131.466C132.357 31.4412 133.245 31.3387 134.111 31.1304C134.819 30.9733 135.509 30.7423 136.168 30.4413C136.684 30.1923 137.175 29.8977 137.636 29.5612C137.942 29.346 138.236 29.1154 138.517 28.8703C138.648 28.7435 138.745 28.6461 138.811 28.5671L136.984 26.7076L136.348 27.156C135.94 27.461 135.287 27.7642 134.372 28.0747C133.459 28.3823 132.499 28.5394 131.533 28.5396C129.511 28.5396 127.912 28.0435 126.737 27.0696C125.618 26.1861 124.892 24.9099 124.713 23.5105H139.92C139.971 22.9004 139.986 22.408 139.986 22.0037C139.986 18.8458 139.126 16.4093 137.408 14.6943C135.695 12.9782 133.426 12.1127 130.62 12.1127M124.678 20.7929C124.667 20.0615 124.806 19.3354 125.086 18.6577C125.366 17.98 125.782 17.3645 126.309 16.8478C127.401 15.7454 128.821 15.1941 130.585 15.1941L130.6 15.1776C132.412 15.1776 133.831 15.7227 134.859 16.8129C135.884 17.8889 136.44 19.3158 136.409 20.7892L124.678 20.7929Z" fill="white"/>
<path id="Vector_11" d="M63.4602 21.7627L54.9665 7.10352H51.1414V31.0676H54.641V13.0661L62.6951 27.0381H64.1934L72.2643 13.0991V31.0676H75.7957V7.10352H71.9725L63.4602 21.7627Z" fill="white"/>
<path id="Vector_12" d="M89.3549 12.0503C86.7015 12.0662 84.0879 12.6863 81.7197 13.862L82.6175 16.4345C84.5796 15.4761 86.7409 14.9767 88.9322 14.9755C90.7427 14.9755 92.0645 15.4079 92.8975 16.2728C93.7298 17.1382 94.1208 18.4538 94.0721 20.2013C92.2349 19.6886 90.3352 19.424 88.4253 19.4148C86.1246 19.4148 84.2149 19.9771 82.6811 21.0979C81.1474 22.2188 80.3805 23.6943 80.3805 25.5391C80.3805 27.3839 81.0501 28.8079 82.4043 29.835C83.7585 30.8622 85.5205 31.373 87.6921 31.373C90.6773 31.373 92.8364 30.4328 94.1694 28.5525V31.0698H97.4501V20.328C97.4501 14.8157 94.7517 12.0595 89.3549 12.0595M94.0721 24.4513C94.0942 25.362 93.7678 26.2478 93.1575 26.9337C92.582 27.586 91.8459 28.0826 91.0196 28.3761C90.187 28.6672 89.309 28.8133 88.4253 28.8079V28.7932C87.0879 28.7932 85.9937 28.5047 85.1295 27.9112C84.2654 27.3177 83.8408 26.4688 83.8408 25.3627C83.8408 24.2878 84.3309 23.4388 85.3091 22.7902C86.2874 22.1416 87.5275 21.8292 89.0126 21.8292C90.728 21.8524 92.4302 22.1273 94.0628 22.6451L94.0721 24.4513Z" fill="white"/>
<path id="Vector_13" d="M112.646 21.2244L118.399 13.2792H114.381L105.693 25.2172V7.16602H102.317V31.0658H105.285L110.476 23.9824L115.582 31.0658H119.662L118.865 29.9486L112.646 21.2244Z" fill="white"/>
<path id="Vector_14" d="M154.437 21.4211C153.515 21.0705 152.573 20.776 151.614 20.5392C150.603 20.2819 149.656 20.0743 148.792 19.9144C148.016 19.7896 147.28 19.4937 146.637 19.049C146.367 18.8672 146.147 18.6228 145.997 18.3376C145.846 18.0524 145.769 17.735 145.773 17.4137C145.773 16.5157 146.165 15.8745 146.948 15.4898C147.749 15.102 148.632 14.9044 149.525 14.9129C151.48 14.9056 153.397 15.4386 155.058 16.4508L156.264 14.0474C154.486 12.7961 152.25 12.1714 149.574 12.1714C147.632 12.1714 145.953 12.6363 144.524 13.5495C143.095 14.4627 142.402 15.8261 142.402 17.6378C142.402 19 142.81 20.0902 143.626 20.9085C144.432 21.7201 145.447 22.3017 146.562 22.5916C147.705 22.8948 148.846 23.152 149.989 23.3762C151.018 23.5575 152.011 23.9039 152.926 24.4015C153.742 24.867 154.151 25.5242 154.151 26.3731C154.151 28.0268 152.828 28.8426 150.169 28.8426C148.99 28.8347 147.819 28.6564 146.693 28.3134C145.626 28.0178 144.615 27.5522 143.701 26.9354L142.361 29.2597C144.434 30.8142 147.077 31.5988 150.309 31.5988L150.357 31.5676C152.495 31.5676 154.224 31.1027 155.529 30.1564C156.835 29.2101 157.488 27.8651 157.488 26.114C157.488 24.9123 157.194 23.9182 156.607 23.1153C156.066 22.3558 155.312 21.7672 154.437 21.4211Z" fill="white"/>
<path id="Vector_15" d="M168.588 26.8063L162.461 12.4925H158.602L166.924 30.8469L166.892 30.9425C166.222 32.5778 165.537 33.7158 164.835 34.3564C164.132 34.9971 163.217 35.3181 162.087 35.3193C161.303 35.3193 160.357 35.0933 159.247 34.6284L158.219 37.3221C159.533 37.9428 160.971 38.2709 162.429 38.2831C164.176 38.2831 165.609 37.8513 166.754 36.9693C167.898 36.0873 168.908 34.5806 169.804 32.4492L178.322 12.4595L174.57 12.4925L168.588 26.8063Z" fill="white"/>
<path id="Vector_16" d="M182.338 27.595C181.898 27.1776 181.31 26.9443 180.698 26.9443C180.086 26.9443 179.498 27.1776 179.057 27.595C178.633 28.015 178.395 28.5826 178.395 29.1743C178.395 29.766 178.633 30.3337 179.057 30.7536C179.269 30.9593 179.52 31.1213 179.795 31.2302C180.071 31.3391 180.367 31.3926 180.664 31.3875H180.698C181.002 31.395 181.304 31.3412 181.587 31.2293C181.869 31.1174 182.124 30.9499 182.338 30.7371C182.762 30.3202 183 29.7552 183 29.1661C183 28.5769 182.762 28.0119 182.338 27.595Z" fill="#A2DCD2"/>
</g>
</svg>
