<svg width="24" height="24" viewBox="0 0 24 24" fill="none" xmlns="http://www.w3.org/2000/svg">
<g id="vuesax/bold/facebook">
<g id="Group">
<g id="Layer 2">
<g id="07.instagram">
<path id="Vector" d="M14.5249 7.00784H9.47339C9.14966 7.00769 8.82908 7.07132 8.52995 7.19511C8.23082 7.31889 7.95901 7.50039 7.73005 7.72925C7.50109 7.95811 7.31946 8.22983 7.19554 8.5289C7.07162 8.82797 7.00784 9.14853 7.00784 9.47226V14.5238C7.00769 14.8476 7.07136 15.1683 7.19522 15.4675C7.31907 15.7667 7.50067 16.0386 7.72965 16.2675C7.95863 16.4965 8.23049 16.6781 8.52969 16.802C8.82889 16.9258 9.14957 16.9895 9.47339 16.9893H14.5249C14.8488 16.9895 15.1694 16.9258 15.4686 16.802C15.7678 16.6781 16.0397 16.4965 16.2687 16.2675C16.4977 16.0386 16.6793 15.7667 16.8031 15.4675C16.927 15.1683 16.9906 14.8476 16.9905 14.5238V9.47226C16.9905 9.14853 16.9267 8.82797 16.8028 8.5289C16.6789 8.22983 16.4972 7.95811 16.2683 7.72925C16.0393 7.50039 15.7675 7.31889 15.4684 7.19511C15.1692 7.07132 14.8487 7.00769 14.5249 7.00784ZM11.9992 15.2316C11.3598 15.2316 10.7349 15.0421 10.2033 14.6869C9.67171 14.3317 9.25739 13.8268 9.01273 13.2362C8.76807 12.6455 8.70406 11.9956 8.82879 11.3685C8.95351 10.7415 9.26138 10.1655 9.71345 9.71345C10.1655 9.26138 10.7415 8.95351 11.3685 8.82879C11.9956 8.70406 12.6455 8.76807 13.2362 9.01273C13.8268 9.25739 14.3317 9.67171 14.6869 10.2033C15.0421 10.7349 15.2316 11.3598 15.2316 11.9992C15.2304 12.8561 14.8895 13.6776 14.2835 14.2835C13.6776 14.8895 12.8561 15.2304 11.9992 15.2316ZM15.2498 9.56429C15.0925 9.56429 14.9388 9.51764 14.808 9.43025C14.6772 9.34286 14.5752 9.21864 14.515 9.07331C14.4548 8.92798 14.4391 8.76807 14.4698 8.61378C14.5005 8.4595 14.5762 8.31779 14.6874 8.20656C14.7987 8.09533 14.9404 8.01958 15.0947 7.98889C15.2489 7.9582 15.4089 7.97395 15.5542 8.03415C15.6995 8.09435 15.8237 8.19629 15.9111 8.32708C15.9985 8.45787 16.0452 8.61164 16.0452 8.76895C16.0452 8.97988 15.9614 9.18218 15.8122 9.33134C15.6631 9.48049 15.4608 9.56429 15.2498 9.56429ZM11.9992 10.0233C11.6084 10.0233 11.2264 10.1392 10.9014 10.3563C10.5765 10.5734 10.3233 10.882 10.1737 11.243C10.0242 11.6041 9.98504 12.0014 10.0613 12.3846C10.1375 12.7679 10.3257 13.12 10.602 13.3963C10.8784 13.6726 11.2304 13.8608 11.6137 13.937C11.997 14.0133 12.3942 13.9742 12.7553 13.8246C13.1163 13.6751 13.4249 13.4218 13.642 13.0969C13.8591 12.772 13.975 12.3899 13.975 11.9992C13.975 11.4751 13.7668 10.9726 13.3963 10.602C13.0258 10.2315 12.5232 10.0233 11.9992 10.0233ZM14.5249 7.00784H9.47339C9.14966 7.00769 8.82908 7.07132 8.52995 7.19511C8.23082 7.31889 7.95901 7.50039 7.73005 7.72925C7.50109 7.95811 7.31946 8.22983 7.19554 8.5289C7.07162 8.82797 7.00784 9.14853 7.00784 9.47226V14.5238C7.00769 14.8476 7.07136 15.1683 7.19522 15.4675C7.31907 15.7667 7.50067 16.0386 7.72965 16.2675C7.95863 16.4965 8.23049 16.6781 8.52969 16.802C8.82889 16.9258 9.14957 16.9895 9.47339 16.9893H14.5249C14.8488 16.9895 15.1694 16.9258 15.4686 16.802C15.7678 16.6781 16.0397 16.4965 16.2687 16.2675C16.4977 16.0386 16.6793 15.7667 16.8031 15.4675C16.927 15.1683 16.9906 14.8476 16.9905 14.5238V9.47226C16.9905 9.14853 16.9267 8.82797 16.8028 8.5289C16.6789 8.22983 16.4972 7.95811 16.2683 7.72925C16.0393 7.50039 15.7675 7.31889 15.4684 7.19511C15.1692 7.07132 14.8487 7.00769 14.5249 7.00784ZM11.9992 15.2316C11.3598 15.2316 10.7349 15.0421 10.2033 14.6869C9.67171 14.3317 9.25739 13.8268 9.01273 13.2362C8.76807 12.6455 8.70406 11.9956 8.82879 11.3685C8.95351 10.7415 9.26138 10.1655 9.71345 9.71345C10.1655 9.26138 10.7415 8.95351 11.3685 8.82879C11.9956 8.70406 12.6455 8.76807 13.2362 9.01273C13.8268 9.25739 14.3317 9.67171 14.6869 10.2033C15.0421 10.7349 15.2316 11.3598 15.2316 11.9992C15.2304 12.8561 14.8895 13.6776 14.2835 14.2835C13.6776 14.8895 12.8561 15.2304 11.9992 15.2316ZM15.2498 9.56429C15.0925 9.56429 14.9388 9.51764 14.808 9.43025C14.6772 9.34286 14.5752 9.21864 14.515 9.07331C14.4548 8.92798 14.4391 8.76807 14.4698 8.61378C14.5005 8.4595 14.5762 8.31779 14.6874 8.20656C14.7987 8.09533 14.9404 8.01958 15.0947 7.98889C15.2489 7.9582 15.4089 7.97395 15.5542 8.03415C15.6995 8.09435 15.8237 8.19629 15.9111 8.32708C15.9985 8.45787 16.0452 8.61164 16.0452 8.76895C16.0452 8.97988 15.9614 9.18218 15.8122 9.33134C15.6631 9.48049 15.4608 9.56429 15.2498 9.56429ZM11.9992 10.0233C11.6084 10.0233 11.2264 10.1392 10.9014 10.3563C10.5765 10.5734 10.3233 10.882 10.1737 11.243C10.0242 11.6041 9.98504 12.0014 10.0613 12.3846C10.1375 12.7679 10.3257 13.12 10.602 13.3963C10.8784 13.6726 11.2304 13.8608 11.6137 13.937C11.997 14.0133 12.3942 13.9742 12.7553 13.8246C13.1163 13.6751 13.4249 13.4218 13.642 13.0969C13.8591 12.772 13.975 12.3899 13.975 11.9992C13.975 11.4751 13.7668 10.9726 13.3963 10.602C13.0258 10.2315 12.5232 10.0233 11.9992 10.0233ZM21.6569 5.57623C21.5683 4.74845 21.1989 3.97597 20.6101 3.38741C20.0214 2.79884 19.2488 2.42971 18.421 2.34147C14.1534 1.88618 9.84948 1.88618 5.58191 2.34147C4.75328 2.42874 3.97962 2.79744 3.38993 3.38609C2.80025 3.97474 2.43019 4.74776 2.34147 5.57623C1.88618 9.8438 1.88618 14.1477 2.34147 18.4153C2.42854 19.2443 2.7973 20.0183 3.3862 20.6083C3.9751 21.1982 4.74852 21.5683 5.57737 21.6568C9.84482 22.1144 14.149 22.1144 18.4164 21.6568C19.2454 21.5695 20.0193 21.2005 20.6091 20.6114C21.1988 20.0222 21.5686 19.2487 21.6569 18.4198C22.1125 14.1507 22.1125 9.8453 21.6569 5.57623ZM18.2483 14.5238C18.2477 15.5112 17.8552 16.458 17.1571 17.1563C16.459 17.8546 15.5123 18.2473 14.5249 18.2483H9.47339C8.48608 18.247 7.53956 17.8542 6.84153 17.156C6.1435 16.4577 5.75097 15.5111 5.75007 14.5238V9.47226C5.75127 8.48524 6.14397 7.53902 6.842 6.8412C7.54003 6.14338 8.48638 5.75097 9.47339 5.75007H14.5249C15.5119 5.75097 16.4583 6.14338 17.1563 6.8412C17.8544 7.53902 18.2471 8.48524 18.2483 9.47226V14.5238ZM14.5249 7.00784H9.47339C9.14966 7.00769 8.82908 7.07132 8.52995 7.19511C8.23082 7.31889 7.95901 7.50039 7.73005 7.72925C7.50109 7.95811 7.31946 8.22983 7.19554 8.5289C7.07162 8.82797 7.00784 9.14853 7.00784 9.47226V14.5238C7.00769 14.8476 7.07136 15.1683 7.19522 15.4675C7.31907 15.7667 7.50067 16.0386 7.72965 16.2675C7.95863 16.4965 8.23049 16.6781 8.52969 16.802C8.82889 16.9258 9.14957 16.9895 9.47339 16.9893H14.5249C14.8488 16.9895 15.1694 16.9258 15.4686 16.802C15.7678 16.6781 16.0397 16.4965 16.2687 16.2675C16.4977 16.0386 16.6793 15.7667 16.8031 15.4675C16.927 15.1683 16.9906 14.8476 16.9905 14.5238V9.47226C16.9905 9.14853 16.9267 8.82797 16.8028 8.5289C16.6789 8.22983 16.4972 7.95811 16.2683 7.72925C16.0393 7.50039 15.7675 7.31889 15.4684 7.19511C15.1692 7.07132 14.8487 7.00769 14.5249 7.00784ZM11.9992 15.2316C11.3598 15.2316 10.7349 15.0421 10.2033 14.6869C9.67171 14.3317 9.25739 13.8268 9.01273 13.2362C8.76807 12.6455 8.70406 11.9956 8.82879 11.3685C8.95351 10.7415 9.26138 10.1655 9.71345 9.71345C10.1655 9.26138 10.7415 8.95351 11.3685 8.82879C11.9956 8.70406 12.6455 8.76807 13.2362 9.01273C13.8268 9.25739 14.3317 9.67171 14.6869 10.2033C15.0421 10.7349 15.2316 11.3598 15.2316 11.9992C15.2304 12.8561 14.8895 13.6776 14.2835 14.2835C13.6776 14.8895 12.8561 15.2304 11.9992 15.2316ZM15.2498 9.56429C15.0925 9.56429 14.9388 9.51764 14.808 9.43025C14.6772 9.34286 14.5752 9.21864 14.515 9.07331C14.4548 8.92798 14.4391 8.76807 14.4698 8.61378C14.5005 8.4595 14.5762 8.31779 14.6874 8.20656C14.7987 8.09533 14.9404 8.01958 15.0947 7.98889C15.2489 7.9582 15.4089 7.97395 15.5542 8.03415C15.6995 8.09435 15.8237 8.19629 15.9111 8.32708C15.9985 8.45787 16.0452 8.61164 16.0452 8.76895C16.0452 8.97988 15.9614 9.18218 15.8122 9.33134C15.6631 9.48049 15.4608 9.56429 15.2498 9.56429ZM11.9992 10.0233C11.6084 10.0233 11.2264 10.1392 10.9014 10.3563C10.5765 10.5734 10.3233 10.882 10.1737 11.243C10.0242 11.6041 9.98504 12.0014 10.0613 12.3846C10.1375 12.7679 10.3257 13.12 10.602 13.3963C10.8784 13.6726 11.2304 13.8608 11.6137 13.937C11.997 14.0133 12.3942 13.9742 12.7553 13.8246C13.1163 13.6751 13.4249 13.4218 13.642 13.0969C13.8591 12.772 13.975 12.3899 13.975 11.9992C13.975 11.4751 13.7668 10.9726 13.3963 10.602C13.0258 10.2315 12.5232 10.0233 11.9992 10.0233Z" fill="white"/>
</g>
</g>
</g>
</g>
</svg>
