<svg width="24" height="24" viewBox="0 0 24 24" fill="none" xmlns="http://www.w3.org/2000/svg">
<g id="vuesax/bold/facebook">
<g id="Group">
<g id="Layer 2">
<g id="10.linkedin">
<path id="Vector" d="M21.6585 5.57767C21.5702 4.74961 21.2009 3.9768 20.612 3.38796C20.0232 2.79912 19.2504 2.4298 18.4223 2.3415C14.1544 1.88617 9.85014 1.88617 5.58221 2.3415C4.75334 2.42882 3.97948 2.79771 3.38972 3.38664C2.79996 3.97557 2.42998 4.74892 2.3415 5.57767C1.88617 9.8456 1.88617 14.1499 2.3415 18.4178C2.42902 19.2466 2.79798 20.0203 3.38687 20.6101C3.97576 21.1998 4.749 21.5698 5.57767 21.6585C9.8456 22.1138 14.1499 22.1138 18.4178 21.6585C19.2466 21.571 20.0203 21.202 20.6101 20.6131C21.1998 20.0242 21.5698 19.251 21.6585 18.4223C22.1142 14.1529 22.1142 9.8471 21.6585 5.57767ZM8.81838 17.8269C8.81853 17.8824 8.80773 17.9373 8.78661 17.9886C8.7655 18.0399 8.73447 18.0865 8.69531 18.1257C8.65615 18.165 8.60962 18.1962 8.5584 18.2174C8.50718 18.2387 8.45227 18.2496 8.39681 18.2496H6.60033C6.54478 18.2498 6.48975 18.2389 6.43839 18.2177C6.38704 18.1966 6.34038 18.1654 6.3011 18.1261C6.26182 18.0869 6.23069 18.0402 6.2095 17.9889C6.18831 17.9375 6.17748 17.8825 6.17763 17.8269V10.2956C6.17763 10.1835 6.22216 10.0759 6.30144 9.99666C6.38071 9.91739 6.48822 9.87286 6.60033 9.87286H8.39681C8.50872 9.87316 8.61595 9.91783 8.69497 9.99707C8.774 10.0763 8.81838 10.1836 8.81838 10.2956V17.8269ZM7.498 9.15926C7.1609 9.15926 6.83136 9.0593 6.55107 8.87201C6.27077 8.68473 6.05231 8.41853 5.92331 8.10708C5.7943 7.79564 5.76055 7.45293 5.82631 7.1223C5.89208 6.79167 6.05441 6.48797 6.29278 6.2496C6.53115 6.01123 6.83485 5.8489 7.16548 5.78313C7.49611 5.71737 7.83882 5.75112 8.15026 5.88013C8.46171 6.00913 8.72791 6.22759 8.91519 6.50789C9.10248 6.78818 9.20245 7.11772 9.20245 7.45482C9.20245 7.90687 9.02287 8.3404 8.70323 8.66005C8.38358 8.97969 7.95005 9.15926 7.498 9.15926ZM18.2087 17.8565C18.2089 17.9075 18.1989 17.9581 18.1794 18.0054C18.16 18.0526 18.1313 18.0955 18.0952 18.1316C18.0591 18.1677 18.0162 18.1963 17.969 18.2158C17.9218 18.2353 17.8712 18.2452 17.8201 18.2451H15.8884C15.8373 18.2452 15.7867 18.2353 15.7395 18.2158C15.6923 18.1963 15.6494 18.1677 15.6133 18.1316C15.5772 18.0955 15.5485 18.0526 15.5291 18.0054C15.5096 17.9581 15.4996 17.9075 15.4998 17.8565V14.3283C15.4998 13.801 15.6543 12.0193 14.1215 12.0193C12.934 12.0193 12.692 13.2386 12.6443 13.7863V17.861C12.6443 17.9631 12.6041 18.0611 12.5325 18.1338C12.4608 18.2065 12.3634 18.2481 12.2613 18.2496H10.3956C10.3446 18.2496 10.2941 18.2396 10.247 18.22C10.1999 18.2005 10.1572 18.1718 10.1212 18.1357C10.0852 18.0996 10.0567 18.0568 10.0372 18.0096C10.0178 17.9625 10.0079 17.912 10.0081 17.861V10.2626C10.0079 10.2116 10.0178 10.1611 10.0372 10.114C10.0567 10.0668 10.0852 10.024 10.1212 9.98788C10.1572 9.95178 10.1999 9.92314 10.247 9.9036C10.2941 9.88405 10.3446 9.87399 10.3956 9.87399H12.2613C12.3644 9.87399 12.4633 9.91494 12.5361 9.98782C12.609 10.0607 12.65 10.1595 12.65 10.2626V10.9194C13.0908 10.2569 13.7442 9.74787 15.1384 9.74787C18.2269 9.74787 18.2064 12.6318 18.2064 14.2158L18.2087 17.8565Z" fill="white"/>
</g>
</g>
</g>
</g>
</svg>
