<svg width="24" height="24" viewBox="0 0 24 24" fill="none" xmlns="http://www.w3.org/2000/svg">
<g id="vuesax/bold/facebook">
<g id="14.tiktok">
<path id="background" d="M18.4223 21.6585C14.1544 22.1138 9.85014 22.1138 5.58221 21.6585C4.75342 21.571 3.97967 21.202 3.38995 20.6131C2.80023 20.0242 2.43019 19.251 2.3415 18.4223C1.88617 14.1544 1.88617 9.85014 2.3415 5.58221C2.42902 4.75342 2.79798 3.97967 3.38687 3.38995C3.97576 2.80023 4.749 2.43019 5.57767 2.3415C9.8456 1.88617 14.1499 1.88617 18.4178 2.3415C19.2466 2.42902 20.0203 2.79798 20.6101 3.38687C21.1998 3.97576 21.5698 4.749 21.6585 5.57767C22.1138 9.8456 22.1138 14.1499 21.6585 18.4178C21.571 19.2466 21.202 20.0203 20.6131 20.6101C20.0242 21.1998 19.251 21.5698 18.4223 21.6585Z" fill="white"/>
<path id="icon" d="M10.4921 18.2497C9.43427 18.2497 8.4198 17.8295 7.67184 17.0815C6.92387 16.3336 6.50366 15.3191 6.50366 14.2613C6.50366 13.2035 6.92387 12.1891 7.67184 11.4411C8.4198 10.6931 9.43427 10.2729 10.4921 10.2729H11.4659V12.2194H10.4921C10.0875 12.2194 9.69208 12.3394 9.35573 12.5641C9.01938 12.7889 8.75722 13.1083 8.60242 13.482C8.44761 13.8558 8.40711 14.267 8.48603 14.6638C8.56495 15.0605 8.75974 15.425 9.04579 15.711C9.33183 15.997 9.69628 16.1918 10.093 16.2708C10.4898 16.3497 10.901 16.3092 11.2748 16.1544C11.6485 15.9996 11.9679 15.7374 12.1927 15.4011C12.4174 15.0647 12.5374 14.6693 12.5374 14.2647V5.75049H14.4839V6.72316C14.4839 7.26561 14.6993 7.78585 15.0829 8.16942C15.4665 8.553 15.9867 8.76849 16.5292 8.76849H17.503V10.7115H16.5224C15.8015 10.7126 15.0941 10.5161 14.477 10.1434V14.2613C14.4761 15.3183 14.0561 16.3317 13.3091 17.0793C12.562 17.827 11.549 18.2479 10.4921 18.2497Z" fill="#302E56"/>
</g>
</g>
</svg>
