<svg width="52" height="52" viewBox="0 0 52 52" fill="none" xmlns="http://www.w3.org/2000/svg">
<g filter="url(#filter0_d_625_3003)">
<rect x="6" y="2" width="40" height="40" rx="10" fill="url(#paint0_linear_625_3003)" shape-rendering="crispEdges"/>
<path d="M32.04 23.55C31.62 23.96 31.38 24.55 31.44 25.18C31.53 26.26 32.52 27.05 33.6 27.05H35.5V28.24C35.5 30.31 33.81 32 31.74 32H20.26C18.19 32 16.5 30.31 16.5 28.24V21.51C16.5 19.44 18.19 17.75 20.26 17.75H31.74C33.81 17.75 35.5 19.44 35.5 21.51V22.95H33.48C32.92 22.95 32.41 23.17 32.04 23.55Z" stroke="white" stroke-width="1.5" stroke-linecap="round" stroke-linejoin="round"/>
<path d="M16.5 22.41V17.84C16.5 16.65 17.23 15.59 18.34 15.17L26.28 12.17C27.52 11.7 28.85 12.62 28.85 13.95V17.75" stroke="white" stroke-width="1.5" stroke-linecap="round" stroke-linejoin="round"/>
<path d="M36.56 23.97V26.03C36.56 26.58 36.12 27.03 35.56 27.05H33.6C32.52 27.05 31.53 26.26 31.44 25.18C31.38 24.55 31.62 23.96 32.04 23.55C32.41 23.17 32.92 22.95 33.48 22.95H35.56C36.12 22.97 36.56 23.42 36.56 23.97Z" stroke="white" stroke-width="1.5" stroke-linecap="round" stroke-linejoin="round"/>
<path d="M21 22H28" stroke="white" stroke-width="1.5" stroke-linecap="round" stroke-linejoin="round"/>
</g>
<defs>
<filter id="filter0_d_625_3003" x="0" y="0" width="52" height="52" filterUnits="userSpaceOnUse" color-interpolation-filters="sRGB">
<feFlood flood-opacity="0" result="BackgroundImageFix"/>
<feColorMatrix in="SourceAlpha" type="matrix" values="0 0 0 0 0 0 0 0 0 0 0 0 0 0 0 0 0 0 127 0" result="hardAlpha"/>
<feOffset dy="4"/>
<feGaussianBlur stdDeviation="3"/>
<feComposite in2="hardAlpha" operator="out"/>
<feColorMatrix type="matrix" values="0 0 0 0 0.419608 0 0 0 0 0.521569 0 0 0 0 0.847059 0 0 0 0.25 0"/>
<feBlend mode="normal" in2="BackgroundImageFix" result="effect1_dropShadow_625_3003"/>
<feBlend mode="normal" in="SourceGraphic" in2="effect1_dropShadow_625_3003" result="shape"/>
</filter>
<linearGradient id="paint0_linear_625_3003" x1="14.6364" y1="5.18182" x2="36.4545" y2="38.3636" gradientUnits="userSpaceOnUse">
<stop stop-color="#6B85D8"/>
<stop offset="1" stop-color="#4667CE"/>
</linearGradient>
</defs>
</svg>
