<svg width="52" height="52" viewBox="0 0 52 52" fill="none" xmlns="http://www.w3.org/2000/svg">
<g filter="url(#filter0_d_625_2976)">
<rect x="6" y="2" width="40" height="40" rx="10" fill="url(#paint0_linear_625_2976)" shape-rendering="crispEdges"/>
<path d="M26 29C28.2091 29 30 27.2091 30 25C30 22.7909 28.2091 21 26 21C23.7909 21 22 22.7909 22 25C22 27.2091 23.7909 29 26 29Z" stroke="white" stroke-width="1.5" stroke-miterlimit="10" stroke-linecap="round" stroke-linejoin="round"/>
<path d="M24.4399 25L25.0899 25.65C25.2799 25.84 25.5899 25.85 25.7799 25.66L27.5599 24.02" stroke="white" stroke-width="1.5" stroke-linecap="round" stroke-linejoin="round"/>
<path d="M23.0001 32H29.0001C33.0201 32 33.7401 30.39 33.9501 28.43L34.7001 22.43C34.9701 19.99 34.2701 18 30.0001 18H22.0001C17.7301 18 17.0301 19.99 17.3001 22.43L18.0501 28.43C18.2601 30.39 18.9801 32 23.0001 32Z" stroke="white" stroke-width="1.5" stroke-miterlimit="10" stroke-linecap="round" stroke-linejoin="round"/>
<path d="M21.5 17.67V16.7C21.5 14.45 23.31 12.24 25.56 12.03C28.24 11.77 30.5 13.88 30.5 16.51V17.89" stroke="white" stroke-width="1.5" stroke-miterlimit="10" stroke-linecap="round" stroke-linejoin="round"/>
</g>
<defs>
<filter id="filter0_d_625_2976" x="0" y="0" width="52" height="52" filterUnits="userSpaceOnUse" color-interpolation-filters="sRGB">
<feFlood flood-opacity="0" result="BackgroundImageFix"/>
<feColorMatrix in="SourceAlpha" type="matrix" values="0 0 0 0 0 0 0 0 0 0 0 0 0 0 0 0 0 0 127 0" result="hardAlpha"/>
<feOffset dy="4"/>
<feGaussianBlur stdDeviation="3"/>
<feComposite in2="hardAlpha" operator="out"/>
<feColorMatrix type="matrix" values="0 0 0 0 0.709804 0 0 0 0 0.890196 0 0 0 0 0.858824 0 0 0 0.25 0"/>
<feBlend mode="normal" in2="BackgroundImageFix" result="effect1_dropShadow_625_2976"/>
<feBlend mode="normal" in="SourceGraphic" in2="effect1_dropShadow_625_2976" result="shape"/>
</filter>
<linearGradient id="paint0_linear_625_2976" x1="14.6364" y1="5.18182" x2="36.4545" y2="38.3636" gradientUnits="userSpaceOnUse">
<stop offset="0.0193674" stop-color="#B5E3DB"/>
<stop offset="1" stop-color="#93C8BF"/>
</linearGradient>
</defs>
</svg>
