<svg width="52" height="52" viewBox="0 0 52 52" fill="none" xmlns="http://www.w3.org/2000/svg">
<g filter="url(#filter0_d_625_2945)">
<rect x="6" y="2" width="40" height="40" rx="10" fill="url(#paint0_linear_625_2945)" shape-rendering="crispEdges"/>
<path d="M26.1601 20.87C26.0601 20.86 25.9401 20.86 25.8301 20.87C23.4501 20.79 21.5601 18.84 21.5601 16.44C21.5601 13.99 23.5401 12 26.0001 12C28.4501 12 30.4401 13.99 30.4401 16.44C30.4301 18.84 28.5401 20.79 26.1601 20.87Z" stroke="white" stroke-width="1.5" stroke-linecap="round" stroke-linejoin="round"/>
<path d="M21.16 24.56C18.74 26.18 18.74 28.82 21.16 30.43C23.91 32.27 28.42 32.27 31.17 30.43C33.59 28.81 33.59 26.17 31.17 24.56C28.43 22.73 23.92 22.73 21.16 24.56Z" stroke="white" stroke-width="1.5" stroke-linecap="round" stroke-linejoin="round"/>
</g>
<defs>
<filter id="filter0_d_625_2945" x="0" y="0" width="52" height="52" filterUnits="userSpaceOnUse" color-interpolation-filters="sRGB">
<feFlood flood-opacity="0" result="BackgroundImageFix"/>
<feColorMatrix in="SourceAlpha" type="matrix" values="0 0 0 0 0 0 0 0 0 0 0 0 0 0 0 0 0 0 127 0" result="hardAlpha"/>
<feOffset dy="4"/>
<feGaussianBlur stdDeviation="3"/>
<feComposite in2="hardAlpha" operator="out"/>
<feColorMatrix type="matrix" values="0 0 0 0 0.945098 0 0 0 0 0.8 0 0 0 0 0.65098 0 0 0 0.25 0"/>
<feBlend mode="normal" in2="BackgroundImageFix" result="effect1_dropShadow_625_2945"/>
<feBlend mode="normal" in="SourceGraphic" in2="effect1_dropShadow_625_2945" result="shape"/>
</filter>
<linearGradient id="paint0_linear_625_2945" x1="14.6364" y1="5.18182" x2="36.4545" y2="38.3636" gradientUnits="userSpaceOnUse">
<stop offset="0.0193674" stop-color="#F1CCA6"/>
<stop offset="1" stop-color="#F3AE5B"/>
</linearGradient>
</defs>
</svg>
