<svg width="41" height="40" viewBox="0 0 41 40" fill="none" xmlns="http://www.w3.org/2000/svg">
<path d="M37.166 10L14.916 26.6333" stroke="#302E56" stroke-width="1.5" stroke-linecap="round" stroke-linejoin="round"/>
<path d="M37.166 29.95L14.916 13.3" stroke="#302E56" stroke-width="1.5" stroke-linecap="round" stroke-linejoin="round"/>
<path d="M9.66634 16.6667C12.888 16.6667 15.4997 14.055 15.4997 10.8333C15.4997 7.61167 12.888 5 9.66634 5C6.44468 5 3.83301 7.61167 3.83301 10.8333C3.83301 14.055 6.44468 16.6667 9.66634 16.6667Z" stroke="#93C8BF" stroke-width="1.5" stroke-linecap="round" stroke-linejoin="round"/>
<path d="M9.66634 34.9999C12.888 34.9999 15.4997 32.3882 15.4997 29.1666C15.4997 25.9449 12.888 23.3333 9.66634 23.3333C6.44468 23.3333 3.83301 25.9449 3.83301 29.1666C3.83301 32.3882 6.44468 34.9999 9.66634 34.9999Z" stroke="#93C8BF" stroke-width="1.5" stroke-linecap="round" stroke-linejoin="round"/>
</svg>
