<svg width="52" height="52" viewBox="0 0 52 52" fill="none" xmlns="http://www.w3.org/2000/svg">
<g filter="url(#filter0_d_625_3042)">
<rect x="6" y="2" width="40" height="40" rx="10" fill="url(#paint0_linear_625_3042)" shape-rendering="crispEdges"/>
<path d="M20.7 19.26L25.9999 22.33L31.2599 19.28" stroke="white" stroke-width="1.5" stroke-linecap="round" stroke-linejoin="round"/>
<path d="M26 27.77V22.32" stroke="white" stroke-width="1.5" stroke-linecap="round" stroke-linejoin="round"/>
<path d="M24.76 16.29L21.56 18.07C20.84 18.47 20.24 19.48 20.24 20.31V23.7C20.24 24.53 20.83 25.54 21.56 25.94L24.76 27.72C25.44 28.1 26.56 28.1 27.25 27.72L30.45 25.94C31.17 25.54 31.77 24.53 31.77 23.7V20.3C31.77 19.47 31.18 18.46 30.45 18.06L27.25 16.28C26.56 15.9 25.44 15.9 24.76 16.29Z" stroke="white" stroke-width="1.5" stroke-linecap="round" stroke-linejoin="round"/>
<path d="M36 25C36 28.87 32.87 32 29 32L30.05 30.25" stroke="white" stroke-width="1.5" stroke-linecap="round" stroke-linejoin="round"/>
<path d="M16 19C16 15.13 19.13 12 23 12L21.95 13.75" stroke="white" stroke-width="1.5" stroke-linecap="round" stroke-linejoin="round"/>
</g>
<defs>
<filter id="filter0_d_625_3042" x="0" y="0" width="52" height="52" filterUnits="userSpaceOnUse" color-interpolation-filters="sRGB">
<feFlood flood-opacity="0" result="BackgroundImageFix"/>
<feColorMatrix in="SourceAlpha" type="matrix" values="0 0 0 0 0 0 0 0 0 0 0 0 0 0 0 0 0 0 127 0" result="hardAlpha"/>
<feOffset dy="4"/>
<feGaussianBlur stdDeviation="3"/>
<feComposite in2="hardAlpha" operator="out"/>
<feColorMatrix type="matrix" values="0 0 0 0 0.945098 0 0 0 0 0.8 0 0 0 0 0.65098 0 0 0 0.25 0"/>
<feBlend mode="normal" in2="BackgroundImageFix" result="effect1_dropShadow_625_3042"/>
<feBlend mode="normal" in="SourceGraphic" in2="effect1_dropShadow_625_3042" result="shape"/>
</filter>
<linearGradient id="paint0_linear_625_3042" x1="14.6364" y1="5.18182" x2="36.4545" y2="38.3636" gradientUnits="userSpaceOnUse">
<stop offset="0.0193674" stop-color="#F1CCA6"/>
<stop offset="1" stop-color="#F3AE5B"/>
</linearGradient>
</defs>
</svg>
