<svg width="41" height="40" viewBox="0 0 41 40" fill="none" xmlns="http://www.w3.org/2000/svg">
<path d="M20.4996 34.2857C17.6741 34.2857 14.9121 33.4478 12.5629 31.8781C10.2136 30.3084 8.38256 28.0772 7.30131 25.4669C6.22006 22.8565 5.93715 19.9841 6.48837 17.2129C7.03959 14.4418 8.40017 11.8963 10.3981 9.89843C12.396 7.90054 14.9414 6.53995 17.7126 5.98874C20.4837 5.43752 23.3561 5.72042 25.9665 6.80168C28.5769 7.88293 30.808 9.71396 32.3777 12.0632C33.9475 14.4125 34.7853 17.1745 34.7853 20C34.7811 23.7875 33.2746 27.4186 30.5964 30.0968C27.9183 32.775 24.2871 34.2814 20.4996 34.2857ZM20.4996 6.8571C17.9002 6.8571 15.3591 7.62791 13.1978 9.07207C11.0365 10.5162 9.35192 12.5689 8.35717 14.9704C7.36242 17.3719 7.10215 20.0145 7.60927 22.564C8.11639 25.1135 9.36812 27.4553 11.2062 29.2934C13.0442 31.1314 15.3861 32.3832 17.9355 32.8903C20.485 33.3974 23.1276 33.1371 25.5291 32.1424C27.9307 31.1476 29.9833 29.4631 31.4275 27.3017C32.8716 25.1404 33.6424 22.5994 33.6424 20C33.6385 16.5155 32.2526 13.1748 29.7886 10.7109C27.3247 8.24698 23.9841 6.86103 20.4996 6.8571Z" fill="#302E56"/>
<path d="M20.4999 30.2132C18.4799 30.2133 16.5052 29.6144 14.8256 28.4922C13.146 27.37 11.8368 25.775 11.0637 23.9088C10.2906 22.0426 10.0883 19.9891 10.4823 18.0079C10.8763 16.0267 11.849 14.2068 13.2773 12.7784C14.7056 11.35 16.5254 10.3773 18.5066 9.98315C20.4878 9.58903 22.5413 9.79125 24.4075 10.5642C26.2738 11.3372 27.8689 12.6463 28.9912 14.3258C30.1134 16.0054 30.7124 17.98 30.7124 20C30.7094 22.7077 29.6325 25.3036 27.7179 27.2183C25.8034 29.1329 23.2075 30.21 20.4999 30.2132ZM20.4999 10.9297C18.7059 10.9296 16.9522 11.4615 15.4605 12.4581C13.9688 13.4547 12.8062 14.8712 12.1196 16.5286C11.433 18.1859 11.2533 20.0097 11.6032 21.7692C11.9531 23.5287 12.8169 25.1449 14.0854 26.4135C15.3539 27.682 16.9701 28.5459 18.7295 28.896C20.489 29.246 22.3128 29.0664 23.9702 28.3799C25.6276 27.6934 27.0442 26.5309 28.0409 25.0393C29.0376 23.5476 29.5696 21.794 29.5696 20C29.5668 17.5954 28.6104 15.29 26.9101 13.5896C25.2098 11.8892 22.9045 10.9326 20.4999 10.9297Z" fill="#302E56"/>
<path d="M24.3494 22.1794C23.9183 22.1794 23.4969 22.0516 23.1385 21.8121C22.7801 21.5726 22.5008 21.2323 22.3358 20.834C22.1709 20.4358 22.1277 19.9976 22.2118 19.5748C22.2959 19.152 22.5035 18.7637 22.8083 18.4589C23.1131 18.1541 23.5014 17.9465 23.9242 17.8624C24.3469 17.7783 24.7851 17.8215 25.1834 17.9865C25.5816 18.1514 25.922 18.4308 26.1615 18.7892C26.401 19.1476 26.5288 19.5689 26.5288 20C26.5282 20.5778 26.2984 21.1318 25.8898 21.5404C25.4812 21.949 24.9272 22.1788 24.3494 22.1794ZM24.3494 18.9634C24.1443 18.9634 23.9439 19.0242 23.7735 19.1381C23.603 19.252 23.4701 19.4139 23.3917 19.6033C23.3132 19.7927 23.2927 20.0011 23.3327 20.2022C23.3727 20.4033 23.4714 20.588 23.6164 20.733C23.7614 20.8779 23.9461 20.9766 24.1471 21.0166C24.3482 21.0566 24.5566 21.0361 24.746 20.9577C24.9354 20.8792 25.0973 20.7463 25.2112 20.5759C25.3251 20.4054 25.3859 20.205 25.3859 20C25.3856 19.7252 25.2763 19.4617 25.082 19.2674C24.8877 19.073 24.6242 18.9637 24.3494 18.9634Z" fill="#93C8BF"/>
<path d="M16.6501 22.1794C16.2191 22.1794 15.7977 22.0516 15.4393 21.8121C15.0809 21.5726 14.8016 21.2323 14.6366 20.834C14.4716 20.4358 14.4285 19.9976 14.5126 19.5748C14.5967 19.152 14.8042 18.7637 15.109 18.4589C15.4138 18.1541 15.8022 17.9465 16.2249 17.8624C16.6477 17.7783 17.0859 17.8215 17.4842 17.9865C17.8824 18.1514 18.2228 18.4308 18.4623 18.7892C18.7017 19.1476 18.8296 19.5689 18.8296 20C18.829 20.5778 18.5991 21.1318 18.1906 21.5404C17.782 21.949 17.228 22.1788 16.6501 22.1794ZM16.6501 18.9634C16.4451 18.9634 16.2447 19.0242 16.0742 19.1381C15.9038 19.252 15.7709 19.4139 15.6925 19.6033C15.614 19.7927 15.5935 20.0011 15.6335 20.2022C15.6735 20.4033 15.7722 20.588 15.9172 20.733C16.0621 20.8779 16.2468 20.9766 16.4479 21.0166C16.649 21.0566 16.8574 21.0361 17.0468 20.9577C17.2362 20.8792 17.3981 20.7463 17.512 20.5759C17.6259 20.4054 17.6867 20.205 17.6867 20C17.6864 19.7252 17.5771 19.4617 17.3828 19.2674C17.1884 19.073 16.925 18.9637 16.6501 18.9634Z" fill="#93C8BF"/>
<path d="M24.35 20.5714H16.6505C16.499 20.5714 16.3536 20.5112 16.2465 20.4041C16.1393 20.2969 16.0791 20.1516 16.0791 20C16.0791 19.8485 16.1393 19.7031 16.2465 19.596C16.3536 19.4888 16.499 19.4286 16.6505 19.4286H24.35C24.5015 19.4286 24.6469 19.4888 24.754 19.596C24.8612 19.7031 24.9214 19.8485 24.9214 20C24.9214 20.1516 24.8612 20.2969 24.754 20.4041C24.6469 20.5112 24.5015 20.5714 24.35 20.5714Z" fill="#93C8BF"/>
</svg>
