<svg width="52" height="52" viewBox="0 0 52 52" fill="none" xmlns="http://www.w3.org/2000/svg">
<g filter="url(#filter0_d_625_3025)">
<rect x="6" y="2" width="40" height="40" rx="10" fill="url(#paint0_linear_625_3025)" shape-rendering="crispEdges"/>
<path d="M29 12V22C29 23.1 28.1 24 27 24H16V16C16 13.79 17.79 12 20 12H29Z" stroke="white" stroke-width="1.5" stroke-linecap="round" stroke-linejoin="round"/>
<path d="M36 24V27C36 28.66 34.66 30 33 30H32C32 28.9 31.1 28 30 28C28.9 28 28 28.9 28 30H24C24 28.9 23.1 28 22 28C20.9 28 20 28.9 20 30H19C17.34 30 16 28.66 16 27V24H27C28.1 24 29 23.1 29 22V15H30.84C31.56 15 32.22 15.39 32.58 16.01L34.29 19H33C32.45 19 32 19.45 32 20V23C32 23.55 32.45 24 33 24H36Z" stroke="white" stroke-width="1.5" stroke-linecap="round" stroke-linejoin="round"/>
<path d="M22 32C23.1046 32 24 31.1046 24 30C24 28.8954 23.1046 28 22 28C20.8954 28 20 28.8954 20 30C20 31.1046 20.8954 32 22 32Z" stroke="white" stroke-width="1.5" stroke-linecap="round" stroke-linejoin="round"/>
<path d="M30 32C31.1046 32 32 31.1046 32 30C32 28.8954 31.1046 28 30 28C28.8954 28 28 28.8954 28 30C28 31.1046 28.8954 32 30 32Z" stroke="white" stroke-width="1.5" stroke-linecap="round" stroke-linejoin="round"/>
<path d="M36 22V24H33C32.45 24 32 23.55 32 23V20C32 19.45 32.45 19 33 19H34.29L36 22Z" stroke="white" stroke-width="1.5" stroke-linecap="round" stroke-linejoin="round"/>
</g>
<defs>
<filter id="filter0_d_625_3025" x="0" y="0" width="52" height="52" filterUnits="userSpaceOnUse" color-interpolation-filters="sRGB">
<feFlood flood-opacity="0" result="BackgroundImageFix"/>
<feColorMatrix in="SourceAlpha" type="matrix" values="0 0 0 0 0 0 0 0 0 0 0 0 0 0 0 0 0 0 127 0" result="hardAlpha"/>
<feOffset dy="4"/>
<feGaussianBlur stdDeviation="3"/>
<feComposite in2="hardAlpha" operator="out"/>
<feColorMatrix type="matrix" values="0 0 0 0 0.909804 0 0 0 0 0.439216 0 0 0 0 0.439216 0 0 0 0.25 0"/>
<feBlend mode="normal" in2="BackgroundImageFix" result="effect1_dropShadow_625_3025"/>
<feBlend mode="normal" in="SourceGraphic" in2="effect1_dropShadow_625_3025" result="shape"/>
</filter>
<linearGradient id="paint0_linear_625_3025" x1="14.6364" y1="5.18182" x2="36.4545" y2="38.3636" gradientUnits="userSpaceOnUse">
<stop offset="0.0193674" stop-color="#FBAAAA"/>
<stop offset="1" stop-color="#E87070"/>
</linearGradient>
</defs>
</svg>
