<svg width="21" height="20" viewBox="0 0 21 20" fill="none" xmlns="http://www.w3.org/2000/svg">
<g id="Icon/Back">
<g id="chevron left">
<path id="Icon color" d="M13.6497 9.3998C13.7669 9.51689 13.8329 9.67576 13.833 9.84146L13.833 10.1581C13.8311 10.3235 13.7654 10.4817 13.6497 10.5998L9.36634 14.8748C9.32761 14.9139 9.28152 14.9448 9.23075 14.966C9.17997 14.9872 9.12551 14.998 9.07051 14.998C9.0155 14.998 8.96104 14.9872 8.91027 14.966C8.85949 14.9448 8.81341 14.9139 8.77467 14.8748L8.18301 14.2831C8.1442 14.2451 8.11338 14.1997 8.09233 14.1496C8.07129 14.0996 8.06045 14.0458 8.06045 13.9915C8.06045 13.9371 8.07129 13.8834 8.09233 13.8333C8.11338 13.7832 8.1442 13.7378 8.18301 13.6998L11.8913 9.99813L8.18301 6.29813C8.14395 6.2594 8.11296 6.21331 8.0918 6.16254C8.07065 6.11176 8.05976 6.0573 8.05976 6.0023C8.05976 5.94729 8.07065 5.89283 8.0918 5.84206C8.11296 5.79128 8.14395 5.7452 8.18301 5.70646L8.77467 5.12313C8.81341 5.08408 8.85949 5.05308 8.91027 5.03193C8.96104 5.01077 9.0155 4.99988 9.07051 4.99988C9.12551 4.99988 9.17997 5.01077 9.23075 5.03193C9.28152 5.05308 9.32761 5.08408 9.36634 5.12313L13.6497 9.3998Z" fill="#302E56"/>
</g>
</g>
</svg>
