<svg width="73" height="72" viewBox="0 0 73 72" fill="none" xmlns="http://www.w3.org/2000/svg">
<g filter="url(#filter0_d_1095_5675)">
<rect x="6.5" y="2" width="60" height="60" rx="16" fill="url(#paint0_linear_1095_5675)" shape-rendering="crispEdges"/>
<path d="M46.5 30V33C46.5 37 44.5 39 40.5 39H40C39.69 39 39.39 39.15 39.2 39.4L37.7 41.4C37.04 42.28 35.96 42.28 35.3 41.4L33.8 39.4C33.64 39.18 33.27 39 33 39H32.5C28.5 39 26.5 38 26.5 33V28C26.5 24 28.5 22 32.5 22H38.5" stroke="white" stroke-width="1.5" stroke-miterlimit="10" stroke-linecap="round" stroke-linejoin="round"/>
<path d="M44 27C45.3807 27 46.5 25.8807 46.5 24.5C46.5 23.1193 45.3807 22 44 22C42.6193 22 41.5 23.1193 41.5 24.5C41.5 25.8807 42.6193 27 44 27Z" stroke="white" stroke-width="1.5" stroke-linecap="round" stroke-linejoin="round"/>
<path d="M40.4965 31H40.5054" stroke="white" stroke-width="2" stroke-linecap="round" stroke-linejoin="round"/>
<path d="M36.4955 31H36.5045" stroke="white" stroke-width="2" stroke-linecap="round" stroke-linejoin="round"/>
<path d="M32.4945 31H32.5035" stroke="white" stroke-width="2" stroke-linecap="round" stroke-linejoin="round"/>
</g>
<defs>
<filter id="filter0_d_1095_5675" x="0.5" y="0" width="72" height="72" filterUnits="userSpaceOnUse" color-interpolation-filters="sRGB">
<feFlood flood-opacity="0" result="BackgroundImageFix"/>
<feColorMatrix in="SourceAlpha" type="matrix" values="0 0 0 0 0 0 0 0 0 0 0 0 0 0 0 0 0 0 127 0" result="hardAlpha"/>
<feOffset dy="4"/>
<feGaussianBlur stdDeviation="3"/>
<feComposite in2="hardAlpha" operator="out"/>
<feColorMatrix type="matrix" values="0 0 0 0 0.960784 0 0 0 0 0.588235 0 0 0 0 0.588235 0 0 0 0.25 0"/>
<feBlend mode="normal" in2="BackgroundImageFix" result="effect1_dropShadow_1095_5675"/>
<feBlend mode="normal" in="SourceGraphic" in2="effect1_dropShadow_1095_5675" result="shape"/>
</filter>
<linearGradient id="paint0_linear_1095_5675" x1="19.4545" y1="6.77273" x2="52.1818" y2="56.5455" gradientUnits="userSpaceOnUse">
<stop stop-color="#FBAAAA"/>
<stop offset="1" stop-color="#E87070"/>
</linearGradient>
</defs>
</svg>
