<svg width="73" height="72" viewBox="0 0 73 72" fill="none" xmlns="http://www.w3.org/2000/svg">
<g filter="url(#filter0_d_1095_5664)">
<rect x="6.5" y="2" width="60" height="60" rx="16" fill="url(#paint0_linear_1095_5664)" shape-rendering="crispEdges"/>
<path d="M36.5 42.75C30.57 42.75 25.75 37.93 25.75 32C25.75 26.07 30.57 21.25 36.5 21.25C42.43 21.25 47.25 26.07 47.25 32C47.25 37.93 42.43 42.75 36.5 42.75ZM36.5 22.75C31.4 22.75 27.25 26.9 27.25 32C27.25 37.1 31.4 41.25 36.5 41.25C41.6 41.25 45.75 37.1 45.75 32C45.75 26.9 41.6 22.75 36.5 22.75Z" fill="white"/>
<path d="M40.5 32.75H32.5C32.09 32.75 31.75 32.41 31.75 32C31.75 31.59 32.09 31.25 32.5 31.25H40.5C40.91 31.25 41.25 31.59 41.25 32C41.25 32.41 40.91 32.75 40.5 32.75Z" fill="white"/>
<path d="M36.5 36.75C36.09 36.75 35.75 36.41 35.75 36V28C35.75 27.59 36.09 27.25 36.5 27.25C36.91 27.25 37.25 27.59 37.25 28V36C37.25 36.41 36.91 36.75 36.5 36.75Z" fill="white"/>
</g>
<defs>
<filter id="filter0_d_1095_5664" x="0.5" y="0" width="72" height="72" filterUnits="userSpaceOnUse" color-interpolation-filters="sRGB">
<feFlood flood-opacity="0" result="BackgroundImageFix"/>
<feColorMatrix in="SourceAlpha" type="matrix" values="0 0 0 0 0 0 0 0 0 0 0 0 0 0 0 0 0 0 127 0" result="hardAlpha"/>
<feOffset dy="4"/>
<feGaussianBlur stdDeviation="3"/>
<feComposite in2="hardAlpha" operator="out"/>
<feColorMatrix type="matrix" values="0 0 0 0 0.945098 0 0 0 0 0.8 0 0 0 0 0.65098 0 0 0 0.25 0"/>
<feBlend mode="normal" in2="BackgroundImageFix" result="effect1_dropShadow_1095_5664"/>
<feBlend mode="normal" in="SourceGraphic" in2="effect1_dropShadow_1095_5664" result="shape"/>
</filter>
<linearGradient id="paint0_linear_1095_5664" x1="19.4545" y1="6.77273" x2="52.1818" y2="56.5455" gradientUnits="userSpaceOnUse">
<stop offset="0.0193674" stop-color="#F1CCA6"/>
<stop offset="1" stop-color="#F3AE5B"/>
</linearGradient>
</defs>
</svg>
