<svg width="48" height="49" viewBox="0 0 48 49" fill="none" xmlns="http://www.w3.org/2000/svg">
<g filter="url(#filter0_d_1095_5626)">
<path d="M32.0875 30.0375L32.575 33.9875C32.7 35.025 31.5875 35.75 30.7 35.2125L25.4625 32.1C24.8875 32.1 24.325 32.0625 23.775 31.9875C24.7 30.9 25.25 29.525 25.25 28.0375C25.25 24.4875 22.175 21.6125 18.375 21.6125C16.925 21.6125 15.5875 22.025 14.475 22.75C14.4375 22.4375 14.425 22.125 14.425 21.8C14.425 16.1125 19.3625 11.5 25.4625 11.5C31.5625 11.5 36.5 16.1125 36.5 21.8C36.5 25.175 34.7625 28.1625 32.0875 30.0375Z" stroke="#302E56" stroke-width="1.5" stroke-linecap="round" stroke-linejoin="round"/>
<path d="M25.25 28.0375C25.25 29.525 24.7 30.9 23.775 31.9875C22.5375 33.4875 20.575 34.45 18.375 34.45L15.1125 36.3875C14.5625 36.725 13.8625 36.2625 13.9375 35.625L14.25 33.1625C12.575 32 11.5 30.1375 11.5 28.0375C11.5 25.8375 12.675 23.9 14.475 22.75C15.5875 22.025 16.925 21.6125 18.375 21.6125C22.175 21.6125 25.25 24.4875 25.25 28.0375Z" stroke="#302E56" stroke-width="1.5" stroke-linecap="round" stroke-linejoin="round"/>
</g>
<defs>
<filter id="filter0_d_1095_5626" x="-6" y="-2" width="60" height="60" filterUnits="userSpaceOnUse" color-interpolation-filters="sRGB">
<feFlood flood-opacity="0" result="BackgroundImageFix"/>
<feColorMatrix in="SourceAlpha" type="matrix" values="0 0 0 0 0 0 0 0 0 0 0 0 0 0 0 0 0 0 127 0" result="hardAlpha"/>
<feOffset dy="4"/>
<feGaussianBlur stdDeviation="3"/>
<feComposite in2="hardAlpha" operator="out"/>
<feColorMatrix type="matrix" values="0 0 0 0 0.945098 0 0 0 0 0.8 0 0 0 0 0.65098 0 0 0 0.25 0"/>
<feBlend mode="normal" in2="BackgroundImageFix" result="effect1_dropShadow_1095_5626"/>
<feBlend mode="normal" in="SourceGraphic" in2="effect1_dropShadow_1095_5626" result="shape"/>
</filter>
</defs>
</svg>
