<svg width="48" height="48" viewBox="0 0 48 48" fill="none" xmlns="http://www.w3.org/2000/svg">
<path d="M11.5875 14.7501C12.5875 10.4251 19.1 10.4251 20.0875 14.7501C20.675 17.2876 19.0625 19.4376 17.6625 20.7751C16.6375 21.7501 15.025 21.7376 14 20.7751C12.6125 19.4376 11 17.2876 11.5875 14.7501Z" stroke="#302E56" stroke-width="1.5"/>
<path d="M27.8375 29.7501C28.8375 25.4251 35.3875 25.4251 36.3875 29.7501C36.975 32.2876 35.3625 34.4376 33.95 35.7751C32.925 36.7501 31.3 36.7376 30.275 35.7751C28.8625 34.4376 27.25 32.2876 27.8375 29.7501Z" stroke="#302E56" stroke-width="1.5"/>
<path d="M24 15.25H27.35C29.6625 15.25 30.7375 18.1125 29 19.6375L19.0125 28.375C17.275 29.8875 18.35 32.75 20.65 32.75H24" stroke="#302E56" stroke-width="1.5" stroke-linecap="round" stroke-linejoin="round"/>
<path d="M15.8578 15.875H15.8722" stroke="#302E56" stroke-width="2" stroke-linecap="round" stroke-linejoin="round"/>
<path d="M32.1078 30.875H32.1222" stroke="#302E56" stroke-width="2" stroke-linecap="round" stroke-linejoin="round"/>
</svg>
