<svg width="48" height="49" viewBox="0 0 48 49" fill="none" xmlns="http://www.w3.org/2000/svg">
<g filter="url(#filter0_d_1095_5620)">
<path d="M36.4625 31.9125C36.4625 32.3625 36.3625 32.825 36.15 33.275C35.9375 33.725 35.6625 34.15 35.3 34.55C34.6875 35.225 34.0125 35.7125 33.25 36.025C32.5 36.3375 31.6875 36.5 30.8125 36.5C29.5375 36.5 28.175 36.2 26.7375 35.5875C25.3 34.975 23.8625 34.15 22.4375 33.1125C21 32.0625 19.6375 30.9 18.3375 29.6125C17.05 28.3125 15.8875 26.95 14.85 25.525C13.825 24.1 13 22.675 12.4 21.2625C11.8 19.8375 11.5 18.475 11.5 17.175C11.5 16.325 11.65 15.5125 11.95 14.7625C12.25 14 12.725 13.3 13.3875 12.675C14.1875 11.8875 15.0625 11.5 15.9875 11.5C16.3375 11.5 16.6875 11.575 17 11.725C17.325 11.875 17.6125 12.1 17.8375 12.425L20.7375 16.5125C20.9625 16.825 21.125 17.1125 21.2375 17.3875C21.35 17.65 21.4125 17.9125 21.4125 18.15C21.4125 18.45 21.325 18.75 21.15 19.0375C20.9875 19.325 20.75 19.625 20.45 19.925L19.5 20.9125C19.3625 21.05 19.3 21.2125 19.3 21.4125C19.3 21.5125 19.3125 21.6 19.3375 21.7C19.375 21.8 19.4125 21.875 19.4375 21.95C19.6625 22.3625 20.05 22.9 20.6 23.55C21.1625 24.2 21.7625 24.8625 22.4125 25.525C23.0875 26.1875 23.7375 26.8 24.4 27.3625C25.05 27.9125 25.5875 28.2875 26.0125 28.5125C26.075 28.5375 26.15 28.575 26.2375 28.6125C26.3375 28.65 26.4375 28.6625 26.55 28.6625C26.7625 28.6625 26.925 28.5875 27.0625 28.45L28.0125 27.5125C28.325 27.2 28.625 26.9625 28.9125 26.8125C29.2 26.6375 29.4875 26.55 29.8 26.55C30.0375 26.55 30.2875 26.6 30.5625 26.7125C30.8375 26.825 31.125 26.9875 31.4375 27.2L35.575 30.1375C35.9 30.3625 36.125 30.625 36.2625 30.9375C36.3875 31.25 36.4625 31.5625 36.4625 31.9125Z" stroke="#302E56" stroke-width="1.5" stroke-miterlimit="10"/>
<path d="M32.125 20.25C32.125 19.5 31.5375 18.35 30.6625 17.4125C29.8625 16.55 28.8 15.875 27.75 15.875" stroke="#302E56" stroke-width="1.5" stroke-linecap="round" stroke-linejoin="round"/>
<path d="M36.5 20.25C36.5 15.4125 32.5875 11.5 27.75 11.5" stroke="#302E56" stroke-width="1.5" stroke-linecap="round" stroke-linejoin="round"/>
</g>
<defs>
<filter id="filter0_d_1095_5620" x="-6" y="-2" width="60" height="60" filterUnits="userSpaceOnUse" color-interpolation-filters="sRGB">
<feFlood flood-opacity="0" result="BackgroundImageFix"/>
<feColorMatrix in="SourceAlpha" type="matrix" values="0 0 0 0 0 0 0 0 0 0 0 0 0 0 0 0 0 0 127 0" result="hardAlpha"/>
<feOffset dy="4"/>
<feGaussianBlur stdDeviation="3"/>
<feComposite in2="hardAlpha" operator="out"/>
<feColorMatrix type="matrix" values="0 0 0 0 0.709804 0 0 0 0 0.890196 0 0 0 0 0.858824 0 0 0 0.25 0"/>
<feBlend mode="normal" in2="BackgroundImageFix" result="effect1_dropShadow_1095_5620"/>
<feBlend mode="normal" in="SourceGraphic" in2="effect1_dropShadow_1095_5620" result="shape"/>
</filter>
</defs>
</svg>
