<svg width="48" height="48" viewBox="0 0 48 48" fill="none" xmlns="http://www.w3.org/2000/svg">
<path d="M31.497 17.95C31.422 17.9375 31.3345 17.9375 31.2595 17.95C29.5345 17.8875 28.1595 16.475 28.1595 14.725C28.1595 12.9375 29.597 11.5 31.3845 11.5C33.172 11.5 34.6095 12.95 34.6095 14.725C34.597 16.475 33.222 17.8875 31.497 17.95Z" stroke="#302E56" stroke-width="1.5" stroke-linecap="round" stroke-linejoin="round"/>
<path d="M30.2094 27.05C31.9219 27.3375 33.8094 27.0375 35.1344 26.15C36.8969 24.975 36.8969 23.05 35.1344 21.875C33.7969 20.9875 31.8844 20.6875 30.1719 20.9875" stroke="#302E56" stroke-width="1.5" stroke-linecap="round" stroke-linejoin="round"/>
<path d="M16.4594 17.95C16.5344 17.9375 16.6219 17.9375 16.6969 17.95C18.4219 17.8875 19.7969 16.475 19.7969 14.725C19.7969 12.9375 18.3594 11.5 16.5719 11.5C14.7844 11.5 13.3469 12.95 13.3469 14.725C13.3594 16.475 14.7344 17.8875 16.4594 17.95Z" stroke="#302E56" stroke-width="1.5" stroke-linecap="round" stroke-linejoin="round"/>
<path d="M17.7469 27.05C16.0344 27.3375 14.1469 27.0375 12.8219 26.15C11.0594 24.975 11.0594 23.05 12.8219 21.875C14.1594 20.9875 16.0719 20.6875 17.7844 20.9875" stroke="#302E56" stroke-width="1.5" stroke-linecap="round" stroke-linejoin="round"/>
<path d="M24 27.2875C23.925 27.275 23.8375 27.275 23.7625 27.2875C22.0375 27.225 20.6625 25.8125 20.6625 24.0625C20.6625 22.275 22.1 20.8375 23.8875 20.8375C25.675 20.8375 27.1125 22.2875 27.1125 24.0625C27.1 25.8125 25.725 27.2375 24 27.2875Z" stroke="#302E56" stroke-width="1.5" stroke-linecap="round" stroke-linejoin="round"/>
<path d="M20.3625 31.2251C18.6 32.4001 18.6 34.3251 20.3625 35.5001C22.3625 36.8376 25.6375 36.8376 27.6375 35.5001C29.4 34.3251 29.4 32.4001 27.6375 31.2251C25.65 29.9001 22.3625 29.9001 20.3625 31.2251Z" stroke="#302E56" stroke-width="1.5" stroke-linecap="round" stroke-linejoin="round"/>
</svg>
