<svg width="24" height="24" viewBox="0 0 24 24" fill="none" xmlns="http://www.w3.org/2000/svg">
<g id="Icon/Back">
<g id="chevron left">
<path id="Icon color" d="M15.78 11.28C15.9207 11.4205 15.9998 11.6112 16 11.81L16 12.19C15.9977 12.3884 15.9189 12.5783 15.78 12.72L10.64 17.85C10.5935 17.8969 10.5382 17.9341 10.4773 17.9595C10.4164 17.9849 10.351 17.9979 10.285 17.9979C10.219 17.9979 10.1536 17.9849 10.0927 17.9595C10.0318 17.9341 9.97648 17.8969 9.93 17.85L9.22 17.14C9.17344 17.0944 9.13644 17.0399 9.11119 16.9798C9.08594 16.9197 9.07293 16.8552 9.07293 16.79C9.07293 16.7248 9.08594 16.6603 9.11119 16.6002C9.13644 16.5401 9.17344 16.4856 9.22 16.44L13.67 11.998L9.22 7.55803C9.17314 7.51154 9.13594 7.45624 9.11056 7.39531C9.08517 7.33438 9.0721 7.26903 9.0721 7.20303C9.0721 7.13702 9.08517 7.07167 9.11056 7.01074C9.13594 6.94981 9.17314 6.89451 9.22 6.84803L9.93 6.14802C9.97648 6.10116 10.0318 6.06396 10.0927 6.03858C10.1536 6.0132 10.219 6.00013 10.285 6.00013C10.351 6.00013 10.4164 6.0132 10.4773 6.03858C10.5382 6.06396 10.5935 6.10116 10.64 6.14803L15.78 11.28Z" fill="#BFC0C4"/>
</g>
</g>
</svg>
