<svg width="20" height="20" viewBox="0 0 20 20" fill="none" xmlns="http://www.w3.org/2000/svg">
<g id="Frame" clip-path="url(#clip0_438_4443)">
<g id="facebook">
<path id="Icon color" d="M13.7502 5H11.2502C11.0291 5 10.8172 5.0878 10.6609 5.24408C10.5046 5.40036 10.4168 5.61232 10.4168 5.83333V8.33333H13.7502C13.7969 8.3323 13.8431 8.3425 13.8851 8.36307C13.927 8.38365 13.9634 8.41399 13.9912 8.45156C14.019 8.48913 14.0373 8.53282 14.0447 8.57896C14.052 8.62509 14.0482 8.67232 14.0335 8.71667L13.4168 10.55C13.3891 10.6321 13.3365 10.7035 13.2663 10.7543C13.1961 10.8051 13.1118 10.8327 13.0252 10.8333H10.4168V17.0833C10.4168 17.1938 10.3729 17.2998 10.2948 17.378C10.2167 17.4561 10.1107 17.5 10.0002 17.5H7.91683C7.80632 17.5 7.70034 17.4561 7.6222 17.378C7.54406 17.2998 7.50016 17.1938 7.50016 17.0833V10.8333H6.25016C6.13966 10.8333 6.03368 10.7894 5.95553 10.7113C5.87739 10.6332 5.8335 10.5272 5.8335 10.4167V8.75C5.8335 8.63949 5.87739 8.53351 5.95553 8.45537C6.03368 8.37723 6.13966 8.33333 6.25016 8.33333H7.50016V5.83333C7.50016 4.94928 7.85135 4.10143 8.47647 3.47631C9.10159 2.85119 9.94944 2.5 10.8335 2.5H13.7502C13.8607 2.5 13.9667 2.5439 14.0448 2.62204C14.1229 2.70018 14.1668 2.80616 14.1668 2.91667V4.58333C14.1668 4.69384 14.1229 4.79982 14.0448 4.87796C13.9667 4.9561 13.8607 5 13.7502 5Z" fill="#74738E"/>
</g>
</g>
<defs>
<clipPath id="clip0_438_4443">
<rect width="20" height="20" fill="white"/>
</clipPath>
</defs>
</svg>
