<svg width="24" height="24" viewBox="0 0 24 24" fill="none" xmlns="http://www.w3.org/2000/svg">
<g id="Group 4275">
<g id="Page 1">
<g id="1. Home Page">
<g id="Sewing">
<g id="Group 6">
<g id="Group 4268">
<path id="Fill 118" fill-rule="evenodd" clip-rule="evenodd" d="M18.4761 4.74952H5.6167V9.65779H14.128V15.1758H21.5769V8.2764C21.5769 4.72573 18.4761 4.74952 18.4761 4.74952Z" fill="#C1E8E1"/>
<path id="Fill 119" fill-rule="evenodd" clip-rule="evenodd" d="M19.5628 7.18207L16.1211 10.7277L20.4389 15.1758H21.5773V9.25736L19.5628 7.18207Z" fill="#A2DCD2"/>
<path id="Fill 120" fill-rule="evenodd" clip-rule="evenodd" d="M18.3693 13.1362L17.2178 14.3225L18.0461 15.1758H20.3492L18.3693 13.1362Z" fill="#A2DCD2"/>
<path id="Fill 121" fill-rule="evenodd" clip-rule="evenodd" d="M2.3877 13.8843H3.53638V12.3917H2.3877V13.8843Z" fill="#7E69CC"/>
<path id="Fill 123" fill-rule="evenodd" clip-rule="evenodd" d="M1.74414 4.74951V12.3917H4.33796L5.61683 9.65779V4.74951H1.74414Z" fill="#92D3CD"/>
<path id="Fill 124" fill-rule="evenodd" clip-rule="evenodd" d="M19.5627 7.18209C20.5131 8.16114 20.5131 9.74874 19.5627 10.7278C18.6123 11.7068 17.0714 11.7068 16.121 10.7277C15.1705 9.74862 15.1707 8.16114 16.121 7.18221C17.0714 6.20304 18.6123 6.20304 19.5627 7.18209Z" fill="#957BDA"/>
<path id="Fill 125" fill-rule="evenodd" clip-rule="evenodd" d="M18.659 13.3055C18.659 13.7704 18.2931 14.1473 17.8417 14.1473C17.3904 14.1473 17.0244 13.7704 17.0244 13.3055C17.0244 12.8405 17.3904 12.4635 17.8417 12.4635C18.2931 12.4635 18.659 12.8405 18.659 13.3055Z" fill="#957BDA"/>
<path id="Fill 128" fill-rule="evenodd" clip-rule="evenodd" d="M21.5771 15.1758H2.07506L1.74414 16.1713V18.6811H21.9081V16.1713L21.5771 15.1758Z" fill="#92D3CD"/>
<path id="Fill 129" fill-rule="evenodd" clip-rule="evenodd" d="M5.6167 4.74951L10.3808 9.65731L5.6167 9.65779V4.74951Z" fill="#A2DCD2"/>
<path id="Fill 137" fill-rule="evenodd" clip-rule="evenodd" d="M2.56006 4.74958H3.01967V3.3103H2.56006V4.74958Z" fill="#2E2F55"/>
<path id="Fill 138" fill-rule="evenodd" clip-rule="evenodd" d="M3.97363 4.74958H4.43324V3.3103H3.97363V4.74958Z" fill="#2E2F55"/>
</g>
<path id="Fill 142" fill-rule="evenodd" clip-rule="evenodd" d="M3.63013 20.6896H6.05251V20.2161H3.63013V20.6896ZM7.07963 20.6896H12.0722V20.2161H7.07963V20.6896ZM13.2319 20.6896H23.6892V20.2161H13.2319V20.6896ZM0 18.9178H24V18.4443H0V18.9178Z" fill="#2E2F55"/>
</g>
</g>
</g>
</g>
</g>
</svg>
