<svg width="20" height="20" viewBox="0 0 20 20" fill="none" xmlns="http://www.w3.org/2000/svg">
<g id="Frame" clip-path="url(#clip0_438_4461)">
<g id="instagram">
<path id="Icon color" d="M13.3333 17.5H6.66667C5.562 17.4987 4.50296 17.0593 3.72185 16.2782C2.94073 15.497 2.50132 14.438 2.5 13.3333L2.5 6.66667C2.50132 5.562 2.94073 4.50296 3.72185 3.72185C4.50296 2.94073 5.562 2.50132 6.66667 2.5L13.3333 2.5C14.438 2.50132 15.497 2.94073 16.2782 3.72185C17.0593 4.50296 17.4987 5.562 17.5 6.66667V13.3333C17.4987 14.438 17.0593 15.497 16.2782 16.2782C15.497 17.0593 14.438 17.4987 13.3333 17.5ZM6.66667 3.95833C5.94979 3.96292 5.26358 4.24974 4.75666 4.75666C4.24974 5.26358 3.96292 5.94979 3.95833 6.66667V13.3333C3.96292 14.0502 4.24974 14.7364 4.75666 15.2433C5.26358 15.7503 5.94979 16.0371 6.66667 16.0417H13.3333C14.0502 16.0371 14.7364 15.7503 15.2433 15.2433C15.7503 14.7364 16.0371 14.0502 16.0417 13.3333V6.66667C16.0371 5.94979 15.7503 5.26358 15.2433 4.75666C14.7364 4.24974 14.0502 3.96292 13.3333 3.95833H6.66667ZM10 13.75C9.00544 13.75 8.05161 13.3549 7.34835 12.6516C6.64509 11.9484 6.25 10.9946 6.25 10C6.25 9.00544 6.64509 8.05161 7.34835 7.34835C8.05161 6.64509 9.00544 6.25 10 6.25H10.0083C11.0029 6.25111 11.9563 6.64725 12.6588 7.3513C13.3612 8.05534 13.7553 9.0096 13.7542 10.0042C13.7531 10.9987 13.3569 11.9521 12.6529 12.6546C11.9488 13.3571 10.9946 13.7511 10 13.75ZM10 7.70833C9.54675 7.70833 9.10368 7.84274 8.72682 8.09455C8.34996 8.34636 8.05623 8.70427 7.88278 9.12302C7.70933 9.54176 7.66394 10.0025 7.75237 10.4471C7.84079 10.8916 8.05905 11.3 8.37955 11.6205C8.70004 11.9409 9.10838 12.1592 9.55292 12.2476C9.99746 12.3361 10.4582 12.2907 10.877 12.1172C11.2957 11.9438 11.6536 11.65 11.9055 11.2732C12.1573 10.8963 12.2917 10.4532 12.2917 10C12.2908 9.39248 12.0491 8.8101 11.6195 8.38052C11.1899 7.95094 10.6075 7.70922 10 7.70833ZM13.9583 6.875C13.7935 6.875 13.6324 6.82613 13.4954 6.73456C13.3583 6.64299 13.2515 6.51284 13.1884 6.36057C13.1254 6.2083 13.1089 6.04074 13.141 5.87909C13.1732 5.71744 13.2525 5.56895 13.3691 5.45241C13.4856 5.33587 13.6341 5.2565 13.7958 5.22435C13.9574 5.19219 14.125 5.20869 14.2772 5.27177C14.4295 5.33484 14.5597 5.44165 14.6512 5.57869C14.7428 5.71573 14.7917 5.87685 14.7917 6.04167C14.7917 6.26268 14.7039 6.47464 14.5476 6.63092C14.3913 6.7872 14.1793 6.875 13.9583 6.875Z" fill="#74738E"/>
</g>
</g>
<defs>
<clipPath id="clip0_438_4461">
<rect width="20" height="20" fill="white"/>
</clipPath>
</defs>
</svg>
