<svg width="20" height="20" viewBox="0 0 20 20" fill="none" xmlns="http://www.w3.org/2000/svg">
<g id="Frame" clip-path="url(#clip0_438_4434)">
<g id="linkedin">
<path id="Icon color" d="M17.0832 16.6667H14.9998C14.8893 16.6667 14.7834 16.6228 14.7052 16.5446C14.6271 16.4665 14.5832 16.3605 14.5832 16.25V11.4833C14.5865 11.2624 14.5458 11.043 14.4636 10.8378C14.3813 10.6327 14.259 10.4461 14.1039 10.2886C13.9488 10.1312 13.764 10.0062 13.5601 9.92088C13.3563 9.83557 13.1375 9.79164 12.9165 9.79167C12.8212 9.79175 12.7262 9.80012 12.6323 9.81667C12.2346 9.89644 11.8779 10.1141 11.6249 10.4312C11.372 10.7483 11.2392 11.1445 11.2498 11.55V16.25C11.2498 16.3605 11.2059 16.4665 11.1278 16.5446C11.0497 16.6228 10.9437 16.6667 10.8332 16.6667H8.74984C8.63933 16.6667 8.53335 16.6228 8.45521 16.5446C8.37707 16.4665 8.33317 16.3605 8.33317 16.25V7.91667C8.33317 7.80616 8.37707 7.70018 8.45521 7.62204C8.53335 7.5439 8.63933 7.5 8.74984 7.5H10.8332C10.9437 7.5 11.0497 7.5439 11.1278 7.62204C11.2059 7.70018 11.2498 7.80616 11.2498 7.91667V8.26667C11.6875 7.8661 12.2147 7.57614 12.7874 7.42101C13.36 7.26589 13.9615 7.25011 14.5415 7.375C15.394 7.57614 16.1521 8.06262 16.6902 8.75377C17.2283 9.44492 17.5139 10.2992 17.4998 11.175V16.25C17.4998 16.3605 17.4559 16.4665 17.3778 16.5446C17.2997 16.6228 17.1937 16.6667 17.0832 16.6667ZM5.83317 16.6667H3.74984C3.63933 16.6667 3.53335 16.6228 3.45521 16.5446C3.37707 16.4665 3.33317 16.3605 3.33317 16.25V7.91667C3.33317 7.80616 3.37707 7.70018 3.45521 7.62204C3.53335 7.5439 3.63933 7.5 3.74984 7.5H5.83317C5.94368 7.5 6.04966 7.5439 6.1278 7.62204C6.20594 7.70018 6.24984 7.80616 6.24984 7.91667V16.25C6.24984 16.3605 6.20594 16.4665 6.1278 16.5446C6.04966 16.6228 5.94368 16.6667 5.83317 16.6667ZM4.58317 5.83333C4.25354 5.83333 3.9313 5.73559 3.65722 5.55245C3.38314 5.36931 3.16952 5.10902 3.04337 4.80447C2.91723 4.49993 2.88422 4.16482 2.94853 3.84152C3.01284 3.51822 3.17157 3.22124 3.40466 2.98816C3.63775 2.75507 3.93472 2.59633 4.25802 2.53203C4.58132 2.46772 4.91643 2.50072 5.22098 2.62687C5.52552 2.75301 5.78582 2.96664 5.96895 3.24072C6.15209 3.5148 6.24984 3.83703 6.24984 4.16667C6.24984 4.6087 6.07424 5.03262 5.76168 5.34518C5.44912 5.65774 5.0252 5.83333 4.58317 5.83333Z" fill="#74738E"/>
</g>
</g>
<defs>
<clipPath id="clip0_438_4434">
<rect width="20" height="20" fill="white"/>
</clipPath>
</defs>
</svg>
