<svg width="20" height="20" viewBox="0 0 20 20" fill="none" xmlns="http://www.w3.org/2000/svg">
<g id="Frame" clip-path="url(#clip0_438_4452)">
<g id="twitter">
<path id="Icon color" d="M18.3082 5.38667C17.8782 5.96019 17.3585 6.46052 16.769 6.86834V7.32584C16.7719 8.67281 16.5068 10.0069 15.989 11.2504C15.4713 12.4939 14.7113 13.6219 13.7533 14.5688C12.7953 15.5157 11.6585 16.2625 10.4091 16.7657C9.15963 17.269 7.82255 17.5186 6.4757 17.5C4.90323 17.5049 3.351 17.1455 1.9407 16.45C1.90344 16.4337 1.87174 16.4069 1.84953 16.3729C1.82732 16.3388 1.81556 16.299 1.8157 16.2583V16.1667C1.8157 16.1092 1.83853 16.0541 1.87916 16.0135C1.9198 15.9728 1.97491 15.95 2.03237 15.95C3.57808 15.8985 5.06842 15.3621 6.29237 14.4167C5.60684 14.4028 4.9392 14.1954 4.3665 13.8184C3.7938 13.4414 3.33939 12.9101 3.0557 12.2858C3.04129 12.2516 3.03594 12.2142 3.04016 12.1773C3.04437 12.1403 3.05802 12.1051 3.07978 12.075C3.10154 12.0449 3.13068 12.0208 3.16441 12.0052C3.19814 11.9896 3.23532 11.9829 3.27237 11.9858C3.69762 12.0286 4.12711 11.989 4.53737 11.8692C3.7848 11.7131 3.10121 11.3221 2.58513 10.7525C2.06904 10.183 1.7471 9.46427 1.6657 8.7C1.6628 8.66295 1.66947 8.62577 1.68508 8.59205C1.70069 8.55832 1.72472 8.52917 1.75485 8.50741C1.78498 8.48565 1.8202 8.47201 1.85713 8.46779C1.89405 8.46357 1.93144 8.46893 1.9657 8.48334C2.38017 8.66634 2.82765 8.76276 3.2807 8.76667C2.62257 8.33463 2.12601 7.69684 1.86852 6.95287C1.61103 6.2089 1.60711 5.40061 1.85737 4.65417C1.8834 4.58077 1.92807 4.5154 1.98699 4.46448C2.04591 4.41355 2.11706 4.37882 2.19345 4.3637C2.26985 4.34857 2.34886 4.35356 2.42274 4.37819C2.49662 4.40282 2.56283 4.44623 2.61487 4.50417C4.44102 6.4479 6.95095 7.60605 9.61487 7.73417C9.54656 7.46172 9.51296 7.18172 9.51487 6.90084C9.52642 6.18138 9.75168 5.48161 10.162 4.89052C10.5723 4.29943 11.1492 3.84372 11.8192 3.58135C12.4892 3.31897 13.2221 3.26178 13.9247 3.41706C14.6273 3.57233 15.2678 3.93305 15.7649 4.45334C16.4563 4.32118 17.1248 4.08873 17.749 3.76334C17.7715 3.7493 17.7975 3.74186 17.824 3.74186C17.8506 3.74186 17.8765 3.7493 17.899 3.76334C17.9131 3.78583 17.9205 3.81182 17.9205 3.83834C17.9205 3.86486 17.9131 3.89084 17.899 3.91334C17.5964 4.6078 17.0846 5.19046 16.4349 5.58C17.0045 5.51411 17.5641 5.37981 18.1015 5.18C18.1237 5.16496 18.1498 5.15691 18.1765 5.15691C18.2033 5.15691 18.2294 5.16496 18.2515 5.18C18.2703 5.18857 18.2869 5.20112 18.3003 5.21677C18.3137 5.23242 18.3235 5.25081 18.329 5.27064C18.3346 5.29047 18.3357 5.31127 18.3324 5.3316C18.3291 5.35193 18.3214 5.37129 18.3099 5.38834L18.3082 5.38667Z" fill="#74738E"/>
</g>
</g>
<defs>
<clipPath id="clip0_438_4452">
<rect width="20" height="20" fill="white"/>
</clipPath>
</defs>
</svg>
