<svg width="20" height="20" viewBox="0 0 20 20" fill="none" xmlns="http://www.w3.org/2000/svg">
<g id="Frame" clip-path="url(#clip0_438_4470)">
<g id="whatsapp_outlined">
<path id="Icon color" d="M9.99853 18.3333C8.36328 18.3348 6.76396 17.8536 5.40103 16.95L3.02686 17.7167H2.90186C2.78925 17.7164 2.68135 17.6714 2.60186 17.5917C2.54683 17.5375 2.50829 17.4688 2.49074 17.3935C2.47319 17.3183 2.47733 17.2396 2.5027 17.1667L3.2527 14.8833C2.15756 13.3679 1.6043 11.5279 1.682 9.65977C1.7597 7.79163 2.46385 6.00399 3.68105 4.58468C4.89825 3.16538 6.55769 2.19701 8.39217 1.83548C10.2266 1.47396 12.1294 1.74033 13.7941 2.59169C15.4588 3.44306 16.7885 4.82988 17.5692 6.52887C18.3499 8.22785 18.5361 10.1401 18.0978 11.9578C17.6595 13.7755 16.6223 15.3928 15.1531 16.5493C13.6839 17.7058 11.8683 18.3342 9.99853 18.3333ZM10.0027 3.33334C8.46031 3.33301 6.96553 3.8675 5.77304 4.84573C4.58056 5.82397 3.76417 7.18542 3.46296 8.69811C3.16176 10.2108 3.39438 11.7811 4.1212 13.1415C4.84802 14.5019 6.02406 15.5682 7.44893 16.1587C8.8738 16.7492 10.4593 16.8274 11.9354 16.3799C13.4114 15.9325 14.6867 14.987 15.5438 13.7047C16.4009 12.4224 16.7869 10.8826 16.6359 9.34761C16.485 7.81263 15.8065 6.37747 14.716 5.28667C13.4656 4.03704 11.7705 3.33454 10.0027 3.33334ZM12.331 13.9492C11.6049 13.8793 10.8963 13.6851 10.236 13.375C8.80762 12.6815 7.59697 11.6092 6.73603 10.275C6.25786 9.66577 5.9682 8.93004 5.9027 8.15834C5.90125 7.83417 5.96888 7.5134 6.10107 7.2174C6.23326 6.9214 6.42699 6.65696 6.66936 6.44167C6.86029 6.27994 7.10248 6.19134 7.3527 6.19167H7.6277C7.83936 6.19167 7.93603 6.19167 8.0777 6.54167C8.21936 6.89167 8.65353 7.95834 8.7027 8.05834C8.73531 8.11696 8.75243 8.18293 8.75243 8.25001C8.75243 8.31709 8.73531 8.38306 8.7027 8.44167C8.64341 8.56033 8.56766 8.67003 8.4777 8.76751C8.43353 8.81917 8.38686 8.86667 8.34103 8.91334C8.28067 8.9726 8.22337 9.0349 8.16936 9.10001C8.10288 9.14996 8.05748 9.22296 8.04206 9.30468C8.02664 9.3864 8.04232 9.47093 8.08603 9.54167C8.396 10.0667 8.78057 10.5439 9.2277 10.9583C9.71411 11.4014 10.2795 11.7491 10.8944 11.9833C10.9766 12.0203 11.068 12.0321 11.157 12.0172C11.2459 12.0024 11.3285 11.9616 11.3944 11.9C11.5921 11.669 11.7731 11.4242 11.936 11.1675C11.9891 11.0862 12.07 11.027 12.1635 11.001C12.2571 10.9749 12.3569 10.9837 12.4444 11.0258C12.631 11.0825 13.596 11.56 13.8444 11.6842L13.9519 11.7367C14.0635 11.7746 14.1639 11.8396 14.2444 11.9258C14.3012 12.2595 14.2546 12.6026 14.111 12.9092C13.9725 13.1683 13.7767 13.3923 13.5384 13.5642C13.3 13.7361 13.0256 13.8512 12.736 13.9008C12.6026 13.9332 12.4658 13.9494 12.3285 13.9492H12.331Z" fill="#74738E"/>
</g>
</g>
<defs>
<clipPath id="clip0_438_4470">
<rect width="20" height="20" fill="white"/>
</clipPath>
</defs>
</svg>
