<svg width="24" height="24" viewBox="0 0 24 24" fill="none" xmlns="http://www.w3.org/2000/svg">
<g id="pearls 1" style="mix-blend-mode:luminosity">
<g id="Group">
<path id="Vector" d="M12.0002 23.1657C7.38642 23.1657 3.63281 19.4121 3.63281 14.7983V1.22937H4.42401V14.7983C4.42401 18.9758 7.82268 22.3745 12.0002 22.3745C16.1777 22.3745 19.5763 18.9758 19.5763 14.7983V1.22937H20.3675V14.7983C20.3676 19.4121 16.614 23.1657 12.0002 23.1657Z" fill="#2E2F55"/>
<path id="Vector_2" d="M11.9999 14.654C9.73509 14.654 7.89258 12.8114 7.89258 10.5466V1.16016H8.68378V10.5466C8.68378 12.3752 10.1714 13.8628 11.9999 13.8628C13.8285 13.8628 15.3161 12.3752 15.3161 10.5466V1.16016H16.1073V10.5466C16.1073 12.8115 14.2648 14.654 11.9999 14.654Z" fill="#2E2F55"/>
</g>
<path id="Vector_3" d="M12.0401 16.1876C13.1053 16.1876 13.9689 15.3241 13.9689 14.2588C13.9689 13.1936 13.1053 12.3301 12.0401 12.3301C10.9749 12.3301 10.1113 13.1936 10.1113 14.2588C10.1113 15.3241 10.9749 16.1876 12.0401 16.1876Z" fill="#ABECE7"/>
<path id="Vector_4" d="M8.44168 12.4576C9.08258 12.4576 9.60212 11.938 9.60212 11.2972C9.60212 10.6563 9.08258 10.1367 8.44168 10.1367C7.80079 10.1367 7.28125 10.6563 7.28125 11.2972C7.28125 11.938 7.80079 12.4576 8.44168 12.4576Z" fill="#92D3CD"/>
<path id="Vector_5" d="M8.3284 7.39313C8.96929 7.39313 9.48884 6.87359 9.48884 6.2327C9.48884 5.59181 8.96929 5.07227 8.3284 5.07227C7.68751 5.07227 7.16797 5.59181 7.16797 6.2327C7.16797 6.87359 7.68751 7.39313 8.3284 7.39313Z" fill="#ABECE7"/>
<g id="Group_2">
<path id="Vector_6" d="M8.3284 2.32087C8.96929 2.32087 9.48884 1.80133 9.48884 1.16044C9.48884 0.519545 8.96929 0 8.3284 0C7.68751 0 7.16797 0.519545 7.16797 1.16044C7.16797 1.80133 7.68751 2.32087 8.3284 2.32087Z" fill="#92D3CD"/>
<path id="Vector_7" d="M15.6385 12.4576C16.2794 12.4576 16.7989 11.938 16.7989 11.2972C16.7989 10.6563 16.2794 10.1367 15.6385 10.1367C14.9976 10.1367 14.478 10.6563 14.478 11.2972C14.478 11.938 14.9976 12.4576 15.6385 12.4576Z" fill="#92D3CD"/>
</g>
<path id="Vector_8" d="M15.7517 7.39313C16.3926 7.39313 16.9122 6.87359 16.9122 6.2327C16.9122 5.59181 16.3926 5.07227 15.7517 5.07227C15.1109 5.07227 14.5913 5.59181 14.5913 6.2327C14.5913 6.87359 15.1109 7.39313 15.7517 7.39313Z" fill="#ABECE7"/>
<path id="Vector_9" d="M15.7517 2.32087C16.3926 2.32087 16.9122 1.80133 16.9122 1.16044C16.9122 0.519545 16.3926 0 15.7517 0C15.1109 0 14.5913 0.519545 14.5913 1.16044C14.5913 1.80133 15.1109 2.32087 15.7517 2.32087Z" fill="#92D3CD"/>
<g id="Group_3">
<path id="Vector_10" d="M19.9718 2.45915C20.6508 2.45915 21.2013 1.90865 21.2013 1.22958C21.2013 0.5505 20.6508 0 19.9718 0C19.2927 0 18.7422 0.5505 18.7422 1.22958C18.7422 1.90865 19.2927 2.45915 19.9718 2.45915Z" fill="#2E2F55"/>
<path id="Vector_11" d="M19.9718 6.18571C20.6508 6.18571 21.2013 5.63521 21.2013 4.95614C21.2013 4.27706 20.6508 3.72656 19.9718 3.72656C19.2927 3.72656 18.7422 4.27706 18.7422 4.95614C18.7422 5.63521 19.2927 6.18571 19.9718 6.18571Z" fill="#2E2F55"/>
<path id="Vector_12" d="M19.9718 9.9113C20.6508 9.9113 21.2013 9.3608 21.2013 8.68172C21.2013 8.00265 20.6508 7.45215 19.9718 7.45215C19.2927 7.45215 18.7422 8.00265 18.7422 8.68172C18.7422 9.3608 19.2927 9.9113 19.9718 9.9113Z" fill="#2E2F55"/>
<path id="Vector_13" d="M19.9718 13.6379C20.6508 13.6379 21.2013 13.0874 21.2013 12.4083C21.2013 11.7292 20.6508 11.1787 19.9718 11.1787C19.2927 11.1787 18.7422 11.7292 18.7422 12.4083C18.7422 13.0874 19.2927 13.6379 19.9718 13.6379Z" fill="#2E2F55"/>
<path id="Vector_14" d="M19.8009 17.3528C20.4799 17.3528 21.0304 16.8023 21.0304 16.1232C21.0304 15.4442 20.4799 14.8937 19.8009 14.8937C19.1218 14.8937 18.5713 15.4442 18.5713 16.1232C18.5713 16.8023 19.1218 17.3528 19.8009 17.3528Z" fill="#2E2F55"/>
<path id="Vector_15" d="M18.3829 20.7375C19.062 20.7375 19.6125 20.187 19.6125 19.5079C19.6125 18.8288 19.062 18.2783 18.3829 18.2783C17.7038 18.2783 17.1533 18.8288 17.1533 19.5079C17.1533 20.187 17.7038 20.7375 18.3829 20.7375Z" fill="#2E2F55"/>
<path id="Vector_16" d="M15.5846 23.1191C16.2636 23.1191 16.8141 22.5686 16.8141 21.8895C16.8141 21.2105 16.2636 20.66 15.5846 20.66C14.9055 20.66 14.355 21.2105 14.355 21.8895C14.355 22.5686 14.9055 23.1191 15.5846 23.1191Z" fill="#2E2F55"/>
<path id="Vector_17" d="M12.0001 24C12.6792 24 13.2297 23.4495 13.2297 22.7704C13.2297 22.0913 12.6792 21.5408 12.0001 21.5408C11.321 21.5408 10.7705 22.0913 10.7705 22.7704C10.7705 23.4495 11.321 24 12.0001 24Z" fill="#2E2F55"/>
<path id="Vector_18" d="M4.0284 2.45915C4.70748 2.45915 5.25798 1.90865 5.25798 1.22958C5.25798 0.5505 4.70748 0 4.0284 0C3.34933 0 2.79883 0.5505 2.79883 1.22958C2.79883 1.90865 3.34933 2.45915 4.0284 2.45915Z" fill="#2E2F55"/>
<path id="Vector_19" d="M4.0284 6.18571C4.70748 6.18571 5.25798 5.63521 5.25798 4.95614C5.25798 4.27706 4.70748 3.72656 4.0284 3.72656C3.34933 3.72656 2.79883 4.27706 2.79883 4.95614C2.79883 5.63521 3.34933 6.18571 4.0284 6.18571Z" fill="#2E2F55"/>
<path id="Vector_20" d="M4.0284 9.9113C4.70748 9.9113 5.25798 9.3608 5.25798 8.68172C5.25798 8.00265 4.70748 7.45215 4.0284 7.45215C3.34933 7.45215 2.79883 8.00265 2.79883 8.68172C2.79883 9.3608 3.34933 9.9113 4.0284 9.9113Z" fill="#2E2F55"/>
<path id="Vector_21" d="M4.0284 13.6379C4.70748 13.6379 5.25798 13.0874 5.25798 12.4083C5.25798 11.7292 4.70748 11.1787 4.0284 11.1787C3.34933 11.1787 2.79883 11.7292 2.79883 12.4083C2.79883 13.0874 3.34933 13.6379 4.0284 13.6379Z" fill="#2E2F55"/>
<path id="Vector_22" d="M4.1993 17.3528C4.87838 17.3528 5.42888 16.8023 5.42888 16.1232C5.42888 15.4442 4.87838 14.8937 4.1993 14.8937C3.52023 14.8937 2.96973 15.4442 2.96973 16.1232C2.96973 16.8023 3.52023 17.3528 4.1993 17.3528Z" fill="#2E2F55"/>
<path id="Vector_23" d="M5.61727 20.7375C6.29635 20.7375 6.84685 20.187 6.84685 19.5079C6.84685 18.8288 6.29635 18.2783 5.61727 18.2783C4.9382 18.2783 4.3877 18.8288 4.3877 19.5079C4.3877 20.187 4.9382 20.7375 5.61727 20.7375Z" fill="#2E2F55"/>
<path id="Vector_24" d="M8.41561 23.1191C9.09469 23.1191 9.64519 22.5686 9.64519 21.8895C9.64519 21.2105 9.09469 20.66 8.41561 20.66C7.73653 20.66 7.18604 21.2105 7.18604 21.8895C7.18604 22.5686 7.73653 23.1191 8.41561 23.1191Z" fill="#2E2F55"/>
</g>
<path id="Vector_25" d="M19.9718 2.45915C20.6508 2.45915 21.2013 1.90865 21.2013 1.22958C21.2013 0.5505 20.6508 0 19.9718 0C19.2927 0 18.7422 0.5505 18.7422 1.22958C18.7422 1.90865 19.2927 2.45915 19.9718 2.45915Z" fill="#957BDA"/>
<path id="Vector_26" d="M19.9718 6.18571C20.6508 6.18571 21.2013 5.63521 21.2013 4.95614C21.2013 4.27706 20.6508 3.72656 19.9718 3.72656C19.2927 3.72656 18.7422 4.27706 18.7422 4.95614C18.7422 5.63521 19.2927 6.18571 19.9718 6.18571Z" fill="#D4B5F7"/>
<path id="Vector_27" d="M19.9718 9.9113C20.6508 9.9113 21.2013 9.3608 21.2013 8.68172C21.2013 8.00265 20.6508 7.45215 19.9718 7.45215C19.2927 7.45215 18.7422 8.00265 18.7422 8.68172C18.7422 9.3608 19.2927 9.9113 19.9718 9.9113Z" fill="#957BDA"/>
<path id="Vector_28" d="M19.9718 13.6379C20.6508 13.6379 21.2013 13.0874 21.2013 12.4083C21.2013 11.7292 20.6508 11.1787 19.9718 11.1787C19.2927 11.1787 18.7422 11.7292 18.7422 12.4083C18.7422 13.0874 19.2927 13.6379 19.9718 13.6379Z" fill="#D4B5F7"/>
<path id="Vector_29" d="M19.8009 17.3528C20.4799 17.3528 21.0304 16.8023 21.0304 16.1232C21.0304 15.4442 20.4799 14.8937 19.8009 14.8937C19.1218 14.8937 18.5713 15.4442 18.5713 16.1232C18.5713 16.8023 19.1218 17.3528 19.8009 17.3528Z" fill="#957BDA"/>
<path id="Vector_30" d="M18.3829 20.7375C19.062 20.7375 19.6125 20.187 19.6125 19.5079C19.6125 18.8288 19.062 18.2783 18.3829 18.2783C17.7038 18.2783 17.1533 18.8288 17.1533 19.5079C17.1533 20.187 17.7038 20.7375 18.3829 20.7375Z" fill="#D4B5F7"/>
<path id="Vector_31" d="M15.5846 23.1191C16.2636 23.1191 16.8141 22.5686 16.8141 21.8895C16.8141 21.2105 16.2636 20.66 15.5846 20.66C14.9055 20.66 14.355 21.2105 14.355 21.8895C14.355 22.5686 14.9055 23.1191 15.5846 23.1191Z" fill="#957BDA"/>
<path id="Vector_32" d="M12.0001 24C12.6792 24 13.2297 23.4495 13.2297 22.7704C13.2297 22.0913 12.6792 21.5408 12.0001 21.5408C11.321 21.5408 10.7705 22.0913 10.7705 22.7704C10.7705 23.4495 11.321 24 12.0001 24Z" fill="#D4B5F7"/>
<path id="Vector_33" d="M4.0284 2.45915C4.70748 2.45915 5.25798 1.90865 5.25798 1.22958C5.25798 0.5505 4.70748 0 4.0284 0C3.34933 0 2.79883 0.5505 2.79883 1.22958C2.79883 1.90865 3.34933 2.45915 4.0284 2.45915Z" fill="#957BDA"/>
<path id="Vector_34" d="M4.0284 6.18571C4.70748 6.18571 5.25798 5.63521 5.25798 4.95614C5.25798 4.27706 4.70748 3.72656 4.0284 3.72656C3.34933 3.72656 2.79883 4.27706 2.79883 4.95614C2.79883 5.63521 3.34933 6.18571 4.0284 6.18571Z" fill="#D4B5F7"/>
<path id="Vector_35" d="M4.0284 9.9113C4.70748 9.9113 5.25798 9.3608 5.25798 8.68172C5.25798 8.00265 4.70748 7.45215 4.0284 7.45215C3.34933 7.45215 2.79883 8.00265 2.79883 8.68172C2.79883 9.3608 3.34933 9.9113 4.0284 9.9113Z" fill="#957BDA"/>
<path id="Vector_36" d="M4.0284 13.6379C4.70748 13.6379 5.25798 13.0874 5.25798 12.4083C5.25798 11.7292 4.70748 11.1787 4.0284 11.1787C3.34933 11.1787 2.79883 11.7292 2.79883 12.4083C2.79883 13.0874 3.34933 13.6379 4.0284 13.6379Z" fill="#D4B5F7"/>
<path id="Vector_37" d="M4.1993 17.3528C4.87838 17.3528 5.42888 16.8023 5.42888 16.1232C5.42888 15.4442 4.87838 14.8937 4.1993 14.8937C3.52023 14.8937 2.96973 15.4442 2.96973 16.1232C2.96973 16.8023 3.52023 17.3528 4.1993 17.3528Z" fill="#957BDA"/>
<path id="Vector_38" d="M5.61678 20.7375C6.29586 20.7375 6.84636 20.187 6.84636 19.5079C6.84636 18.8288 6.29586 18.2783 5.61678 18.2783C4.93771 18.2783 4.38721 18.8288 4.38721 19.5079C4.38721 20.187 4.93771 20.7375 5.61678 20.7375Z" fill="#D4B5F7"/>
<path id="Vector_39" d="M8.41512 23.1191C9.0942 23.1191 9.6447 22.5686 9.6447 21.8895C9.6447 21.2105 9.0942 20.66 8.41512 20.66C7.73605 20.66 7.18555 21.2105 7.18555 21.8895C7.18555 22.5686 7.73605 23.1191 8.41512 23.1191Z" fill="#957BDA"/>
</g>
</svg>
