<svg width="24" height="24" viewBox="0 0 24 24" fill="none" xmlns="http://www.w3.org/2000/svg">
<g style="mix-blend-mode:luminosity">
<path d="M21.375 1.125H2.25C1.62868 1.125 1.125 1.62868 1.125 2.25V21C1.125 21.6213 1.62868 22.125 2.25 22.125H21.375C21.9963 22.125 22.5 21.6213 22.5 21V2.25C22.5 1.62868 21.9963 1.125 21.375 1.125Z" fill="#A2DCD2"/>
<path d="M11.0033 15.1819L6.9674 19.2178C6.34386 19.8413 5.54973 20.2664 4.68506 20.4394C4.85806 19.5747 5.28309 18.7806 5.90662 18.157L9.94256 14.1211L11.0033 15.1819Z" fill="#CBCBCA"/>
<path d="M13.7466 10.318L19.0041 5.06051C19.1447 4.91985 19.3355 4.84082 19.5345 4.84082C19.7334 4.84082 19.9242 4.91985 20.0649 5.06051C20.2055 5.20118 20.2846 5.39197 20.2846 5.59091C20.2846 5.78984 20.2055 5.98063 20.0649 6.1213L14.8074 11.3788L13.7466 10.318Z" fill="#CBCBCA"/>
<path d="M18.375 20.625H13.5C13.2016 20.625 12.9155 20.5065 12.7045 20.2955C12.4935 20.0845 12.375 19.7984 12.375 19.5C12.375 19.2016 12.4935 18.9155 12.7045 18.7045C12.9155 18.4935 13.2016 18.375 13.5 18.375H19.875C19.9745 18.375 20.0698 18.3355 20.1402 18.2652C20.2105 18.1948 20.25 18.0995 20.25 18C20.25 17.9006 20.2105 17.8052 20.1402 17.7348C20.0698 17.6645 19.9745 17.625 19.875 17.625H16.125C15.8266 17.625 15.5405 17.5065 15.3295 17.2955C15.1185 17.0845 15 16.7984 15 16.5C15 16.2016 15.1185 15.9155 15.3295 15.7045C15.5405 15.4935 15.8266 15.375 16.125 15.375H17.7291C17.8188 15.3745 17.9054 15.3421 17.9733 15.2836C18.0413 15.2251 18.0862 15.1443 18.1 15.0556L19.1292 8.19437L19.8708 8.30565L18.8416 15.1669C18.803 15.434 18.6691 15.678 18.4647 15.8541C18.2602 16.0302 17.999 16.1264 17.7291 16.125H16.125C16.0255 16.125 15.9302 16.1645 15.8598 16.2348C15.7895 16.3052 15.75 16.4006 15.75 16.5C15.75 16.5995 15.7895 16.6948 15.8598 16.7652C15.9302 16.8355 16.0255 16.875 16.125 16.875H19.875C20.1734 16.875 20.4595 16.9935 20.6705 17.2045C20.8815 17.4155 21 17.7016 21 18C21 18.2984 20.8815 18.5845 20.6705 18.7955C20.4595 19.0065 20.1734 19.125 19.875 19.125H13.5C13.4005 19.125 13.3052 19.1645 13.2348 19.2348C13.1645 19.3052 13.125 19.4006 13.125 19.5C13.125 19.5995 13.1645 19.6948 13.2348 19.7652C13.3052 19.8355 13.4005 19.875 13.5 19.875H18.375V20.625Z" fill="#957BDA"/>
<path d="M16.875 12.375C15.781 12.375 14.7318 11.9404 13.9582 11.1668C13.1846 10.3932 12.75 9.34402 12.75 8.25H13.5C13.5 9.14511 13.8556 10.0035 14.4885 10.6365C15.1215 11.2694 15.9799 11.625 16.875 11.625V12.375Z" fill="#56B4AB"/>
<path d="M12 17.25H11.25C11.25 16.3549 10.8944 15.4965 10.2615 14.8635C9.62855 14.2306 8.77011 13.875 7.875 13.875V13.125C8.96902 13.125 10.0182 13.5596 10.7918 14.3332C11.5654 15.1068 12 16.156 12 17.25Z" fill="#56B4AB"/>
<path d="M19.125 19.875H19.875V20.625H19.125V19.875Z" fill="#957BDA"/>
<path d="M2.25 2.25H3V3H2.25V2.25Z" fill="#56B4AB"/>
<path d="M4.875 2.25H5.625V3H4.875V2.25Z" fill="#56B4AB"/>
<path d="M7.5 2.25H8.25V3H7.5V2.25Z" fill="#56B4AB"/>
<path d="M10.125 2.25H10.875V3H10.125V2.25Z" fill="#56B4AB"/>
<path d="M12.75 2.25H13.5V3H12.75V2.25Z" fill="#56B4AB"/>
<path d="M15.375 2.25H16.125V3H15.375V2.25Z" fill="#56B4AB"/>
<path d="M18 2.25H18.75V3H18V2.25Z" fill="#56B4AB"/>
<path d="M20.625 2.25H21.375V3H20.625V2.25Z" fill="#56B4AB"/>
<path d="M2.25 4.5H3V5.25H2.25V4.5Z" fill="#56B4AB"/>
<path d="M2.25 6.75H3V7.5H2.25V6.75Z" fill="#56B4AB"/>
<path d="M2.25 9H3V9.75H2.25V9Z" fill="#56B4AB"/>
<path d="M2.25 11.25H3V12H2.25V11.25Z" fill="#56B4AB"/>
<path d="M2.25 13.5H3V14.25H2.25V13.5Z" fill="#56B4AB"/>
<path d="M2.25 15.75H3V16.5H2.25V15.75Z" fill="#56B4AB"/>
<path d="M2.25 18H3V18.75H2.25V18Z" fill="#56B4AB"/>
<path d="M2.25 20.25H3V21H2.25V20.25Z" fill="#56B4AB"/>
<path d="M18.2061 5.85735L18.7363 5.3271L19.7968 6.3876L19.2665 6.91784L18.2061 5.85735Z" fill="#957BDA"/>
</g>
</svg>
