<svg width="24" height="24" viewBox="0 0 24 24" fill="none" xmlns="http://www.w3.org/2000/svg">
<g style="mix-blend-mode:luminosity" clip-path="url(#clip0_1015_5335)">
<path d="M4.00033 23.337C3.9115 23.337 3.82249 23.3045 3.7526 23.2389C3.42157 22.9283 3.11308 22.6171 2.83568 22.3139C2.70068 22.1664 2.71085 21.9372 2.85841 21.8022C3.00597 21.6673 3.23505 21.6774 3.3701 21.825C3.63513 22.1146 3.93053 22.4126 4.24821 22.7107C4.39408 22.8475 4.40139 23.0767 4.26452 23.2226C4.19322 23.2986 4.09685 23.337 4.00033 23.337Z" fill="#7CCAC3"/>
<path d="M0.32236 24.0003L0.193126 24.0002C0.0865789 24.0001 0.000235137 23.9138 0.000141387 23.8072L7.61843e-07 23.678C-0.000467988 23.134 0.215391 22.6122 0.600048 22.2275L20.2456 2.58201C20.5694 2.25815 21.0945 2.25815 21.4183 2.58201C21.7422 2.90587 21.7422 3.43091 21.4183 3.75477L1.77281 23.4003C1.38816 23.7849 0.866345 24.0008 0.32236 24.0003Z" fill="#2E2F55"/>
<path d="M18.0068 4.82056L4.82031 18.007C5.17605 18.4315 5.56858 18.824 5.99308 19.1797L19.1795 5.99332C18.8238 5.56882 18.4313 5.17629 18.0068 4.82056Z" fill="#2E2F55"/>
<path d="M19.9413 9.60388C20.1696 10.3624 20.2925 11.1668 20.2925 11.9994C20.2925 12.8658 20.1593 13.7013 19.913 14.4867C19.8929 14.4872 19.8734 14.4872 19.8534 14.4872C18.9681 14.4872 18.1154 14.3487 17.3154 14.0911C18.4559 12.7443 19.3394 11.2287 19.9413 9.60388Z" fill="#7CCAC3"/>
<path d="M19.9412 9.60344V9.60391C19.3393 11.2287 18.4559 12.7443 17.3154 14.0911C17.0417 14.4155 16.7525 14.7296 16.4486 15.0335C16.1447 15.3374 15.8295 15.6272 15.5052 15.9013C14.8549 16.4521 14.1652 16.9423 13.4433 17.3701C12.6853 17.8188 11.8911 18.1993 11.0687 18.5071C10.0965 18.871 9.08531 19.1344 8.04778 19.291H8.04731C7.08539 18.7686 6.23859 18.0613 5.55469 17.2169C5.62153 17.2184 5.68884 17.2189 5.75616 17.2189C9.19608 17.2189 12.4297 15.8794 14.8623 13.4473C16.7188 11.5902 17.9388 9.26641 18.4119 6.7406C19.0963 7.57474 19.6217 8.54444 19.9412 9.60344Z" fill="#ABECE7"/>
<path d="M19.8535 14.4873C19.8736 14.4873 19.8931 14.4873 19.9131 14.4868C19.6536 15.3127 19.2687 16.0829 18.7804 16.7751C17.6244 16.659 16.5224 16.358 15.5054 15.9014C15.8297 15.6273 16.1449 15.3375 16.4488 15.0336C16.7527 14.7297 17.0419 14.4156 17.3156 14.0912C18.1155 14.3488 18.9682 14.4873 19.8535 14.4873Z" fill="#92D3CD"/>
<path d="M16.3726 4.95349C17.1472 5.43448 17.836 6.03982 18.412 6.74126C17.9389 9.26707 16.7189 11.5909 14.8624 13.4479C12.4298 15.8801 9.19619 17.2196 5.75627 17.2196C5.68896 17.2196 5.62165 17.2191 5.5548 17.2176C4.98752 16.5186 4.53237 15.7249 4.21582 14.865C4.71874 14.9381 5.23287 14.9757 5.75627 14.9757C11.4239 14.9757 16.056 10.5416 16.3726 4.95349Z" fill="#85E0D9"/>
<path d="M18.7803 16.7755C18.2501 17.5267 17.5989 18.1857 16.854 18.7237C15.6555 18.4393 14.5087 17.9842 13.4434 17.3706C14.1653 16.9428 14.855 16.4525 15.5052 15.9019C16.5223 16.3584 17.6242 16.6594 18.7803 16.7755Z" fill="#7CCAC3"/>
<path d="M13.4433 17.3705C14.5087 17.9841 15.6555 18.4392 16.854 18.7236C15.9692 19.3636 14.9531 19.8333 13.8541 20.0846H13.8536C12.8756 19.6616 11.943 19.1343 11.0688 18.5075C11.8912 18.1998 12.6853 17.8193 13.4433 17.3705Z" fill="#92D3CD"/>
<path d="M14.0395 3.96057C14.8751 4.17179 15.6594 4.50981 16.3721 4.95324C16.0555 10.5414 11.4234 14.9754 5.75577 14.9754C5.23237 14.9754 4.71824 14.9379 4.21532 14.8647C3.92802 14.0852 3.75482 13.2506 3.71582 12.3809C4.36851 12.5462 5.0519 12.634 5.75577 12.634C5.8904 12.634 6.02455 12.6306 6.15773 12.6243C6.95577 12.5862 7.72405 12.4355 8.44743 12.1872C9.16593 11.9409 9.84009 11.5985 10.4547 11.1751C11.1318 10.7087 11.7361 10.1444 12.2469 9.50241C13.3746 8.08585 14.0483 6.29223 14.0483 4.34157C14.0482 4.21374 14.0453 4.08695 14.0395 3.96057Z" fill="#ABECE7"/>
<path d="M14.04 3.96057C14.0459 4.0869 14.0488 4.21374 14.0488 4.34152C14.0488 6.29223 13.3751 8.0858 12.2474 9.50237C11.8059 8.48921 11.561 7.37073 11.561 6.19515C11.561 5.3288 11.6942 4.49326 11.9405 3.70787C11.9605 3.7074 11.98 3.7074 12.0001 3.7074C12.7039 3.70744 13.3873 3.79524 14.04 3.96057Z" fill="#92D3CD"/>
<path d="M11.0688 18.5072C11.9429 19.134 12.8756 19.6613 13.8536 20.0842C13.2575 20.2203 12.6371 20.292 12 20.292C10.5693 20.292 9.22296 19.9296 8.04785 19.291C9.08548 19.1345 10.0967 18.8711 11.0688 18.5072Z" fill="#7CCAC3"/>
<path d="M11.5611 6.19468C11.5611 7.37026 11.806 8.48879 12.2475 9.5019C11.7368 10.1439 11.1324 10.7082 10.4553 11.1745C9.66654 9.68874 9.21973 7.99365 9.21973 6.19463C9.21973 5.48345 9.28948 4.78782 9.42312 4.11568C10.2163 3.85618 11.0621 3.71326 11.9406 3.7074C11.6943 4.49274 11.5611 5.32834 11.5611 6.19468Z" fill="#7CCAC3"/>
<path d="M9.21944 6.19548C9.21944 7.99445 9.66626 9.68955 10.455 11.1754C9.8404 11.5988 9.16629 11.9412 8.44774 12.1876C7.48582 10.3623 6.97559 8.31789 6.97559 6.19553C6.97559 5.92333 6.98388 5.65262 7.00048 5.38384C7.72437 4.83606 8.54093 4.40434 9.42284 4.11658C9.28919 4.78867 9.21944 5.48425 9.21944 6.19548Z" fill="#92D3CD"/>
<path d="M6.97588 6.19487C6.97588 8.31727 7.48611 10.3616 8.44803 12.1869C7.72466 12.4352 6.95638 12.5859 6.15833 12.624C5.45394 11.1264 5.00127 9.51723 4.8208 7.84702V7.84655C5.37739 6.88707 6.12027 6.04951 7.00077 5.38318C6.98413 5.65191 6.97588 5.92266 6.97588 6.19487Z" fill="#7CCAC3"/>
<path d="M6.15819 12.624C6.02502 12.6303 5.89086 12.6337 5.75624 12.6337C5.05236 12.6337 4.36897 12.5459 3.71628 12.3806C3.71043 12.2542 3.70752 12.1274 3.70752 11.9996C3.70752 10.4865 4.11289 9.06847 4.82066 7.84705C5.00113 9.51725 5.4538 11.1265 6.15819 12.624Z" fill="#92D3CD"/>
<path d="M21.7072 4.58534C22.9733 4.58534 23.9998 3.55891 23.9998 2.29273C23.9998 1.02656 22.9733 0.00012207 21.7072 0.00012207C20.441 0.00012207 19.4146 1.02656 19.4146 2.29273C19.4146 3.55891 20.441 4.58534 21.7072 4.58534Z" fill="#A990E9"/>
<path d="M22.7328 0.242554C22.8876 0.551273 22.9752 0.899507 22.9752 1.26841C22.9752 2.5346 21.9488 3.56102 20.6826 3.56102C20.3137 3.56102 19.9655 3.47341 19.6567 3.31859C20.0332 4.06957 20.8096 4.58538 21.707 4.58538C22.9731 4.58538 23.9996 3.55896 23.9996 2.29277C23.9996 1.39544 23.4838 0.619054 22.7328 0.242554Z" fill="#957BDA"/>
<path d="M23.6777 24.0003L23.807 24.0002C23.9135 24.0001 23.9998 23.9138 23.9999 23.8072L24.0001 23.678C24.0005 23.134 23.7847 22.6122 23.4 22.2275L3.75453 2.58201C3.43067 2.25815 2.90562 2.25815 2.58176 2.58201C2.2579 2.90587 2.2579 3.43091 2.58176 3.75477L22.2273 23.4003C22.6119 23.7849 23.1337 24.0008 23.6777 24.0003Z" fill="#2E2F55"/>
<path d="M2.29359 4.58546C3.55976 4.58546 4.58619 3.55903 4.58619 2.29285C4.58619 1.02668 3.55976 0.000244141 2.29359 0.000244141C1.02741 0.000244141 0.000976562 1.02668 0.000976562 2.29285C0.000976562 3.55903 1.02741 4.58546 2.29359 4.58546Z" fill="#A990E9"/>
<path d="M3.31871 0.242554C3.47349 0.551273 3.56114 0.899507 3.56114 1.26841C3.56114 2.5346 2.53472 3.56102 1.26854 3.56102C0.899676 3.56102 0.551441 3.47341 0.242676 3.31859C0.619176 4.06957 1.39557 4.58538 2.29289 4.58538C3.55908 4.58538 4.5855 3.55896 4.5855 2.29277C4.5855 1.39544 4.06969 0.619054 3.31871 0.242554Z" fill="#957BDA"/>
<path d="M12.3622 20.2923C12.3622 20.3169 12.3583 20.8955 12.0275 21.4725C11.7185 22.0115 11.0651 22.6547 9.70717 22.6547C8.08942 22.6547 6.55764 21.3223 5.20646 20.147L5.1287 20.0794C5.12242 20.0741 5.11614 20.0683 5.10985 20.063C4.63904 19.6539 4.24689 19.3178 3.86635 19.0392C3.85089 19.0281 3.83546 19.017 3.82046 19.0064C2.79573 18.268 2.36453 18.3709 2.10324 18.5452C1.50156 18.9465 1.9666 19.9109 2.33213 20.4947L1.81403 21.0128C1.79617 20.9959 1.77976 20.9756 1.76523 20.9534C0.523697 19.0251 1.30693 18.2052 1.70148 17.9425C2.57987 17.3572 3.54859 17.9087 4.29418 18.4548C4.30914 18.4659 4.32414 18.4766 4.33909 18.4877C4.73265 18.7793 5.12959 19.1203 5.60382 19.5327L5.62314 19.5496L5.68206 19.6003C6.93714 20.6927 8.36026 21.9304 9.70707 21.9304C10.5072 21.9304 11.0723 21.6623 11.3861 21.1345C11.6305 20.7236 11.6377 20.2948 11.6377 20.2904C11.6377 20.2885 11.6377 20.286 11.6382 20.2841C11.7579 20.2899 11.8787 20.2923 11.9999 20.2923C12.1211 20.2923 12.2418 20.2899 12.3616 20.2841C12.3622 20.2865 12.3622 20.2894 12.3622 20.2923Z" fill="#7CCAC3"/>
</g>
<defs>
<clipPath id="clip0_1015_5335">
<rect width="24" height="24" fill="white"/>
</clipPath>
</defs>
</svg>
