<svg width="204" height="12" viewBox="0 0 204 12" fill="none" xmlns="http://www.w3.org/2000/svg">
<path id="Line 83" d="M0.666667 6C0.666667 8.94552 3.05448 11.3333 6 11.3333C8.94552 11.3333 11.3333 8.94552 11.3333 6C11.3333 3.05448 8.94552 0.666666 6 0.666667C3.05448 0.666667 0.666666 3.05448 0.666667 6ZM192.667 5.99998C192.667 8.9455 195.054 11.3333 198 11.3333C200.946 11.3333 203.333 8.9455 203.333 5.99998C203.333 3.05446 200.946 0.666649 198 0.66665C195.054 0.66665 192.667 3.05446 192.667 5.99998ZM8.02105 7C8.57334 7 9.02105 6.55228 9.02105 6C9.02105 5.44771 8.57334 5 8.02105 5L8.02105 7ZM14.0842 5C13.5319 5 13.0842 5.44771 13.0842 6C13.0842 6.55228 13.5319 7 14.0842 7L14.0842 5ZM18.1263 7C18.6786 7 19.1263 6.55228 19.1263 6C19.1263 5.44771 18.6786 5 18.1263 5L18.1263 7ZM24.1895 5C23.6372 5 23.1895 5.44771 23.1895 6C23.1895 6.55228 23.6372 7 24.1895 7L24.1895 5ZM28.2316 7C28.7839 7 29.2316 6.55228 29.2316 6C29.2316 5.44771 28.7839 5 28.2316 5L28.2316 7ZM34.2947 5C33.7425 5 33.2947 5.44771 33.2947 6C33.2947 6.55228 33.7425 7 34.2947 7L34.2947 5ZM38.3368 7C38.8891 7 39.3368 6.55228 39.3368 6C39.3368 5.44771 38.8891 5 38.3368 5L38.3368 7ZM44.4 5C43.8477 5 43.4 5.44771 43.4 6C43.4 6.55228 43.8477 7 44.4 7L44.4 5ZM48.4421 7C48.9944 7 49.4421 6.55228 49.4421 6C49.4421 5.44771 48.9944 5 48.4421 5L48.4421 7ZM54.5053 5C53.953 5 53.5053 5.44771 53.5053 6C53.5053 6.55228 53.953 7 54.5053 7L54.5053 5ZM58.5474 7C59.0997 7 59.5474 6.55228 59.5474 6C59.5474 5.44771 59.0997 5 58.5474 5L58.5474 7ZM64.6105 4.99999C64.0582 4.99999 63.6105 5.44771 63.6105 5.99999C63.6105 6.55228 64.0582 6.99999 64.6105 6.99999L64.6105 4.99999ZM68.6526 6.99999C69.2049 6.99999 69.6526 6.55228 69.6526 5.99999C69.6526 5.44771 69.2049 4.99999 68.6526 4.99999L68.6526 6.99999ZM74.7158 4.99999C74.1635 4.99999 73.7158 5.44771 73.7158 5.99999C73.7158 6.55228 74.1635 6.99999 74.7158 6.99999L74.7158 4.99999ZM78.7579 6.99999C79.3102 6.99999 79.7579 6.55228 79.7579 5.99999C79.7579 5.44771 79.3102 4.99999 78.7579 4.99999L78.7579 6.99999ZM84.8211 4.99999C84.2688 4.99999 83.8211 5.44771 83.8211 5.99999C83.8211 6.55228 84.2688 6.99999 84.8211 6.99999L84.8211 4.99999ZM88.8632 6.99999C89.4154 6.99999 89.8632 6.55228 89.8632 5.99999C89.8632 5.44771 89.4154 4.99999 88.8632 4.99999L88.8632 6.99999ZM94.9263 4.99999C94.374 4.99999 93.9263 5.44771 93.9263 5.99999C93.9263 6.55228 94.374 6.99999 94.9263 6.99999L94.9263 4.99999ZM98.9684 6.99999C99.5207 6.99999 99.9684 6.55228 99.9684 5.99999C99.9684 5.44771 99.5207 4.99999 98.9684 4.99999L98.9684 6.99999ZM105.032 4.99999C104.479 4.99999 104.032 5.44771 104.032 5.99999C104.032 6.55228 104.479 6.99999 105.032 6.99999L105.032 4.99999ZM109.074 6.99999C109.626 6.99999 110.074 6.55228 110.074 5.99999C110.074 5.44771 109.626 4.99999 109.074 4.99999L109.074 6.99999ZM115.137 4.99999C114.585 4.99999 114.137 5.44771 114.137 5.99999C114.137 6.55228 114.585 6.99999 115.137 6.99999L115.137 4.99999ZM119.179 6.99999C119.731 6.99999 120.179 6.55227 120.179 5.99999C120.179 5.44771 119.731 4.99999 119.179 4.99999L119.179 6.99999ZM125.242 4.99999C124.69 4.99999 124.242 5.4477 124.242 5.99999C124.242 6.55227 124.69 6.99999 125.242 6.99999L125.242 4.99999ZM129.284 6.99999C129.837 6.99999 130.284 6.55227 130.284 5.99999C130.284 5.4477 129.837 4.99999 129.284 4.99999L129.284 6.99999ZM135.347 4.99999C134.795 4.99999 134.347 5.4477 134.347 5.99999C134.347 6.55227 134.795 6.99999 135.347 6.99999L135.347 4.99999ZM139.389 6.99999C139.942 6.99999 140.389 6.55227 140.389 5.99999C140.389 5.4477 139.942 4.99999 139.389 4.99999L139.389 6.99999ZM145.453 4.99999C144.9 4.99999 144.453 5.4477 144.453 5.99999C144.453 6.55227 144.9 6.99999 145.453 6.99999L145.453 4.99999ZM149.495 6.99999C150.047 6.99999 150.495 6.55227 150.495 5.99999C150.495 5.4477 150.047 4.99999 149.495 4.99999L149.495 6.99999ZM155.558 4.99999C155.006 4.99999 154.558 5.4477 154.558 5.99999C154.558 6.55227 155.006 6.99999 155.558 6.99999L155.558 4.99999ZM159.6 6.99999C160.152 6.99999 160.6 6.55227 160.6 5.99999C160.6 5.4477 160.152 4.99999 159.6 4.99999L159.6 6.99999ZM165.663 4.99999C165.111 4.99999 164.663 5.4477 164.663 5.99999C164.663 6.55227 165.111 6.99999 165.663 6.99999L165.663 4.99999ZM169.705 6.99999C170.258 6.99999 170.705 6.55227 170.705 5.99999C170.705 5.4477 170.258 4.99999 169.705 4.99999L169.705 6.99999ZM175.768 4.99999C175.216 4.99999 174.768 5.4477 174.768 5.99999C174.768 6.55227 175.216 6.99999 175.768 6.99999L175.768 4.99999ZM179.81 6.99998C180.363 6.99998 180.81 6.55227 180.81 5.99998C180.81 5.4477 180.363 4.99998 179.81 4.99998L179.81 6.99998ZM185.874 4.99998C185.321 4.99998 184.874 5.4477 184.874 5.99998C184.874 6.55227 185.321 6.99998 185.874 6.99998L185.874 4.99998ZM189.916 6.99998C190.468 6.99998 190.916 6.55227 190.916 5.99998C190.916 5.4477 190.468 4.99998 189.916 4.99998L189.916 6.99998ZM195.979 4.99998C195.427 4.99998 194.979 5.4477 194.979 5.99998C194.979 6.55227 195.427 6.99998 195.979 6.99998L195.979 4.99998ZM6 7L8.02105 7L8.02105 5L6 5L6 7ZM14.0842 7L18.1263 7L18.1263 5L14.0842 5L14.0842 7ZM24.1895 7L28.2316 7L28.2316 5L24.1895 5L24.1895 7ZM34.2947 7L38.3368 7L38.3368 5L34.2947 5L34.2947 7ZM44.4 7L48.4421 7L48.4421 5L44.4 5L44.4 7ZM54.5053 7L58.5474 7L58.5474 5L54.5053 5L54.5053 7ZM64.6105 6.99999L68.6526 6.99999L68.6526 4.99999L64.6105 4.99999L64.6105 6.99999ZM74.7158 6.99999L78.7579 6.99999L78.7579 4.99999L74.7158 4.99999L74.7158 6.99999ZM84.8211 6.99999L88.8632 6.99999L88.8632 4.99999L84.8211 4.99999L84.8211 6.99999ZM94.9263 6.99999L98.9684 6.99999L98.9684 4.99999L94.9263 4.99999L94.9263 6.99999ZM105.032 6.99999L109.074 6.99999L109.074 4.99999L105.032 4.99999L105.032 6.99999ZM115.137 6.99999L119.179 6.99999L119.179 4.99999L115.137 4.99999L115.137 6.99999ZM125.242 6.99999L129.284 6.99999L129.284 4.99999L125.242 4.99999L125.242 6.99999ZM135.347 6.99999L139.389 6.99999L139.389 4.99999L135.347 4.99999L135.347 6.99999ZM145.453 6.99999L149.495 6.99999L149.495 4.99999L145.453 4.99999L145.453 6.99999ZM155.558 6.99999L159.6 6.99999L159.6 4.99999L155.558 4.99999L155.558 6.99999ZM165.663 6.99999L169.705 6.99999L169.705 4.99999L165.663 4.99999L165.663 6.99999ZM175.768 6.99999L179.81 6.99998L179.81 4.99998L175.768 4.99999L175.768 6.99999ZM185.874 6.99998L189.916 6.99998L189.916 4.99998L185.874 4.99998L185.874 6.99998ZM195.979 6.99998L198 6.99998L198 4.99998L195.979 4.99998L195.979 6.99998Z" fill="url(#paint0_linear_1042_6105)"/>
<defs>
<linearGradient id="paint0_linear_1042_6105" x1="5.28625" y1="8.00048" x2="198.714" y2="8.00046" gradientUnits="userSpaceOnUse">
<stop stop-color="#93C8BF"/>
<stop offset="1" stop-color="#4667CE"/>
</linearGradient>
</defs>
</svg>
