<svg width="24" height="24" viewBox="0 0 24 24" fill="none" xmlns="http://www.w3.org/2000/svg">
<g id="Group 1000005474">
<g id="Page 1">
<g id="1. Home Page">
<g id="Sewing">
<g id="Group 6">
<g id="Group 4268">
<path id="Fill 118" fill-rule="evenodd" clip-rule="evenodd" d="M18.4761 4.74952H5.6167V9.6578H14.128V15.1758H21.5769V8.27641C21.5769 4.72573 18.4761 4.74952 18.4761 4.74952Z" fill="#CBCBCA"/>
<path id="Fill 119" fill-rule="evenodd" clip-rule="evenodd" d="M19.5625 7.18205L16.1208 10.7276L20.4387 15.1758H21.577V9.25734L19.5625 7.18205Z" fill="#CBCBCA"/>
<path id="Fill 120" fill-rule="evenodd" clip-rule="evenodd" d="M18.3693 13.1362L17.2178 14.3225L18.0461 15.1758H20.3492L18.3693 13.1362Z" fill="#CBCBCA"/>
<path id="Fill 121" fill-rule="evenodd" clip-rule="evenodd" d="M2.38745 13.8843H3.53614V12.3917H2.38745V13.8843Z" fill="#2E2F55"/>
<path id="Fill 123" fill-rule="evenodd" clip-rule="evenodd" d="M1.74414 4.74952V12.3917H4.33796L5.61683 9.6578V4.74952H1.74414Z" fill="#CBCBCA"/>
<path id="Fill 124" fill-rule="evenodd" clip-rule="evenodd" d="M19.5627 7.18206C20.5131 8.16111 20.5131 9.74871 19.5627 10.7278C18.6123 11.7068 17.0714 11.7068 16.121 10.7276C15.1705 9.74859 15.1707 8.16111 16.121 7.18218C17.0714 6.20301 18.6123 6.20301 19.5627 7.18206Z" fill="#2E2F55"/>
<path id="Fill 125" fill-rule="evenodd" clip-rule="evenodd" d="M18.659 13.3055C18.659 13.7705 18.2931 14.1474 17.8417 14.1474C17.3904 14.1474 17.0244 13.7705 17.0244 13.3055C17.0244 12.8405 17.3904 12.4635 17.8417 12.4635C18.2931 12.4635 18.659 12.8405 18.659 13.3055Z" fill="#2E2F55"/>
<path id="Fill 128" fill-rule="evenodd" clip-rule="evenodd" d="M21.5771 15.1758H2.07506L1.74414 16.1713V18.681H21.9081V16.1713L21.5771 15.1758Z" fill="#CBCBCA"/>
<path id="Fill 129" fill-rule="evenodd" clip-rule="evenodd" d="M5.6167 4.74952L10.3808 9.65732L5.6167 9.6578V4.74952Z" fill="#CBCBCA"/>
<path id="Fill 137" fill-rule="evenodd" clip-rule="evenodd" d="M2.55981 4.74957H3.01943V3.31029H2.55981V4.74957Z" fill="#CBCBCA"/>
<path id="Fill 138" fill-rule="evenodd" clip-rule="evenodd" d="M3.97339 4.74957H4.433V3.31029H3.97339V4.74957Z" fill="#CBCBCA"/>
</g>
<path id="Fill 142" fill-rule="evenodd" clip-rule="evenodd" d="M3.63013 20.6896H6.05251V20.2161H3.63013V20.6896ZM7.07963 20.6896H12.0722V20.2161H7.07963V20.6896ZM13.2319 20.6896H23.6892V20.2161H13.2319V20.6896ZM0 18.9178H24V18.4444H0V18.9178Z" fill="#2E2F55"/>
</g>
</g>
</g>
</g>
</g>
</svg>
