<svg width="24" height="24" viewBox="0 0 24 24" fill="none" xmlns="http://www.w3.org/2000/svg">
<g style="mix-blend-mode:luminosity">
<path d="M9 7.125H9.75V16.875H9V7.125Z" fill="#2E2F55"/>
<path d="M14.25 7.125H15V16.875H14.25V7.125Z" fill="#2E2F55"/>
<path d="M19.5 7.125H20.25V16.875H19.5V7.125Z" fill="#2E2F55"/>
<path d="M3.75 7.125H4.5V16.875H3.75V7.125Z" fill="#2E2F55"/>
<path d="M7.71875 5.84485L11.0933 2.47034L11.6235 3.00059L8.249 6.3751L7.71875 5.84485Z" fill="#92D3CD"/>
<path d="M12.373 3.00195L12.9033 2.4717L16.2778 5.84622L15.7476 6.37647L12.373 3.00195Z" fill="#92D3CD"/>
<path d="M3.375 5.625H20.625V7.125H3.375V5.625Z" fill="#957BDA"/>
<path d="M12 3.375C12.6213 3.375 13.125 2.87132 13.125 2.25C13.125 1.62868 12.6213 1.125 12 1.125C11.3787 1.125 10.875 1.62868 10.875 2.25C10.875 2.87132 11.3787 3.375 12 3.375Z" fill="#9ECCDC"/>
<path d="M6 7.125H7.5V9.375H6V7.125Z" fill="#CDE8F1"/>
<path d="M11.25 7.125H12.75V9.375H11.25V7.125Z" fill="#CDE8F1"/>
<path d="M16.5 7.125H18V9.375H16.5V7.125Z" fill="#CDE8F1"/>
<path d="M1.49854 11.9993L4.12301 9.3748L6.74748 11.9993L4.12301 14.6237L1.49854 11.9993Z" fill="#CDE8F1"/>
<path d="M6.74805 12L9.37252 9.37553L11.997 12L9.37252 14.6245L6.74805 12Z" fill="#CDE8F1"/>
<path d="M11.9971 12L14.6215 9.37553L17.246 12L14.6215 14.6245L11.9971 12Z" fill="#CDE8F1"/>
<path d="M17.2466 12.0007L19.8711 9.37625L22.4955 12.0007L19.8711 14.6252L17.2466 12.0007Z" fill="#CDE8F1"/>
<path d="M6.375 9.375H7.125V12H6.375V9.375Z" fill="#957BDA"/>
<path d="M11.625 9.375H12.375V12H11.625V9.375Z" fill="#957BDA"/>
<path d="M16.875 9.375H17.625V12H16.875V9.375Z" fill="#957BDA"/>
<path d="M6 14.625H7.5V16.875H6V14.625Z" fill="#CDE8F1"/>
<path d="M11.25 14.625H12.75V16.875H11.25V14.625Z" fill="#CDE8F1"/>
<path d="M16.5 14.625H18V16.875H16.5V14.625Z" fill="#CDE8F1"/>
<path d="M6.375 12H7.125V14.625H6.375V12Z" fill="#92D3CD"/>
<path d="M11.625 12H12.375V14.625H11.625V12Z" fill="#92D3CD"/>
<path d="M16.875 12H17.625V14.625H16.875V12Z" fill="#92D3CD"/>
<path d="M14.25 10.875H15V11.625H14.25V10.875Z" fill="#92D3CD"/>
<path d="M13.5 11.625H14.25V12.375H13.5V11.625Z" fill="#92D3CD"/>
<path d="M14.25 12.375H15V13.125H14.25V12.375Z" fill="#92D3CD"/>
<path d="M15 11.625H15.75V12.375H15V11.625Z" fill="#92D3CD"/>
<path d="M9 10.875H9.75V11.625H9V10.875Z" fill="#56B4AB"/>
<path d="M8.25 11.625H9V12.375H8.25V11.625Z" fill="#56B4AB"/>
<path d="M9 12.375H9.75V13.125H9V12.375Z" fill="#56B4AB"/>
<path d="M9.75 11.625H10.5V12.375H9.75V11.625Z" fill="#56B4AB"/>
<path d="M3.75 10.875H4.5V11.625H3.75V10.875Z" fill="#92D3CD"/>
<path d="M3 11.625H3.75V12.375H3V11.625Z" fill="#92D3CD"/>
<path d="M3.75 12.375H4.5V13.125H3.75V12.375Z" fill="#92D3CD"/>
<path d="M4.5 11.625H5.25V12.375H4.5V11.625Z" fill="#92D3CD"/>
<path d="M19.5 10.875H20.25V11.625H19.5V10.875Z" fill="#56B4AB"/>
<path d="M18.75 11.625H19.5V12.375H18.75V11.625Z" fill="#56B4AB"/>
<path d="M19.5 12.375H20.25V13.125H19.5V12.375Z" fill="#56B4AB"/>
<path d="M20.25 11.625H21V12.375H20.25V11.625Z" fill="#56B4AB"/>
<path d="M3 16.875H21V18.375H3V16.875Z" fill="#957BDA"/>
<path d="M3.375 18.375H4.125V23.25H3.375V18.375Z" fill="#92D3CD"/>
<path d="M4.875 18.375H5.625V23.25H4.875V18.375Z" fill="#CDE8F1"/>
<path d="M6.375 18.375H7.125V23.25H6.375V18.375Z" fill="#92D3CD"/>
<path d="M7.875 18.375H8.625V23.25H7.875V18.375Z" fill="#CDE8F1"/>
<path d="M9.375 18.375H10.125V23.25H9.375V18.375Z" fill="#92D3CD"/>
<path d="M10.875 18.375H11.625V23.25H10.875V18.375Z" fill="#CDE8F1"/>
<path d="M12.375 18.375H13.125V23.25H12.375V18.375Z" fill="#92D3CD"/>
<path d="M13.875 18.375H14.625V23.25H13.875V18.375Z" fill="#CDE8F1"/>
<path d="M15.375 18.375H16.125V23.25H15.375V18.375Z" fill="#92D3CD"/>
<path d="M16.875 18.375H17.625V23.25H16.875V18.375Z" fill="#CDE8F1"/>
<path d="M18.375 18.375H19.125V23.25H18.375V18.375Z" fill="#92D3CD"/>
<path d="M19.875 18.375H20.625V23.25H19.875V18.375Z" fill="#CDE8F1"/>
</g>
</svg>
