<svg width="24" height="24" viewBox="0 0 24 24" fill="none" xmlns="http://www.w3.org/2000/svg">
<g style="mix-blend-mode:luminosity" clip-path="url(#clip0_1015_5211)">
<path d="M4.00033 23.3369C3.9115 23.3369 3.82249 23.3045 3.7526 23.2389C3.42157 22.9283 3.11308 22.6171 2.83568 22.3139C2.70068 22.1663 2.71085 21.9372 2.85841 21.8022C3.00597 21.6672 3.23505 21.6773 3.3701 21.8249C3.63513 22.1146 3.93053 22.4126 4.24821 22.7106C4.39408 22.8475 4.40139 23.0766 4.26452 23.2226C4.19322 23.2986 4.09685 23.3369 4.00033 23.3369Z" fill="#7CCAC3"/>
<path d="M0.32236 24.0003L0.193126 24.0002C0.0865789 24.0001 0.000235137 23.9137 0.000141387 23.8072L7.61843e-07 23.6779C-0.000467988 23.1339 0.215391 22.6121 0.600048 22.2274L20.2456 2.58194C20.5694 2.25809 21.0945 2.25809 21.4183 2.58194C21.7422 2.9058 21.7422 3.43085 21.4183 3.75471L1.77281 23.4002C1.38816 23.7849 0.866345 24.0007 0.32236 24.0003Z" fill="#2E2F55"/>
<path d="M18.0068 4.8205L4.82031 18.0069C5.17605 18.4314 5.56858 18.8239 5.99308 19.1797L19.1795 5.99326C18.8238 5.56876 18.4313 5.17623 18.0068 4.8205Z" fill="#2E2F55"/>
<path d="M19.9413 9.60382C20.1696 10.3624 20.2925 11.1667 20.2925 11.9994C20.2925 12.8657 20.1593 13.7013 19.913 14.4866C19.8929 14.4871 19.8734 14.4871 19.8534 14.4871C18.9681 14.4871 18.1154 14.3486 17.3154 14.091C18.4559 12.7442 19.3394 11.2286 19.9413 9.60382Z" fill="#7CCAC3"/>
<path d="M19.9412 9.60338V9.60385C19.3393 11.2287 18.4559 12.7443 17.3154 14.0911C17.0417 14.4154 16.7525 14.7296 16.4486 15.0335C16.1447 15.3374 15.8295 15.6271 15.5052 15.9013C14.8549 16.452 14.1652 16.9422 13.4433 17.37C12.6853 17.8188 11.8911 18.1993 11.0687 18.5071C10.0965 18.8709 9.08531 19.1343 8.04778 19.2909H8.04731C7.08539 18.7685 6.23859 18.0612 5.55469 17.2169C5.62153 17.2183 5.68884 17.2188 5.75616 17.2188C9.19608 17.2188 12.4297 15.8793 14.8623 13.4472C16.7188 11.5902 17.9388 9.26635 18.4119 6.74054C19.0963 7.57468 19.6217 8.54438 19.9412 9.60338Z" fill="#ABECE7"/>
<path d="M19.8535 14.4872C19.8736 14.4872 19.8931 14.4872 19.9131 14.4868C19.6536 15.3126 19.2687 16.0828 18.7804 16.775C17.6244 16.6589 16.5224 16.358 15.5054 15.9013C15.8297 15.6272 16.1449 15.3374 16.4488 15.0335C16.7527 14.7297 17.0419 14.4155 17.3156 14.0911C18.1155 14.3487 18.9682 14.4872 19.8535 14.4872Z" fill="#92D3CD"/>
<path d="M16.3726 4.95343C17.1472 5.43441 17.836 6.03976 18.412 6.7412C17.9389 9.26701 16.7189 11.5908 14.8624 13.4479C12.4298 15.88 9.19619 17.2195 5.75627 17.2195C5.68896 17.2195 5.62165 17.219 5.5548 17.2175C4.98752 16.5185 4.53237 15.7249 4.21582 14.8649C4.71874 14.9381 5.23287 14.9756 5.75627 14.9756C11.4239 14.9756 16.056 10.5416 16.3726 4.95343Z" fill="#85E0D9"/>
<path d="M18.7803 16.7753C18.2501 17.5266 17.5989 18.1856 16.854 18.7236C15.6555 18.4392 14.5087 17.9841 13.4434 17.3705C14.1653 16.9427 14.855 16.4524 15.5052 15.9017C16.5223 16.3583 17.6242 16.6593 18.7803 16.7753Z" fill="#7CCAC3"/>
<path d="M13.4433 17.3705C14.5087 17.9841 15.6555 18.4392 16.854 18.7236C15.9692 19.3636 14.9531 19.8333 13.8541 20.0846H13.8536C12.8756 19.6616 11.943 19.1343 11.0688 18.5075C11.8912 18.1998 12.6853 17.8193 13.4433 17.3705Z" fill="#92D3CD"/>
<path d="M14.0395 3.96051C14.8751 4.17173 15.6594 4.50974 16.3721 4.95318C16.0555 10.5413 11.4234 14.9754 5.75577 14.9754C5.23237 14.9754 4.71824 14.9378 4.21532 14.8647C3.92802 14.0852 3.75482 13.2506 3.71582 12.3808C4.36851 12.5462 5.0519 12.634 5.75577 12.634C5.8904 12.634 6.02455 12.6306 6.15773 12.6242C6.95577 12.5862 7.72405 12.4355 8.44743 12.1872C9.16593 11.9408 9.84009 11.5984 10.4547 11.175C11.1318 10.7087 11.7361 10.1443 12.2469 9.50235C13.3746 8.08579 14.0483 6.29217 14.0483 4.34151C14.0482 4.21368 14.0453 4.08689 14.0395 3.96051Z" fill="#ABECE7"/>
<path d="M14.04 3.96051C14.0459 4.08684 14.0488 4.21368 14.0488 4.34146C14.0488 6.29216 13.3751 8.08574 12.2474 9.50231C11.8059 8.48915 11.561 7.37066 11.561 6.19509C11.561 5.32874 11.6942 4.4932 11.9405 3.70781C11.9605 3.70734 11.98 3.70734 12.0001 3.70734C12.7039 3.70738 13.3873 3.79518 14.04 3.96051Z" fill="#92D3CD"/>
<path d="M11.0688 18.5071C11.9429 19.134 12.8756 19.6613 13.8536 20.0842C13.2575 20.2202 12.6371 20.292 12 20.292C10.5693 20.292 9.22296 19.9295 8.04785 19.291C9.08548 19.1344 10.0967 18.871 11.0688 18.5071Z" fill="#7CCAC3"/>
<path d="M11.5611 6.19462C11.5611 7.3702 11.806 8.48873 12.2475 9.50184C11.7368 10.1438 11.1324 10.7082 10.4553 11.1745C9.66654 9.68868 9.21973 7.99359 9.21973 6.19457C9.21973 5.48338 9.28948 4.78776 9.42312 4.11562C10.2163 3.85612 11.0621 3.7132 11.9406 3.70734C11.6943 4.49268 11.5611 5.32827 11.5611 6.19462Z" fill="#7CCAC3"/>
<path d="M9.21944 6.19542C9.21944 7.99439 9.66626 9.68949 10.455 11.1753C9.8404 11.5988 9.16629 11.9412 8.44774 12.1875C7.48582 10.3622 6.97559 8.31783 6.97559 6.19547C6.97559 5.92327 6.98388 5.65256 7.00048 5.38378C7.72437 4.836 8.54093 4.40428 9.42284 4.11652C9.28919 4.78861 9.21944 5.48419 9.21944 6.19542Z" fill="#92D3CD"/>
<path d="M6.97588 6.1948C6.97588 8.31721 7.48611 10.3615 8.44803 12.1868C7.72466 12.4351 6.95638 12.5858 6.15833 12.6239C5.45394 11.1264 5.00127 9.51716 4.8208 7.84696V7.84649C5.37739 6.88701 6.12027 6.04945 7.00077 5.38312C6.98413 5.65185 6.97588 5.9226 6.97588 6.1948Z" fill="#7CCAC3"/>
<path d="M6.15819 12.6239C6.02502 12.6303 5.89086 12.6337 5.75624 12.6337C5.05236 12.6337 4.36897 12.5459 3.71628 12.3805C3.71043 12.2542 3.70752 12.1273 3.70752 11.9995C3.70752 10.4864 4.11289 9.06841 4.82066 7.84698C5.00113 9.51719 5.4538 11.1264 6.15819 12.6239Z" fill="#92D3CD"/>
<path d="M21.7072 4.58534C22.9733 4.58534 23.9998 3.55891 23.9998 2.29273C23.9998 1.02656 22.9733 0.00012207 21.7072 0.00012207C20.441 0.00012207 19.4146 1.02656 19.4146 2.29273C19.4146 3.55891 20.441 4.58534 21.7072 4.58534Z" fill="#A990E9"/>
<path d="M22.7328 0.242554C22.8876 0.551273 22.9752 0.899507 22.9752 1.26841C22.9752 2.5346 21.9488 3.56102 20.6826 3.56102C20.3137 3.56102 19.9655 3.47341 19.6567 3.31859C20.0332 4.06957 20.8096 4.58538 21.707 4.58538C22.9731 4.58538 23.9996 3.55896 23.9996 2.29277C23.9996 1.39544 23.4838 0.619054 22.7328 0.242554Z" fill="#957BDA"/>
<path d="M23.6777 24.0003L23.807 24.0002C23.9135 24.0001 23.9998 23.9137 23.9999 23.8072L24.0001 23.6779C24.0005 23.1339 23.7847 22.6121 23.4 22.2274L3.75453 2.58194C3.43067 2.25809 2.90562 2.25809 2.58176 2.58194C2.2579 2.9058 2.2579 3.43085 2.58176 3.75471L22.2273 23.4002C22.6119 23.7849 23.1337 24.0007 23.6777 24.0003Z" fill="#2E2F55"/>
<path d="M2.29359 4.5854C3.55976 4.5854 4.58619 3.55897 4.58619 2.29279C4.58619 1.02662 3.55976 0.000183105 2.29359 0.000183105C1.02741 0.000183105 0.000976562 1.02662 0.000976562 2.29279C0.000976562 3.55897 1.02741 4.5854 2.29359 4.5854Z" fill="#A990E9"/>
<path d="M3.31871 0.242554C3.47349 0.551273 3.56114 0.899507 3.56114 1.26841C3.56114 2.5346 2.53472 3.56102 1.26854 3.56102C0.899676 3.56102 0.551441 3.47341 0.242676 3.31859C0.619176 4.06957 1.39557 4.58538 2.29289 4.58538C3.55908 4.58538 4.5855 3.55896 4.5855 2.29277C4.5855 1.39544 4.06969 0.619054 3.31871 0.242554Z" fill="#957BDA"/>
<path d="M12.3622 20.2923C12.3622 20.3169 12.3583 20.8955 12.0275 21.4725C11.7185 22.0115 11.0651 22.6547 9.70717 22.6547C8.08942 22.6547 6.55764 21.3223 5.20646 20.147L5.1287 20.0794C5.12242 20.0741 5.11614 20.0683 5.10985 20.063C4.63904 19.6539 4.24689 19.3178 3.86635 19.0392C3.85089 19.0281 3.83546 19.017 3.82046 19.0064C2.79573 18.268 2.36453 18.3709 2.10324 18.5452C1.50156 18.9465 1.9666 19.9109 2.33213 20.4947L1.81403 21.0128C1.79617 20.9959 1.77976 20.9756 1.76523 20.9534C0.523697 19.0251 1.30693 18.2052 1.70148 17.9425C2.57987 17.3572 3.54859 17.9087 4.29418 18.4548C4.30914 18.4659 4.32414 18.4766 4.33909 18.4877C4.73265 18.7793 5.12959 19.1203 5.60382 19.5327L5.62314 19.5496L5.68206 19.6003C6.93714 20.6927 8.36026 21.9304 9.70707 21.9304C10.5072 21.9304 11.0723 21.6623 11.3861 21.1345C11.6305 20.7236 11.6377 20.2948 11.6377 20.2904C11.6377 20.2885 11.6377 20.286 11.6382 20.2841C11.7579 20.2899 11.8787 20.2923 11.9999 20.2923C12.1211 20.2923 12.2418 20.2899 12.3616 20.2841C12.3622 20.2865 12.3622 20.2894 12.3622 20.2923Z" fill="#7CCAC3"/>
</g>
<defs>
<clipPath id="clip0_1015_5211">
<rect width="24" height="24" fill="white"/>
</clipPath>
</defs>
</svg>
