<svg width="24" height="24" viewBox="0 0 24 24" fill="none" xmlns="http://www.w3.org/2000/svg">
<g id="shirt 1" style="mix-blend-mode:luminosity" clip-path="url(#clip0_1015_5249)">
<path id="Vector" d="M19.3266 0H14.1094V0.703125C14.1094 1.87027 13.1672 2.8125 12 2.8125C10.8328 2.8125 9.89062 1.87027 9.89062 0.703125V0H4.67339L0 4.62652V11.25H4.26562V24H19.7344V11.25H24V4.62652L19.3266 0Z" fill="#ABECE7"/>
<path id="Vector_2" d="M24 4.62652V11.25H19.7344V24H12V2.8125C13.1672 2.8125 14.1094 1.87027 14.1094 0.703125V0H19.3266L24 4.62652Z" fill="#92D3CD"/>
<g id="Group">
<path id="Vector_3" d="M9.89063 19.6875H7.07812V16.875H8.48438V18.2812H9.89063V19.6875Z" fill="#4F5074"/>
<path id="Vector_4" d="M8.48438 12.6562H7.07812V9.84375H9.89063V11.25H8.48438V12.6562Z" fill="#4F5074"/>
<path id="Vector_5" d="M8.48438 14.0625H7.07812V15.4688H8.48438V14.0625Z" fill="#4F5074"/>
</g>
<g id="Group_2">
<path id="Vector_6" d="M16.9219 12.6562H15.5156V11.25H14.1094V9.84375H16.9219V12.6562Z" fill="#2E2F55"/>
<path id="Vector_7" d="M16.9219 19.6875H14.1094V18.2812H15.5156V16.875H16.9219V19.6875Z" fill="#2E2F55"/>
<path id="Vector_8" d="M16.9219 14.0625H15.5156V15.4688H16.9219V14.0625Z" fill="#2E2F55"/>
</g>
<g id="Group_3">
<path id="Vector_9" d="M12.7031 9.84375H11.2969V11.25H12.7031V9.84375Z" fill="#4F5074"/>
<path id="Vector_10" d="M12.7031 18.2812H11.2969V19.6875H12.7031V18.2812Z" fill="#4F5074"/>
</g>
<g id="Group_4">
<path id="Vector_11" d="M12.7031 9.84375H12V11.25H12.7031V9.84375Z" fill="#2E2F55"/>
<path id="Vector_12" d="M12.7031 18.2812H12V19.6875H12.7031V18.2812Z" fill="#2E2F55"/>
</g>
</g>
<defs>
<clipPath id="clip0_1015_5249">
<rect width="24" height="24" fill="white"/>
</clipPath>
</defs>
</svg>
