<svg width="65" height="68" viewBox="0 0 65 68" fill="none" xmlns="http://www.w3.org/2000/svg">
<g id="Group 1000005405">
<g id="Rectangle 147909" filter="url(#filter0_d_1015_5019)">
<rect x="2.5" width="60" height="60" rx="16" fill="url(#paint0_linear_1015_5019)"/>
</g>
<path id="2" d="M40.1699 36.9805H32.1719L35.6719 33.9863C37.4629 32.6328 38.6934 31.416 39.3633 30.3223C40.0332 29.2285 40.375 27.9844 40.375 26.5762C40.375 24.7305 39.6914 23.1719 38.3242 21.9004C36.957 20.6289 35.166 20 32.9648 20C31.1465 20 29.5469 20.5742 28.166 21.7227C26.7852 22.8711 25.8965 24.293 25.5 25.9883C28.1113 26.6992 29.5469 27.082 29.793 27.1367C30.0254 26.1797 30.4219 25.4141 30.9824 24.8398C31.543 24.2656 32.2266 23.9785 33.0332 23.9785C33.8535 23.9785 34.5234 24.2109 35.0566 24.6758C35.5898 25.1406 35.8496 25.8242 35.8496 26.7129C35.8496 27.4648 35.6719 28.1348 35.3164 28.709C34.9609 29.2832 34.2363 30.0488 33.1289 30.9922L25.7461 37.3223V40.8223H40.1289L40.1699 36.9805Z" fill="white"/>
</g>
<defs>
<filter id="filter0_d_1015_5019" x="0.5" y="0" width="64" height="68" filterUnits="userSpaceOnUse" color-interpolation-filters="sRGB">
<feFlood flood-opacity="0" result="BackgroundImageFix"/>
<feColorMatrix in="SourceAlpha" type="matrix" values="0 0 0 0 0 0 0 0 0 0 0 0 0 0 0 0 0 0 127 0" result="hardAlpha"/>
<feMorphology radius="2" operator="erode" in="SourceAlpha" result="effect1_dropShadow_1015_5019"/>
<feOffset dy="6"/>
<feGaussianBlur stdDeviation="2"/>
<feComposite in2="hardAlpha" operator="out"/>
<feColorMatrix type="matrix" values="0 0 0 0 0.27451 0 0 0 0 0.403922 0 0 0 0 0.807843 0 0 0 0.25 0"/>
<feBlend mode="normal" in2="BackgroundImageFix" result="effect1_dropShadow_1015_5019"/>
<feBlend mode="normal" in="SourceGraphic" in2="effect1_dropShadow_1015_5019" result="shape"/>
</filter>
<linearGradient id="paint0_linear_1015_5019" x1="2.5" y1="0" x2="62.5" y2="60" gradientUnits="userSpaceOnUse">
<stop stop-color="#6B85D8"/>
<stop offset="1" stop-color="#4667CE"/>
</linearGradient>
</defs>
</svg>
