<svg width="40" height="40" viewBox="0 0 40 40" fill="none" xmlns="http://www.w3.org/2000/svg">
<g id="vuesax/twotone/menu-board">
<g id="menu-board">
<path id="Vector" d="M26.6665 36.6667H34.6332C36.7832 36.6667 38.4665 34.85 38.3165 32.7L36.6665 10" stroke="#93C8BF" stroke-width="1.5" stroke-miterlimit="10" stroke-linecap="round" stroke-linejoin="round"/>
<path id="Vector_2" d="M36.5501 11.2667L30.9334 33.8167C30.5334 35.5 29.0334 36.6666 27.3001 36.6666H5.40005C2.88339 36.6666 1.08341 34.1999 1.83341 31.7832L8.85007 9.25006C9.3334 7.68339 10.7834 6.59991 12.4168 6.59991H32.9167C34.5001 6.59991 35.8167 7.56659 36.3667 8.89992C36.6834 9.61659 36.7501 10.4333 36.5501 11.2667Z" stroke="#302E56" stroke-width="1.5" stroke-miterlimit="10"/>
<path id="Vector_3" d="M16.1338 10.6333L17.8671 3.43341" stroke="#302E56" stroke-width="1.5" stroke-miterlimit="10" stroke-linecap="round" stroke-linejoin="round"/>
<path id="Vector_4" d="M27.2998 10.65L28.8665 3.41675" stroke="#302E56" stroke-width="1.5" stroke-miterlimit="10" stroke-linecap="round" stroke-linejoin="round"/>
<path id="Vector_5" d="M12.8335 20H26.1668" stroke="#93C8BF" stroke-width="1.5" stroke-miterlimit="10" stroke-linecap="round" stroke-linejoin="round"/>
<path id="Vector_6" d="M11.167 26.6667H24.5003" stroke="#93C8BF" stroke-width="1.5" stroke-miterlimit="10" stroke-linecap="round" stroke-linejoin="round"/>
</g>
</g>
</svg>
