<svg width="40" height="40" viewBox="0 0 40 40" fill="none" xmlns="http://www.w3.org/2000/svg">
<g id="vuesax/twotone/menu-board">
<g id="menu-board">
<path id="Vector" d="M26.6665 36.6667H34.6332C36.7832 36.6667 38.4665 34.85 38.3165 32.7L36.6665 10" stroke="#93C8BF" stroke-width="1.5" stroke-miterlimit="10" stroke-linecap="round" stroke-linejoin="round"/>
<path id="Vector_2" d="M36.5503 11.2667L30.9336 33.8168C30.5336 35.5001 29.0337 36.6667 27.3003 36.6667H5.4003C2.88363 36.6667 1.08366 34.2 1.83366 31.7833L8.85031 9.25012C9.33364 7.68346 10.7837 6.59998 12.417 6.59998H32.917C34.5003 6.59998 35.817 7.56665 36.367 8.89998C36.6837 9.61665 36.7503 10.4334 36.5503 11.2667Z" stroke="white" stroke-width="1.5" stroke-miterlimit="10"/>
<path id="Vector_3" d="M16.1335 10.6334L17.8669 3.43347" stroke="white" stroke-width="1.5" stroke-miterlimit="10" stroke-linecap="round" stroke-linejoin="round"/>
<path id="Vector_4" d="M27.2998 10.65L28.8665 3.41675" stroke="white" stroke-width="1.5" stroke-miterlimit="10" stroke-linecap="round" stroke-linejoin="round"/>
<path id="Vector_5" d="M12.8337 20H26.1671" stroke="#93C8BF" stroke-width="1.5" stroke-miterlimit="10" stroke-linecap="round" stroke-linejoin="round"/>
<path id="Vector_6" d="M11.167 26.6666H24.5003" stroke="#93C8BF" stroke-width="1.5" stroke-miterlimit="10" stroke-linecap="round" stroke-linejoin="round"/>
</g>
</g>
</svg>
