<svg width="40" height="40" viewBox="0 0 40 40" fill="none" xmlns="http://www.w3.org/2000/svg">
<g id="vuesax/twotone/microphone-2">
<g id="microphone-2">
<path id="Vector" d="M20.0002 25.8333C23.6835 25.8333 26.6668 22.85 26.6668 19.1666V9.99998C26.6668 6.31665 23.6835 3.33331 20.0002 3.33331C16.3168 3.33331 13.3335 6.31665 13.3335 9.99998V19.1666C13.3335 22.85 16.3168 25.8333 20.0002 25.8333Z" stroke="#302E56" stroke-width="1.5" stroke-linecap="round" stroke-linejoin="round"/>
<path id="Vector_2" d="M17.6831 10.7166C19.1831 10.1666 20.8164 10.1666 22.3164 10.7166" stroke="#93C8BF" stroke-width="1.5" stroke-linecap="round" stroke-linejoin="round"/>
<path id="Vector_3" d="M18.667 14.25C19.5503 14.0167 20.467 14.0167 21.3503 14.25" stroke="#93C8BF" stroke-width="1.5" stroke-linecap="round" stroke-linejoin="round"/>
<g id="Group 595">
<path id="Vector_4" d="M7.24951 16.084V18.9173C7.24951 25.9507 12.9662 31.6673 19.9995 31.6673C27.0328 31.6673 32.7495 25.9507 32.7495 18.9173V16.084" stroke="#93C8BF" stroke-width="1.5" stroke-linecap="round" stroke-linejoin="round"/>
<path id="Vector_5" d="M20 31.6667V36.6667" stroke="#93C8BF" stroke-width="1.5" stroke-linecap="round" stroke-linejoin="round"/>
</g>
</g>
</g>
</svg>
