<svg width="40" height="40" viewBox="0 0 40 40" fill="none" xmlns="http://www.w3.org/2000/svg">
<g id="vuesax/twotone/microphone-2">
<g id="microphone-2">
<path id="Vector" d="M19.9999 25.8334C23.6833 25.8334 26.6666 22.85 26.6666 19.1667V10C26.6666 6.31671 23.6833 3.33337 19.9999 3.33337C16.3166 3.33337 13.3333 6.31671 13.3333 10V19.1667C13.3333 22.85 16.3166 25.8334 19.9999 25.8334Z" stroke="white" stroke-width="1.5" stroke-linecap="round" stroke-linejoin="round"/>
<path id="Vector_2" d="M17.6831 10.7167C19.1831 10.1667 20.8164 10.1667 22.3164 10.7167" stroke="#93C8BF" stroke-width="1.5" stroke-linecap="round" stroke-linejoin="round"/>
<path id="Vector_3" d="M18.667 14.25C19.5503 14.0166 20.467 14.0166 21.3503 14.25" stroke="#93C8BF" stroke-width="1.5" stroke-linecap="round" stroke-linejoin="round"/>
<g id="Group 595">
<path id="Vector_4" d="M7.24927 16.084V18.9173C7.24927 25.9507 12.9659 31.6673 19.9993 31.6673C27.0326 31.6673 32.7493 25.9507 32.7493 18.9173V16.084" stroke="#93C8BF" stroke-width="1.5" stroke-linecap="round" stroke-linejoin="round"/>
<path id="Vector_5" d="M19.9998 31.6666V36.6666" stroke="#93C8BF" stroke-width="1.5" stroke-linecap="round" stroke-linejoin="round"/>
</g>
</g>
</g>
</svg>
