<svg width="40" height="40" viewBox="0 0 40 40" fill="none" xmlns="http://www.w3.org/2000/svg">
<g id="vuesax/twotone/category">
<g id="category">
<path id="Vector" d="M8.33325 16.6667H11.6666C14.9999 16.6667 16.6666 15 16.6666 11.6667V8.33337C16.6666 5.00004 14.9999 3.33337 11.6666 3.33337H8.33325C4.99992 3.33337 3.33325 5.00004 3.33325 8.33337V11.6667C3.33325 15 4.99992 16.6667 8.33325 16.6667Z" stroke="#93C8BF" stroke-width="1.5" stroke-miterlimit="10" stroke-linecap="round" stroke-linejoin="round"/>
<path id="Vector_2" d="M28.3333 16.6667H31.6666C34.9999 16.6667 36.6666 15 36.6666 11.6667V8.33337C36.6666 5.00004 34.9999 3.33337 31.6666 3.33337H28.3333C24.9999 3.33337 23.3333 5.00004 23.3333 8.33337V11.6667C23.3333 15 24.9999 16.6667 28.3333 16.6667Z" stroke="white" stroke-width="1.5" stroke-miterlimit="10" stroke-linecap="round" stroke-linejoin="round"/>
<path id="Vector_3" d="M28.3333 36.6667H31.6666C34.9999 36.6667 36.6666 35 36.6666 31.6667V28.3334C36.6666 25 34.9999 23.3334 31.6666 23.3334H28.3333C24.9999 23.3334 23.3333 25 23.3333 28.3334V31.6667C23.3333 35 24.9999 36.6667 28.3333 36.6667Z" stroke="#93C8BF" stroke-width="1.5" stroke-miterlimit="10" stroke-linecap="round" stroke-linejoin="round"/>
<path id="Vector_4" d="M8.33325 36.6667H11.6666C14.9999 36.6667 16.6666 35 16.6666 31.6667V28.3334C16.6666 25 14.9999 23.3334 11.6666 23.3334H8.33325C4.99992 23.3334 3.33325 25 3.33325 28.3334V31.6667C3.33325 35 4.99992 36.6667 8.33325 36.6667Z" stroke="white" stroke-width="1.5" stroke-miterlimit="10" stroke-linecap="round" stroke-linejoin="round"/>
</g>
</g>
</svg>
