<svg width="64" height="4" viewBox="0 0 64 4" fill="none" xmlns="http://www.w3.org/2000/svg">
<path id="path2987" d="M16.6958 3.97888C16.6958 3.96726 16.6804 3.95998 16.6616 3.9627C16.6427 3.96543 16.6038 3.9545 16.575 3.93842C16.5447 3.92146 16.4979 3.90919 16.4636 3.90919C16.4169 3.90919 16.4131 3.90676 16.4456 3.89761C16.4772 3.88871 16.4762 3.8852 16.4411 3.88244C16.4052 3.87962 16.4068 3.87563 16.4485 3.86378C16.4889 3.8523 16.491 3.84788 16.4573 3.84524C16.433 3.84333 16.4132 3.83814 16.4132 3.83371C16.4132 3.82928 16.4289 3.82792 16.4481 3.8307C16.4681 3.83359 16.474 3.83027 16.462 3.82293C16.4504 3.81588 16.4591 3.81011 16.4813 3.81011C16.5107 3.81011 16.5114 3.80563 16.4838 3.7936C16.4534 3.78034 16.4569 3.77709 16.5016 3.77709C16.5466 3.77709 16.5488 3.77496 16.513 3.76602C16.4673 3.75458 16.3784 3.76481 16.39 3.78018C16.393 3.78416 16.3769 3.78901 16.3541 3.79097C16.3269 3.79332 16.3197 3.78829 16.3332 3.77627C16.3444 3.76622 16.3392 3.75996 16.3216 3.76238C16.3039 3.76479 16.2577 3.76403 16.2188 3.76069C16.1628 3.75587 16.1792 3.75337 16.2983 3.74861C16.392 3.74487 16.4485 3.73822 16.4485 3.73095C16.4485 3.72454 16.4794 3.71929 16.5171 3.71929C16.5549 3.71929 16.6076 3.71203 16.6341 3.70317C16.6818 3.68726 16.8618 3.66557 16.9201 3.66869C16.9366 3.66957 17.0399 3.66499 17.1498 3.65852C17.2596 3.65204 17.4489 3.64412 17.5704 3.64092C17.6919 3.63772 17.8001 3.63175 17.811 3.62766C17.8218 3.62356 17.8655 3.62013 17.9081 3.62003C17.9506 3.61992 18.0809 3.60886 18.1975 3.59544C18.3141 3.58202 18.4364 3.57096 18.4692 3.57086C18.5021 3.57075 18.5388 3.56696 18.5508 3.56242C18.5628 3.55787 18.5547 3.55416 18.5328 3.55416C18.4838 3.55416 18.5015 3.51723 18.5508 3.51643C18.5702 3.51611 18.6559 3.51119 18.7411 3.50549C18.8263 3.49979 18.9348 3.49741 18.9822 3.50019C19.0296 3.50297 19.1189 3.5016 19.1806 3.49716C19.2423 3.49271 19.3815 3.48501 19.49 3.48005C19.7876 3.46645 19.9465 3.45508 19.9465 3.4474C19.9465 3.43944 18.1339 3.44499 17.6851 3.45433C17.4487 3.45924 17.3585 3.4579 17.2611 3.44801C17.1931 3.4411 17.1295 3.43491 17.1198 3.43425C17.1101 3.43359 17.0557 3.42857 16.9989 3.42309C16.9421 3.41761 16.8705 3.41541 16.8399 3.4182C16.8092 3.42099 16.339 3.4246 15.7948 3.42623C15.2507 3.42786 14.7339 3.4329 14.6465 3.43742C14.559 3.44194 14.297 3.44995 14.0641 3.45522C13.8313 3.4605 13.6103 3.46862 13.5731 3.47326C13.5359 3.47792 13.4279 3.47998 13.3329 3.47785C13.238 3.47571 13.1518 3.47721 13.1413 3.48117C13.1308 3.48513 13.1075 3.48624 13.0894 3.48363C13.0713 3.48101 13.0565 3.48281 13.0565 3.48762C13.0565 3.49243 13.0446 3.49563 13.03 3.49472C12.9712 3.49109 12.6678 3.50611 12.6678 3.51266C12.6678 3.52071 12.4009 3.53411 12.3 3.53112C12.2629 3.53002 12.2026 3.53661 12.1661 3.54577C12.1296 3.55492 12.0725 3.56286 12.0393 3.56339C12.006 3.56393 11.8834 3.56517 11.7668 3.56615C11.6502 3.56713 11.4912 3.57222 11.4135 3.57746C11.3358 3.5827 11.2121 3.58908 11.1387 3.59163C11.0653 3.59419 11.0138 3.59954 11.0244 3.60352C11.0573 3.61596 10.9787 3.61921 10.3649 3.63088C10.3322 3.6315 10.3084 3.63553 10.3119 3.63983C10.3153 3.64413 10.2864 3.64983 10.2475 3.65251C10.2086 3.65518 10.1367 3.66375 10.0876 3.67155C10.0234 3.68175 9.88963 3.68722 9.61063 3.69104C9.39734 3.69396 9.18608 3.69596 9.14116 3.69549C9.09624 3.69501 9.01066 3.70052 8.95098 3.70773C8.88934 3.71518 8.83304 3.71758 8.82065 3.71327C8.79023 3.70271 8.66584 3.69257 8.69309 3.70287C8.72181 3.71373 8.68742 3.71317 8.59335 3.70126C8.40347 3.67721 7.50456 3.69549 7.41079 3.72531C7.38175 3.73454 7.37857 3.74077 7.40195 3.74259C7.42206 3.74415 7.43851 3.74873 7.43851 3.75275C7.43851 3.75677 7.41627 3.75806 7.38908 3.75562C7.3619 3.75319 7.32916 3.75516 7.31633 3.76001C7.28207 3.77296 7.49382 3.77109 7.60809 3.75742C7.66057 3.75115 7.77506 3.74328 7.86251 3.73993C7.94996 3.73659 8.04933 3.73265 8.08334 3.73118C8.11735 3.7297 8.14517 3.73336 8.14517 3.73931C8.14517 3.74696 8.18911 3.74932 8.29534 3.74738C8.41142 3.74525 8.4313 3.74655 8.38293 3.75311C8.34851 3.75777 8.32831 3.7646 8.33803 3.76827C8.359 3.7762 8.16146 3.78418 7.77901 3.79084C7.56427 3.79458 7.49418 3.7931 7.47038 3.78432C7.44805 3.77608 7.43944 3.77579 7.43905 3.78328C7.43825 3.79848 7.22587 3.79603 7.14979 3.77994C7.11425 3.77242 7.08518 3.76979 7.08518 3.77408C7.08518 3.77882 6.97049 3.77966 6.79368 3.77622C6.63335 3.7731 6.38293 3.76849 6.23718 3.76599C6.09143 3.76349 5.91995 3.75712 5.85612 3.75184C5.79228 3.74656 5.70048 3.74401 5.65211 3.74617C5.60373 3.74833 5.55413 3.74631 5.54188 3.74168C5.52818 3.7365 5.53741 3.73583 5.56584 3.73993C5.59462 3.74409 5.60352 3.74337 5.5894 3.73803C5.5628 3.72797 5.39428 3.71886 5.19485 3.7167C5.0772 3.71542 5.05287 3.71219 5.04968 3.69742C5.04625 3.68156 5.07061 3.67901 5.27934 3.67336C5.40777 3.66988 5.5526 3.66784 5.60118 3.66882L5.68951 3.67061L5.59576 3.6587C5.43319 3.63805 5.27466 3.62933 4.96518 3.62404C4.8 3.62121 4.5615 3.61283 4.43518 3.60541C4.14465 3.58835 3.13656 3.58705 3.0926 3.60367C3.07747 3.60939 3.04638 3.61137 3.02352 3.60807C2.96449 3.59954 2.31427 3.59667 2.33639 3.60504C2.35708 3.61286 2.35181 3.61299 1.88959 3.61627C1.56337 3.61858 1.42566 3.6214 0.937191 3.63578C0.714458 3.64233 0.584233 3.63858 0.456932 3.62193C0.40362 3.61496 0.415109 3.61099 0.5435 3.59206C0.647056 3.57678 0.773569 3.56779 0.964532 3.56215C1.29042 3.55253 1.60136 3.5404 1.82538 3.52858C1.95937 3.52151 1.9861 3.51714 1.97206 3.50459C1.96198 3.49559 1.93444 3.49108 1.90537 3.49369C1.87814 3.49613 1.85586 3.49402 1.85586 3.48899C1.85586 3.48396 1.88368 3.47979 1.91769 3.47972C1.97053 3.47962 1.97181 3.47844 1.92652 3.47159C1.893 3.46653 1.88935 3.46354 1.91658 3.46346C1.94033 3.46339 1.95048 3.45776 1.93923 3.45091C1.92502 3.44226 1.96027 3.43417 2.05517 3.42432L2.19152 3.41016L1.84629 3.40518C1.65642 3.40244 1.40599 3.40058 1.2898 3.40104C1.1736 3.4015 1.07852 3.40141 1.07852 3.40084C1.07852 3.40028 1.11032 3.39124 1.14919 3.38077C1.18806 3.3703 1.21986 3.36424 1.21986 3.36731C1.21986 3.37038 1.25566 3.36742 1.29942 3.36071C1.34318 3.35401 1.49686 3.34426 1.64093 3.33903C1.78499 3.33381 1.96584 3.32435 2.0428 3.318C2.11977 3.31165 2.24037 3.30633 2.3108 3.30617C2.50757 3.30572 3.00323 3.2756 2.85991 3.2728C2.84209 3.27246 2.79572 3.27046 2.75685 3.26837C2.71799 3.26628 2.66677 3.26358 2.64304 3.26236C2.5622 3.25822 2.55704 3.25019 2.63166 3.24465C2.67262 3.24161 2.74769 3.23013 2.79848 3.21913C2.84928 3.20813 2.92632 3.19913 2.96969 3.19913C3.01305 3.19913 3.06667 3.19402 3.08884 3.18778C3.12197 3.17845 3.09284 3.17546 2.92534 3.171C2.81324 3.16802 2.67382 3.16378 2.61552 3.16158C2.47682 3.15635 1.92491 3.1571 1.887 3.16258C1.83586 3.16996 1.43186 3.17345 1.43186 3.1665C1.43186 3.16285 1.45571 3.15524 1.48486 3.14959C1.51401 3.14393 1.53786 3.13543 1.53786 3.13069C1.53786 3.12595 1.52739 3.12451 1.51461 3.1275C1.50182 3.13049 1.47002 3.12879 1.44394 3.12374C1.41769 3.11864 1.39652 3.11806 1.39652 3.12243C1.39652 3.12677 1.37267 3.13032 1.34352 3.13032C1.25867 3.13032 1.28194 3.12148 1.39855 3.10942C1.52969 3.09585 1.51091 3.09017 1.2995 3.07941C1.10664 3.06959 1.06988 3.05421 1.20815 3.04119C1.35125 3.02771 2.02355 3.01022 2.40787 3.00997C2.58801 3.00985 2.77758 3.00729 2.82913 3.00427L2.92286 2.99877L2.82219 2.97952C2.76682 2.96894 2.69463 2.96015 2.66177 2.95998C2.57802 2.95957 2.55256 2.94644 2.59749 2.92682C2.64492 2.90611 2.95227 2.86887 3.07576 2.86887C3.12783 2.86887 3.15793 2.8653 3.14552 2.86061C3.13351 2.85607 3.09452 2.85235 3.05888 2.85235C2.99902 2.85235 2.93246 2.83174 2.94558 2.81726C2.95891 2.80254 2.39831 2.819 2.35139 2.83471C2.31556 2.8467 1.4133 2.87804 1.32461 2.87037L1.24014 2.86307L1.3223 2.8528C1.36749 2.84715 1.66105 2.83253 1.97466 2.82031C2.54852 2.79795 2.68819 2.78217 2.31215 2.78217C2.19661 2.78217 2.09031 2.77745 2.05576 2.77079C2.00668 2.76134 1.93872 2.76107 1.65246 2.76924C1.12609 2.78427 0.820183 2.79458 0.748444 2.79973C0.700914 2.80315 0.686621 2.8007 0.695444 2.79066C0.708303 2.77603 0.817618 2.75886 0.988994 2.74456C1.13651 2.73225 1.04481 2.72139 0.856202 2.72884C0.774429 2.73207 0.635975 2.73733 0.548525 2.74053L0.389526 2.74634L0.522025 2.71667C0.5949 2.70035 0.654525 2.68567 0.654525 2.68405C0.654525 2.68243 0.555929 2.67849 0.435422 2.6753C0.1505 2.66777 -0.00195483 2.64911 1.89258e-05 2.622C0.00105573 2.6077 0.229636 2.58852 0.442325 2.58489C0.529885 2.58339 0.728724 2.57626 0.884191 2.56905C1.03966 2.56183 1.27818 2.55426 1.41423 2.55221C1.55029 2.55017 1.75699 2.54458 1.87356 2.5398C2.59756 2.51009 2.76052 2.50278 2.79172 2.4986C2.8109 2.49603 2.75525 2.48987 2.66805 2.48491C2.58031 2.47992 2.50952 2.47105 2.50952 2.46505C2.50952 2.45115 2.86564 2.42097 3.18885 2.40747C3.34607 2.40091 3.4624 2.39114 3.50049 2.38131C3.53458 2.3725 3.65286 2.3614 3.76988 2.35602C4.03539 2.34382 4.02822 2.33224 3.73973 2.30733C3.67787 2.30199 3.63443 2.29332 3.64319 2.28807C3.66312 2.27612 3.8269 2.25788 3.91431 2.25788C3.95045 2.25788 3.97019 2.25416 3.95818 2.24962C3.94617 2.24508 3.81803 2.24137 3.67343 2.24137C3.43518 2.24137 3.33951 2.23293 3.45468 2.22207C3.5576 2.21236 3.04195 2.21762 2.78726 2.22886C2.47009 2.24287 2.29752 2.23701 2.29752 2.21222C2.29752 2.2008 2.38981 2.18579 2.64434 2.15584C2.88411 2.12763 2.97681 2.11287 2.94467 2.10802C2.88363 2.09881 2.94388 2.08939 3.18085 2.0711C3.51535 2.04528 3.7807 2.00201 3.74586 1.97896C3.72207 1.96321 3.85244 1.95462 4.39107 1.93646C4.6588 1.92743 4.92693 1.91432 4.9869 1.90733C5.04687 1.90033 5.17385 1.89243 5.26906 1.88977C5.5316 1.88241 6.03396 1.85272 6.11254 1.8399C6.15087 1.83365 6.23037 1.82828 6.28921 1.82796C6.34804 1.82764 6.42798 1.82419 6.46684 1.82028C6.52311 1.81463 6.50872 1.81294 6.39618 1.81197C6.09501 1.80938 5.9352 1.80244 5.89527 1.79022C5.86802 1.78188 5.82543 1.77932 5.77161 1.78277C5.70096 1.78731 5.69822 1.78677 5.75198 1.7789C5.78634 1.77387 5.84199 1.77081 5.87565 1.77211C5.90931 1.7734 5.95824 1.77133 5.98438 1.7675C6.0125 1.76338 6.0675 1.76499 6.11906 1.77144C6.18698 1.77993 6.22096 1.78018 6.27305 1.77258C6.31535 1.76641 6.34776 1.7658 6.36129 1.77091C6.37305 1.77536 6.47317 1.77913 6.58376 1.77929C6.69436 1.77945 6.82459 1.7849 6.87317 1.79139C6.97902 1.80552 7.01451 1.80656 7.01451 1.79551C7.01451 1.79097 6.98972 1.78726 6.95942 1.78726C6.92913 1.78726 6.91305 1.78396 6.92369 1.77994C6.93434 1.77591 6.90975 1.77059 6.86906 1.7681C6.82836 1.76561 6.80197 1.75869 6.81042 1.75271C6.826 1.74168 6.98427 1.73522 7.47384 1.72563C7.91614 1.71696 8.03917 1.71229 8.03917 1.70419C8.03917 1.69992 8.01532 1.69644 7.98617 1.69644C7.95673 1.69644 7.93317 1.6891 7.93317 1.67992C7.93317 1.66781 7.95673 1.66341 8.02151 1.66341C8.12314 1.66341 8.14048 1.65069 8.04665 1.64496C8.0119 1.64284 7.83303 1.64308 7.64915 1.64551C7.11363 1.65257 6.89941 1.65022 6.78737 1.63605C6.73047 1.62886 6.67372 1.62444 6.66127 1.62624C6.64882 1.62804 6.6452 1.61905 6.65323 1.60627C6.67075 1.57837 6.62105 1.57402 6.25826 1.57169C6.04114 1.57029 6.02428 1.56904 6.09974 1.5599C6.22388 1.54487 6.67925 1.52329 6.9508 1.51958C7.08958 1.51768 7.22067 1.5109 7.26783 1.50318C7.3682 1.48675 7.42869 1.48655 7.49655 1.5024C7.52708 1.50954 7.61216 1.51471 7.6972 1.51461C7.95907 1.5143 8.93615 1.49108 9.06881 1.48201C9.1927 1.47355 9.19645 1.47219 9.17032 1.44511C9.15385 1.42804 9.15755 1.41363 9.17974 1.40844C9.20494 1.40255 9.20385 1.39639 9.17625 1.38862C9.09184 1.36485 9.19922 1.35993 9.71486 1.36394C10.1155 1.36705 10.2405 1.36534 10.3218 1.35566C10.4078 1.34541 10.7956 1.33127 11.0602 1.32874C11.099 1.32837 11.2103 1.32474 11.3075 1.32068L11.4842 1.3133L11.3252 1.30729C11.2377 1.30399 10.9754 1.30318 10.7422 1.3055C10.509 1.30781 10.1751 1.30921 10.0002 1.30861C9.82527 1.308 9.48342 1.31356 9.2405 1.32096C8.75986 1.3356 8.26418 1.34583 8.0508 1.34553C7.97639 1.34543 7.90552 1.34859 7.89331 1.35255C7.88111 1.35652 7.82148 1.36024 7.76081 1.36082C7.70015 1.3614 7.65051 1.36495 7.65051 1.3687C7.65051 1.37246 7.61473 1.37319 7.57101 1.37032C7.50877 1.36623 7.50302 1.36697 7.54451 1.37376C7.5902 1.38124 7.58898 1.38245 7.53568 1.38256C7.50167 1.38263 7.47384 1.38683 7.47384 1.39189C7.47384 1.39754 7.44024 1.39595 7.38675 1.38776C7.29003 1.37295 7.24762 1.37063 7.27703 1.38175C7.28767 1.38577 7.26476 1.391 7.22611 1.39336C7.1859 1.39582 7.15584 1.39357 7.15583 1.3881C7.15583 1.38258 7.10004 1.37856 7.02333 1.37856C6.93912 1.37856 6.89386 1.38217 6.89911 1.38848C6.90481 1.39531 6.86673 1.39719 6.77698 1.39451C6.62989 1.39011 6.48478 1.37087 6.48397 1.35566C6.48359 1.34916 6.47116 1.34997 6.44918 1.35792C6.42259 1.36753 6.41481 1.3651 6.41439 1.34705C6.41369 1.31727 6.47191 1.29186 6.54084 1.29186C6.57045 1.29186 6.58485 1.28815 6.57284 1.28361C6.56083 1.27907 6.57977 1.27507 6.61492 1.27472C6.73136 1.27357 6.80531 1.26856 6.88404 1.25651C6.95463 1.2457 7.12051 1.24986 7.12051 1.26244C7.12051 1.26471 7.09921 1.26466 7.07317 1.26232C7.04713 1.25999 7.00341 1.26453 6.976 1.27242C6.93306 1.28478 6.93311 1.28579 6.97639 1.2797C7.01497 1.27426 7.02082 1.27613 7.00169 1.28777C6.98681 1.29683 6.99505 1.30562 7.02219 1.30964C7.08978 1.31967 7.1467 1.31778 7.08522 1.30756C7.04534 1.30092 7.06581 1.29984 7.16792 1.30316C7.24297 1.3056 7.33249 1.30336 7.36822 1.29814C7.41711 1.29101 7.44538 1.29116 7.48455 1.29875C7.52628 1.30685 7.5416 1.30595 7.5637 1.29413C7.57877 1.28607 7.58858 1.27668 7.58549 1.27328C7.58241 1.26987 7.60241 1.26708 7.62994 1.26708C7.65747 1.26708 7.68605 1.26283 7.69346 1.25764C7.70087 1.25245 7.75358 1.24704 7.81059 1.24562C7.8676 1.24419 7.93201 1.23736 7.95372 1.23042C7.97544 1.22348 8.00609 1.22053 8.02184 1.22387C8.03759 1.2272 8.04049 1.22343 8.02829 1.21548C8.00097 1.19769 8.06855 1.19603 8.09769 1.21377C8.11621 1.22505 8.12624 1.2249 8.18491 1.21249C8.24755 1.19925 8.25124 1.19934 8.25175 1.2142C8.2522 1.22738 8.25785 1.22792 8.28654 1.21754C8.33761 1.19908 8.33032 1.19506 8.23575 1.18951C8.17577 1.186 8.15132 1.17918 8.15523 1.16708C8.16145 1.14779 8.28453 1.13338 8.42634 1.13533C8.55852 1.13714 8.67521 1.12652 8.67521 1.11266C8.67521 1.10375 8.71033 1.10113 8.80771 1.10279C8.95012 1.10522 9.18969 1.09593 9.27588 1.08463C9.31868 1.07902 9.31528 1.07756 9.25821 1.07704C9.21934 1.07669 9.10804 1.07466 9.01088 1.07253C8.71043 1.06595 8.31078 1.06616 8.1666 1.07297C8.06763 1.07765 8.03591 1.07686 8.05361 1.07017C8.06881 1.06442 8.05925 1.06256 8.02861 1.06531C7.99954 1.06792 7.95264 1.06036 7.91535 1.04706C7.86983 1.03082 7.86385 1.02342 7.89433 1.02104C7.92296 1.01881 7.91604 1.01389 7.87325 1.00604C7.81518 0.995399 7.81893 0.994747 7.91555 0.99867C7.97385 1.00104 8.00167 1.00078 7.97738 0.998107C7.8879 0.98825 7.93718 0.978105 8.07454 0.978105C8.16376 0.978105 8.21607 0.98191 8.21641 0.988425C8.21679 0.99602 8.22498 0.995787 8.24733 0.987544C8.26641 0.980506 8.28596 0.979466 8.29993 0.984745C8.32364 0.993713 8.36862 0.993015 8.47906 0.981967C8.51693 0.978179 8.60017 0.974831 8.66405 0.974528C8.81049 0.973834 8.85804 0.953335 8.71321 0.953335C8.65593 0.953335 8.60328 0.947967 8.59176 0.94095C8.57803 0.932594 8.59347 0.928566 8.63922 0.928566C8.67651 0.928566 8.71974 0.923921 8.73528 0.918245C8.7758 0.903444 8.91979 0.885912 8.95686 0.891266C8.97416 0.893764 8.99831 0.892035 9.01051 0.887417C9.02272 0.882803 9.07658 0.879026 9.13021 0.879026C9.18383 0.879026 9.31407 0.872992 9.41962 0.865618C9.58622 0.853978 9.60119 0.851303 9.53313 0.845338C9.49002 0.841559 9.19499 0.83897 8.87752 0.839586C8.56005 0.840207 8.27953 0.837706 8.25414 0.834039C8.22784 0.830242 8.19756 0.831307 8.18379 0.836512C8.1554 0.847247 7.05702 0.855385 7.02972 0.845062C7.02013 0.841434 6.9876 0.840677 6.95745 0.843382C6.92031 0.846712 6.91542 0.850148 6.9423 0.85403C6.96413 0.857182 6.93366 0.859761 6.8746 0.859761C6.81553 0.859761 6.76721 0.85621 6.76721 0.851869C6.76721 0.847529 6.74297 0.848678 6.71335 0.854423C6.68373 0.860167 6.6482 0.862225 6.63438 0.858997C6.62057 0.855768 6.64878 0.846099 6.69707 0.837509L6.78487 0.82189L6.69654 0.825858C6.61913 0.829335 6.61695 0.828855 6.67887 0.82198C6.78078 0.810667 6.94824 0.811838 7.04641 0.82455C7.14209 0.83694 7.26187 0.832857 7.26187 0.817206C7.26187 0.809997 7.33164 0.806758 7.49154 0.806547C7.63564 0.806357 7.7212 0.809623 7.7212 0.815315C7.7212 0.820305 7.74108 0.818299 7.76537 0.810858C7.79727 0.801085 7.89294 0.795856 8.10987 0.792029C8.27505 0.789115 8.51056 0.781489 8.63323 0.775082C8.75589 0.768677 8.90694 0.763078 8.96889 0.762642C9.03085 0.762204 9.16103 0.756776 9.2582 0.750576C9.42386 0.740005 9.40516 0.739582 8.95787 0.743806C8.69552 0.746283 8.45702 0.748371 8.42787 0.748446C8.39872 0.74852 8.03302 0.757291 7.6152 0.767935C7.19739 0.778579 6.74188 0.788424 6.60295 0.78981C6.46403 0.791198 6.35764 0.795119 6.36654 0.798524C6.37543 0.80193 6.3142 0.804732 6.23046 0.80475C6.14672 0.80475 5.93511 0.810167 5.76021 0.816745C5.46029 0.828026 4.75479 0.839659 4.8506 0.831743C4.87501 0.829727 4.886 0.824678 4.87501 0.820525C4.86403 0.816372 4.8997 0.812796 4.95429 0.812577C5.00888 0.812365 5.10919 0.805131 5.17721 0.796514C5.24523 0.787897 5.33268 0.777381 5.37154 0.773147C5.49929 0.759226 7.58321 0.678666 8.07454 0.668655C8.22029 0.665685 8.64163 0.655894 9.01087 0.6469C9.3801 0.637905 9.86744 0.62694 10.0938 0.622534C10.3203 0.618126 10.582 0.609141 10.6755 0.602566C10.7983 0.593928 10.8523 0.593165 10.8699 0.599821C10.8922 0.608259 11.2639 0.605949 11.7139 0.594576C11.7819 0.592856 11.9965 0.589128 12.1909 0.586291C12.5396 0.581201 13.0708 0.564074 13.3682 0.548337C13.4522 0.543894 13.5358 0.542407 13.5539 0.545034C13.5721 0.547661 13.8183 0.541622 14.101 0.531616C14.5193 0.51681 14.63 0.515304 14.6958 0.523534C14.762 0.531808 14.8467 0.530419 15.1621 0.515896C15.6871 0.49172 16.3721 0.460291 16.7135 0.444718C16.869 0.437626 17.0948 0.426554 17.2154 0.420114C17.336 0.413673 17.4871 0.408422 17.5511 0.408444C17.6151 0.408444 17.7391 0.403134 17.8265 0.396594C17.9739 0.385573 18.2756 0.373337 19.0808 0.345734C19.4945 0.331554 19.5778 0.328281 19.9995 0.309655C20.1938 0.301071 20.5118 0.287916 20.7062 0.28042C20.9005 0.272925 21.1072 0.26495 21.1655 0.262698C21.5781 0.246765 21.6566 0.247062 21.7387 0.26486C21.7829 0.274463 21.8192 0.286538 21.8192 0.291694C21.8192 0.296849 21.8311 0.300627 21.8457 0.30009C21.8602 0.299557 21.9085 0.299557 21.9529 0.30009C22.0204 0.300906 22.0279 0.303594 21.9983 0.316495C21.9551 0.335381 21.9897 0.345568 22.0544 0.333011C22.1273 0.318882 22.1107 0.331591 22.0269 0.354117C21.9829 0.365933 21.8946 0.376527 21.8133 0.379735C21.6947 0.38442 21.6811 0.387002 21.7191 0.397698C21.7762 0.413753 21.728 0.414748 23.9922 0.35073C24.1476 0.346335 24.4259 0.340956 24.6105 0.338779C24.7951 0.336601 25.129 0.330908 25.3525 0.326128C25.576 0.321349 25.8701 0.315966 26.0062 0.314167C26.1422 0.312368 26.3164 0.307047 26.3932 0.302342C26.4701 0.297638 26.7749 0.29356 27.0707 0.293281C27.3665 0.293003 27.6295 0.291117 27.6553 0.289093C27.7189 0.284099 28.5469 0.273963 28.7439 0.275768C28.831 0.276568 28.9266 0.28236 28.9563 0.288644C29.0229 0.302726 29.1925 0.304137 29.9811 0.297176C30.3437 0.293975 30.6766 0.286697 30.7859 0.279583C30.9286 0.2703 31.1652 0.267759 31.7929 0.268768C32.2442 0.269498 32.9951 0.267283 33.4615 0.263858C34.4066 0.256914 34.3561 0.256835 35.3341 0.266756C35.9674 0.273179 36.3327 0.273446 36.8888 0.267891C36.986 0.266921 37.0376 0.264427 37.0036 0.26235C36.9696 0.260274 36.9418 0.25469 36.9418 0.249944C36.9418 0.24425 37.041 0.24295 37.2333 0.246123C37.3936 0.248768 37.8746 0.254698 38.3021 0.2593C38.7297 0.263903 39.2782 0.27148 39.5211 0.276138C40.4971 0.294854 40.8693 0.30145 41.3761 0.309011C42.6438 0.327923 43.312 0.335458 44.0084 0.338695C44.3291 0.340186 44.7266 0.343938 44.8918 0.347031C45.057 0.350125 45.3034 0.352323 45.4394 0.351915C45.5755 0.351515 45.8458 0.354828 46.0401 0.359295C46.2344 0.363762 46.8638 0.369052 47.4387 0.371053C48.0136 0.373053 48.5542 0.37831 48.64 0.382736C48.7259 0.387163 48.921 0.392797 49.0737 0.395256C49.2264 0.397715 49.4013 0.401639 49.4624 0.403975C49.6713 0.411963 49.9974 0.417394 50.4744 0.420827C50.8945 0.42385 51.3026 0.431105 51.9054 0.446267C52.0026 0.44871 52.1377 0.451746 52.2058 0.453012C52.2738 0.454281 52.4487 0.457701 52.5944 0.460617C52.7402 0.463532 52.9866 0.468189 53.142 0.470968C53.2975 0.473745 53.4326 0.477163 53.4424 0.478562C53.4521 0.479962 53.5505 0.48335 53.661 0.486096C53.7716 0.488841 53.8853 0.493176 53.9137 0.495729C53.9422 0.498281 54.1062 0.501476 54.2781 0.502829C54.7504 0.506544 54.7498 0.506521 54.7498 0.519866C54.7498 0.526678 54.7666 0.532251 54.7872 0.532251C54.8078 0.532251 54.8131 0.527905 54.799 0.522592C54.7816 0.516005 54.7931 0.514692 54.8352 0.518463C54.8691 0.521506 54.9319 0.523995 54.9748 0.523995C55.0274 0.523995 55.0544 0.529362 55.058 0.540508C55.0644 0.560246 55.0452 0.561193 54.9744 0.544636C54.9004 0.527354 54.8177 0.52865 54.8425 0.5467C54.8548 0.555591 54.8509 0.5576 54.8326 0.551922C54.8123 0.545634 54.7127 0.544453 54.5201 0.548216C54.1885 0.554693 53.9382 0.55291 53.4778 0.540793C53.2931 0.535935 53.0546 0.529962 52.9478 0.52752C52.8409 0.525079 52.7349 0.521664 52.7122 0.51993C52.6895 0.518198 52.6617 0.522415 52.6504 0.529301C52.6352 0.538576 52.6016 0.540375 52.521 0.536239C52.3945 0.529743 52.3131 0.527273 51.9761 0.519693C51.8401 0.516633 51.7192 0.512763 51.7076 0.511093C51.6829 0.507535 51.2103 0.506949 50.5628 0.509677C50.1519 0.511406 49.8623 0.50668 49.6462 0.494721C49.5244 0.487983 48.6724 0.485068 48.6724 0.491391C48.6724 0.494642 48.7798 0.499986 48.9109 0.503267C49.0421 0.506548 49.1812 0.510698 49.2201 0.512489C49.4927 0.525055 50.2229 0.539138 50.8101 0.543157C50.9461 0.544089 51.0742 0.547366 51.0948 0.55044C51.129 0.555553 52.2109 0.575267 52.269 0.571836C52.2828 0.571018 52.4133 0.572949 52.5591 0.576126C52.7844 0.581037 53.3599 0.59092 53.5043 0.59236C53.5565 0.592878 53.5626 0.603537 53.5147 0.610456C53.4803 0.615421 53.214 0.616568 52.9729 0.612787C52.8993 0.611633 52.8262 0.605798 52.8104 0.599821C52.7891 0.591736 52.7283 0.590386 52.5732 0.594548C52.4586 0.597626 52.3541 0.601621 52.3411 0.603427C52.3281 0.605235 52.2933 0.601077 52.2639 0.594188C52.2344 0.587301 52.2019 0.584845 52.1916 0.588735C52.1716 0.59628 51.4585 0.593066 51.2518 0.5845C51.1837 0.58168 51.0639 0.578608 50.9853 0.577672C50.9068 0.576735 50.8074 0.571575 50.7645 0.566205C50.7021 0.558398 50.6864 0.55865 50.6864 0.567465C50.6864 0.573954 50.6392 0.57938 50.5716 0.580655C50.2922 0.585923 49.9012 0.585423 49.5911 0.579403C49.3681 0.575074 49.2729 0.575615 49.3074 0.581019C49.4467 0.602811 49.1854 0.613559 48.7784 0.602775C48.4177 0.593215 48.3532 0.592712 48.1973 0.598241C48.1168 0.601094 48.004 0.600485 47.9466 0.596888C47.7952 0.587414 47.0087 0.570635 46.6584 0.569411C46.4933 0.568834 46.2548 0.56582 46.1284 0.562715C46.0021 0.559611 45.7477 0.555164 45.5631 0.552833C45.3785 0.550502 44.9412 0.543133 44.5914 0.536456C44.2416 0.529779 43.7214 0.52182 43.4352 0.518769C42.969 0.513797 42.9127 0.514647 42.8925 0.526971C42.8732 0.538692 42.8118 0.540669 42.4763 0.54037C42.2599 0.54018 42.0112 0.543032 41.9238 0.546715L41.7648 0.553414L42.0298 0.56262C42.1755 0.567683 42.3504 0.571725 42.4184 0.5716C42.4865 0.571465 42.7647 0.577127 43.0368 0.584159C43.3088 0.59119 43.8256 0.601092 44.1851 0.606162C44.5446 0.611232 44.8741 0.617158 44.9174 0.619332C44.9606 0.621506 45.3184 0.626901 45.7124 0.631321C46.4205 0.639267 46.9167 0.645751 47.2944 0.651996C47.4013 0.653763 47.768 0.658971 48.1092 0.663571C48.4505 0.66817 48.7526 0.673588 48.7806 0.67561C48.8085 0.677632 48.8632 0.682096 48.9021 0.685531C48.941 0.688965 49.0339 0.692806 49.1086 0.694067C49.1833 0.69533 49.2629 0.702251 49.2854 0.709451C49.3179 0.719848 49.41 0.722982 49.7326 0.724677C49.956 0.725851 50.1547 0.729097 50.1741 0.731888C50.1935 0.73468 50.3287 0.739144 50.4744 0.741809C51.1712 0.754548 51.8677 0.764895 52.1881 0.767266C52.3824 0.768705 52.7958 0.776369 53.1068 0.784299C53.4177 0.792229 53.8152 0.79995 53.9901 0.801458C55.2006 0.81189 56.1674 0.825028 56.6754 0.837948C56.8503 0.842396 57.1569 0.848426 57.3567 0.851346C57.5565 0.854267 57.7283 0.859833 57.7386 0.863714C57.7488 0.867597 57.7046 0.871074 57.6403 0.871443C57.576 0.871815 57.4785 0.872874 57.4237 0.873806C57.3688 0.874736 57.317 0.872885 57.3086 0.86969C57.3001 0.866496 57.2344 0.867673 57.1626 0.872306C57.0898 0.877008 56.9299 0.878321 56.8008 0.875279C56.6735 0.87228 55.997 0.868373 55.2974 0.866595C54.5978 0.864818 53.7631 0.860964 53.4424 0.858033C52.8709 0.852806 52.7089 0.856003 53.0839 0.865109C53.1879 0.867636 53.2807 0.8715 53.2901 0.873697C53.3153 0.879585 53.186 0.894155 53.0789 0.897508C52.954 0.901416 52.9146 0.911875 53.0214 0.912771C53.0683 0.913166 53.3135 0.91695 53.5661 0.921183C53.8187 0.925415 54.3156 0.931073 54.6703 0.933757C55.2533 0.938167 55.3151 0.940022 55.3151 0.953106C55.3151 0.971266 55.4573 0.975561 56.3146 0.983282C56.6602 0.986395 56.9514 0.992077 56.9615 0.99591C56.9716 0.999741 57.0496 1.00288 57.1347 1.00288C57.425 1.00288 57.3437 1.02568 56.9871 1.04425C56.8864 1.04949 56.7513 1.0531 56.6868 1.05226C56.2564 1.04669 56.3693 1.06295 56.8521 1.07607C57.0464 1.08136 57.3167 1.08748 57.4527 1.08968C57.5888 1.09188 57.8352 1.09738 58.0004 1.10191C58.1656 1.10643 58.4995 1.11259 58.7424 1.11558C59.0415 1.11927 59.1955 1.12452 59.2194 1.13184C59.239 1.13784 59.365 1.14506 59.5021 1.14804C59.6381 1.151 59.7653 1.15795 59.7847 1.1635C59.8042 1.16904 59.9362 1.17608 60.0781 1.17915C60.2201 1.18221 60.3718 1.19018 60.4154 1.19684C60.4653 1.20449 60.6181 1.21031 60.8287 1.2126C61.2826 1.21754 61.6383 1.22685 61.658 1.2343C61.6788 1.24213 61.3694 1.25332 61.3218 1.24646C61.3023 1.24364 61.2864 1.24486 61.2864 1.24917C61.2864 1.25347 61.3421 1.25943 61.4101 1.26241C61.5444 1.2683 61.5697 1.27857 61.4719 1.28743C61.3565 1.29789 61.518 1.31446 61.8813 1.3294C62.1864 1.34196 62.3792 1.35747 62.2386 1.35816C62.1065 1.35881 62.3105 1.37336 62.5227 1.37844C62.6488 1.38145 62.7704 1.3875 62.7929 1.39188C62.8155 1.39626 62.9346 1.40363 63.0575 1.40825C63.399 1.4211 63.3953 1.43143 63.0469 1.43783C62.9167 1.44022 62.7977 1.4473 62.7619 1.45479C62.7117 1.46529 62.6503 1.46655 62.4263 1.46166C61.9707 1.45171 61.8805 1.45365 61.8121 1.47483C61.7786 1.4852 61.7581 1.49628 61.7665 1.49946C61.7749 1.50263 61.889 1.50783 62.0199 1.51101C62.1509 1.51419 62.274 1.51971 62.2934 1.52327C62.3128 1.52683 62.4043 1.53238 62.4966 1.53559C62.7499 1.5444 62.6979 1.55607 62.4053 1.55607C62.2628 1.55607 62.1341 1.55885 62.1194 1.56226C62.1047 1.56566 61.9565 1.56845 61.7901 1.56845C61.5797 1.56845 61.4829 1.57159 61.4723 1.57877C61.462 1.58584 61.4998 1.58911 61.5926 1.58914C61.6671 1.58915 61.7837 1.59259 61.8517 1.59676C61.9198 1.60092 62.11 1.60668 62.2745 1.60956C62.439 1.61243 62.5915 1.61826 62.6134 1.62251C62.6353 1.62675 62.6625 1.62807 62.6738 1.62542C62.6851 1.62278 62.7314 1.6237 62.7766 1.62747C62.84 1.63277 62.8024 1.63553 62.6114 1.63959C62.3861 1.64438 62.129 1.65643 61.9931 1.66858C61.9068 1.67629 62.041 1.68476 62.4436 1.69702C62.6428 1.70309 62.8057 1.71026 62.8057 1.71295C62.8057 1.71565 62.9091 1.71631 63.0354 1.71443C63.22 1.71169 63.2651 1.71339 63.2651 1.72308C63.2651 1.73805 63.1532 1.76252 63.0856 1.76235C63.0441 1.76225 63.0446 1.76084 63.0884 1.75422C63.1335 1.74741 63.132 1.7462 63.0784 1.74609C63.0438 1.74602 63.006 1.75173 62.9944 1.75878C62.9765 1.7697 62.9126 1.77095 62.5627 1.76728C62.1242 1.76267 62.0165 1.76813 62.0972 1.79087C62.2325 1.82897 62.7843 1.86982 63.1635 1.86982C63.3927 1.86982 63.5124 1.87983 63.5124 1.899C63.5124 1.9086 63.4558 1.91106 63.2385 1.9109C63.0879 1.9108 62.9011 1.90679 62.8234 1.90201C62.7456 1.89723 62.3794 1.89163 62.0095 1.88957C61.3553 1.88593 61.3368 1.88629 61.3316 1.90243C61.3264 1.91831 61.3696 1.92974 61.4454 1.93261C61.4648 1.93335 61.6172 1.93996 61.7841 1.94731C62.3302 1.97135 62.8151 1.986 63.3114 1.99344C63.7712 2.00034 63.928 2.0098 63.8805 2.02776C63.8697 2.03186 63.8456 2.03302 63.827 2.03034C63.8085 2.02766 63.7977 2.03038 63.803 2.0364C63.8084 2.04244 63.7852 2.04683 63.7512 2.0462C63.7174 2.04558 63.6974 2.04796 63.7068 2.05149C63.7161 2.05502 63.6698 2.06027 63.6038 2.06316C63.4612 2.06941 63.4274 2.0843 63.5004 2.10866C63.5394 2.12165 63.5435 2.12939 63.5157 2.1372C63.4702 2.15002 63.4999 2.1588 63.5889 2.1588C63.6246 2.1588 63.6537 2.16035 63.6537 2.16225C63.6537 2.16415 63.6642 2.17213 63.6772 2.17998C63.6987 2.1931 63.675 2.19382 63.3857 2.18879C63.2124 2.18578 63.0111 2.18111 62.9382 2.17841C62.8328 2.1745 62.8057 2.17613 62.8057 2.18638C62.8057 2.19346 62.7801 2.20261 62.7487 2.20671C62.6679 2.21728 62.7164 2.26486 62.8179 2.27442C62.8904 2.28125 62.8907 2.28165 62.8234 2.2827C62.7527 2.2838 62.7527 2.2838 62.8234 2.2909C62.8923 2.29782 62.796 2.30078 62.4347 2.30284C62.284 2.3037 62.1697 2.31482 62.1697 2.32861C62.1697 2.33598 62.1331 2.34048 62.0725 2.34055C62.0191 2.34063 61.9392 2.34293 61.895 2.34569C61.8197 2.35041 61.8186 2.35141 61.8774 2.36183C61.9118 2.36794 61.9835 2.37306 62.0367 2.3732C62.0899 2.37335 62.2383 2.38647 62.3665 2.40236C62.4958 2.41839 62.651 2.43126 62.7151 2.43126C62.9292 2.43126 63.2632 2.44177 63.2468 2.44799C63.2378 2.45139 63.2575 2.45366 63.2906 2.45303C63.3236 2.45241 63.3563 2.45831 63.3633 2.46613C63.3793 2.4843 63.1707 2.51562 63.0631 2.51119C63.0201 2.50942 62.9791 2.51202 62.972 2.51698C62.9553 2.52866 62.543 2.53196 62.378 2.52173C62.308 2.51739 61.9463 2.51283 61.5742 2.5116C60.9452 2.50952 60.7597 2.51374 60.9949 2.52477C61.0483 2.52727 61.1636 2.53311 61.251 2.53773C61.3385 2.54235 61.4776 2.5463 61.5602 2.54649C61.6428 2.54669 61.7104 2.55057 61.7104 2.55511C61.7104 2.55965 61.7353 2.56337 61.7657 2.56337C61.7961 2.56337 61.8537 2.56745 61.8935 2.57244C61.9653 2.58141 61.9652 2.58161 61.8824 2.59126C61.7374 2.60815 61.7824 2.62408 62.026 2.64217C62.1509 2.65146 62.2607 2.66447 62.2698 2.67107C62.2789 2.67768 62.3004 2.68524 62.3175 2.68787C62.3716 2.69616 62.3069 2.72164 62.2457 2.71615C62.2148 2.71338 62.1993 2.71339 62.2112 2.71618C62.2231 2.71897 62.1928 2.73061 62.1438 2.74206C62.0794 2.75711 62.0129 2.76325 61.9035 2.76424C61.8204 2.76499 61.7587 2.76803 61.7666 2.771C61.7745 2.77397 61.6287 2.77458 61.4427 2.77236C61.1723 2.76912 61.0927 2.77082 61.0453 2.78083C60.9795 2.79473 60.6325 2.80046 60.4515 2.79063C60.3824 2.78688 60.3319 2.78804 60.3169 2.79372C60.3037 2.79872 60.2554 2.80281 60.2095 2.80281C60.1032 2.80281 60.0144 2.81073 60.0144 2.82021C60.0144 2.82426 60.0374 2.82758 60.0656 2.82758C60.0938 2.82758 60.1304 2.83321 60.1468 2.8401C60.1654 2.84787 60.3036 2.85838 60.5108 2.8678C60.919 2.88636 61.2195 2.91474 61.1911 2.93204C61.1802 2.93868 61.1486 2.94209 61.121 2.93961C61.0933 2.93713 61.0796 2.93846 61.0904 2.94257C61.1013 2.94667 61.0685 2.96161 61.0175 2.97575C60.9494 2.99469 60.9062 3.00009 60.8539 2.99621C60.8145 2.99329 60.7917 2.99429 60.8027 2.99846C60.8137 3.0026 60.7673 3.00635 60.6997 3.0068C60.6322 3.00724 60.4653 3.014 60.3288 3.02181L60.0808 3.03601L60.1598 3.05565C60.2032 3.06644 60.2534 3.07528 60.2714 3.07528C60.2893 3.07528 60.3586 3.08133 60.4253 3.08872C60.5416 3.10162 60.5443 3.10296 60.4928 3.12132C60.459 3.13338 60.4523 3.14237 60.4747 3.1456C60.4942 3.14842 60.5 3.15458 60.4875 3.15929C60.4729 3.16482 60.4539 3.16389 60.4339 3.15666C60.4139 3.14939 60.3937 3.14842 60.3765 3.15388C60.362 3.15852 60.3023 3.16768 60.244 3.17425L60.138 3.1862L60.2499 3.189C60.3709 3.19204 60.4357 3.21323 60.3479 3.2211C60.3183 3.22376 60.2852 3.22388 60.2745 3.22137C60.2637 3.21886 60.202 3.22376 60.1373 3.23225C60.0726 3.24074 59.9593 3.25033 59.8854 3.25357C59.8116 3.25681 59.7297 3.26446 59.7036 3.27057C59.6416 3.28506 59.6173 3.28474 59.289 3.26512C58.9944 3.24751 58.9113 3.24915 58.7904 3.27497C58.7222 3.28953 58.6947 3.29025 58.5101 3.28228C58.2679 3.27182 57.8117 3.27048 57.8377 3.2803C57.8477 3.28408 57.9719 3.29179 58.1136 3.29744C58.4748 3.31183 58.5154 3.31492 58.4561 3.32349C58.3533 3.33834 58.8137 3.37339 59.2636 3.38497C59.3851 3.38809 59.4922 3.39356 59.5016 3.39712C59.511 3.40069 59.4854 3.4135 59.4446 3.42561C59.3762 3.44595 59.3749 3.44875 59.4275 3.46232C59.4588 3.47041 59.4844 3.47905 59.4844 3.48154C59.4844 3.49174 58.8861 3.47706 58.6894 3.46203C58.4065 3.44041 57.8338 3.42464 57.7809 3.437C57.7529 3.44354 57.7527 3.44916 57.78 3.45686C57.817 3.46727 57.8737 3.47172 58.3449 3.50122C58.4918 3.51042 58.5657 3.51921 58.5657 3.52749C58.5657 3.53794 58.524 3.53904 58.3035 3.53437C58.1356 3.53081 58.0333 3.53189 58.0188 3.53736C58.0064 3.54206 58.0157 3.5459 58.0395 3.5459C58.0633 3.5459 58.0746 3.54782 58.0645 3.55017C58.0408 3.55571 57.5404 3.53117 57.4907 3.52203C57.4515 3.51485 56.9356 3.49628 56.8255 3.49809C56.7915 3.49865 56.7637 3.50376 56.7637 3.50945C56.7637 3.51513 56.7555 3.52479 56.7454 3.53091C56.7281 3.54148 57.1596 3.56286 57.9031 3.58827C58.0148 3.59208 58.1639 3.60083 58.2343 3.60771C58.3047 3.61458 58.4121 3.62023 58.4728 3.62026C58.6329 3.62033 58.8627 3.63667 58.8256 3.64535C58.8084 3.64937 58.5932 3.65372 58.3474 3.65501C58.1016 3.6563 57.9031 3.65799 57.9064 3.65876C57.9096 3.65953 57.9908 3.66738 58.0868 3.67619C58.2541 3.69154 58.2581 3.69264 58.1817 3.7022C58.1218 3.70968 58.0579 3.70997 57.9257 3.70334C57.7107 3.69257 57.6824 3.69243 57.6824 3.70212C57.6824 3.7063 57.7299 3.71216 57.788 3.71514C57.9811 3.72505 57.9393 3.7358 57.7076 3.7358C57.5727 3.7358 57.4363 3.74104 57.3701 3.74876C57.303 3.75657 57.2278 3.75942 57.1807 3.75592C57.0799 3.74844 55.4209 3.74559 55.4403 3.75293C55.4814 3.76847 55.0179 3.76839 54.6224 3.75278C53.8214 3.72118 53.14 3.70323 52.7004 3.70213C52.4575 3.70152 52.0918 3.69592 51.8877 3.68968C51.6837 3.68344 51.3202 3.6745 51.0799 3.66982C50.8397 3.66514 50.633 3.65988 50.6206 3.65813C50.6082 3.65638 50.4788 3.65258 50.3331 3.64968C50.1873 3.64679 50.0124 3.64284 49.9444 3.64092C49.8028 3.63692 49.1581 3.62852 48.6901 3.62458C48.3515 3.62172 47.837 3.61413 47.4887 3.60685C47.3721 3.60441 46.919 3.60083 46.4817 3.59889C46.0445 3.59695 45.5277 3.59232 45.3334 3.5886C45.1391 3.58488 44.6016 3.5822 44.139 3.58265C43.4395 3.58334 43.2924 3.58552 43.2645 3.59565C43.2361 3.60597 43.2263 3.60607 43.1993 3.59629C43.1782 3.58862 43.1327 3.5864 43.0631 3.58965C43.0056 3.59235 42.9414 3.59048 42.92 3.5855C42.8988 3.58053 42.8289 3.57568 42.7647 3.57472C42.7006 3.57376 42.6163 3.57078 42.5774 3.56809C42.3657 3.55344 42.145 3.54918 42.0562 3.55802C41.9848 3.56512 41.8067 3.55673 41.8313 3.54743C41.8404 3.544 41.6701 3.5402 41.4529 3.53898C40.8681 3.53569 40.8075 3.53419 40.7413 3.52136C40.6875 3.51092 40.6821 3.5114 40.6928 3.52569C40.7009 3.53659 40.6877 3.54082 40.6517 3.53883C40.6226 3.53722 40.563 3.53582 40.5192 3.53573C40.4755 3.53564 40.4397 3.53272 40.4397 3.52923C40.4397 3.52574 40.4141 3.52059 40.3828 3.51778C40.3415 3.51407 40.3317 3.51621 40.3471 3.52558C40.3617 3.53448 40.3547 3.53647 40.3245 3.53199C40.3004 3.52842 40.1297 3.52433 39.9451 3.5229C39.5568 3.5199 39.6145 3.51994 37.7898 3.52145C37.0221 3.52208 36.2958 3.51991 36.1756 3.51663C36.0555 3.51335 35.9304 3.51307 35.8978 3.516C35.8376 3.52139 34.6834 3.53204 34.3288 3.53047C34.0514 3.52924 33.7369 3.56734 33.9118 3.58097C33.9379 3.583 33.9199 3.58884 33.8677 3.59528C33.8191 3.60126 33.7706 3.60929 33.7598 3.61313C33.7208 3.62698 33.4208 3.63471 33.3356 3.62405C33.2819 3.61734 33.1396 3.61493 32.9159 3.61694C32.7298 3.61861 32.1183 3.62195 31.5572 3.62434C30.996 3.62674 30.4983 3.63096 30.4511 3.63373C30.4039 3.6365 30.2033 3.63933 30.0054 3.64003C29.8074 3.64072 29.6136 3.64547 29.5748 3.65057C29.5052 3.6597 29.1775 3.67469 29.1227 3.67125C29.0551 3.66701 28.9296 3.66808 28.8151 3.67386C28.7471 3.6773 28.6596 3.6795 28.6208 3.67873C28.5819 3.67797 28.5183 3.6767 28.4794 3.67589C28.4406 3.67509 28.2577 3.6788 28.0731 3.68413C27.8885 3.68947 27.6687 3.69375 27.5847 3.69366C27.5007 3.69357 27.4132 3.697 27.3904 3.7013C27.3675 3.7056 27.2971 3.71169 27.2339 3.71485C27.14 3.71955 27.1191 3.71805 27.1191 3.70662C27.1191 3.69424 27.0899 3.69331 26.8629 3.69849C26.7221 3.7017 26.3524 3.70519 26.0414 3.70623C25.7305 3.70728 25.3905 3.7125 25.2858 3.71783C25.1811 3.72317 25.0877 3.72753 25.0783 3.72753C25.0689 3.72753 25.0809 3.73311 25.1051 3.73992C25.1293 3.74673 25.2028 3.7523 25.2684 3.7523C25.3341 3.7523 25.3878 3.75386 25.3878 3.75575C25.3878 3.75765 25.3974 3.76509 25.4092 3.77227C25.4386 3.79018 25.3392 3.7893 25.2606 3.77095C25.2162 3.76056 25.1951 3.75943 25.1844 3.76688C25.1764 3.77254 25.1552 3.77507 25.1374 3.77251C25.1197 3.76994 25.1051 3.77085 25.1051 3.77452C25.1051 3.7782 25.0693 3.78166 25.0256 3.78221C24.9819 3.78277 24.7394 3.78743 24.4868 3.79257C24.2342 3.79771 23.7254 3.8034 23.3561 3.80522C22.9869 3.80704 22.645 3.81057 22.5965 3.81306C22.4318 3.82149 21.5268 3.84106 21.0418 3.84666C20.1431 3.85705 19.4618 3.88708 19.3213 3.9225C19.2774 3.93359 19.1999 3.94253 19.1443 3.94295C18.6871 3.94643 18.0521 3.95755 17.7735 3.96698C17.6569 3.97092 17.4523 3.97643 17.3189 3.97921C17.1855 3.98199 16.9965 3.98781 16.8989 3.99214C16.8013 3.99646 16.7157 4 16.7087 4C16.7016 4 16.6958 3.99049 16.6958 3.97887L16.6958 3.97888ZM16.6958 3.90376C16.6958 3.89473 16.6802 3.89405 16.6265 3.90077C16.585 3.90595 16.5654 3.91446 16.5776 3.92191C16.5934 3.93152 16.6093 3.93221 16.6469 3.9249C16.6738 3.91969 16.6958 3.91018 16.6958 3.90376ZM22.6495 3.78096C22.7877 3.76937 22.7842 3.7692 22.4905 3.77323C21.8178 3.78245 21.6071 3.78712 21.6071 3.79281C21.6071 3.80358 22.5008 3.79342 22.6495 3.78096ZM6.23718 3.68125C6.23718 3.67947 6.21333 3.67801 6.18418 3.67801C6.15503 3.67801 6.13118 3.68161 6.13118 3.68601C6.13118 3.6904 6.15503 3.69186 6.18418 3.68925C6.21333 3.68664 6.23718 3.68304 6.23718 3.68125ZM8.79884 3.65324C8.81117 3.64857 8.78223 3.64498 8.73234 3.64498C8.68376 3.64498 8.63418 3.6487 8.62217 3.65324C8.60984 3.6579 8.63878 3.66149 8.68867 3.66149C8.73725 3.66149 8.78683 3.65778 8.79884 3.65324ZM7.12051 3.61099C7.12051 3.60247 7.0782 3.60167 6.99973 3.60871C6.91107 3.61666 6.93487 3.62658 7.03218 3.62223C7.08076 3.62006 7.12051 3.615 7.12051 3.61099ZM27.1133 3.60965C27.2339 3.6018 27.2504 3.59879 27.191 3.5955C27.0968 3.59027 25.9726 3.60131 25.3701 3.61337C25.2064 3.61665 26.4707 3.62465 26.7305 3.62198C26.8568 3.62068 27.0291 3.61513 27.1133 3.60965ZM28.3381 3.58424C28.377 3.58209 28.3054 3.58063 28.1791 3.581C27.8776 3.58189 27.7583 3.58947 27.9495 3.5956C28.0272 3.59809 28.1305 3.59743 28.1791 3.59414C28.2277 3.59084 28.2993 3.58639 28.3381 3.58424V3.58424ZM5.78957 3.58666C5.86232 3.58617 5.86185 3.58574 5.78015 3.57811C5.68382 3.56912 5.60118 3.57359 5.60118 3.58781C5.60118 3.59299 5.62628 3.59496 5.65707 3.5922C5.68781 3.58944 5.74743 3.58695 5.78957 3.58666ZM28.8689 3.57737C28.8784 3.57516 28.8155 3.57273 28.7292 3.57197C28.6428 3.5712 28.5612 3.57473 28.5478 3.57981C28.5306 3.5863 28.5722 3.5879 28.6876 3.58521C28.7779 3.58311 28.8595 3.57958 28.8689 3.57737ZM56.4987 3.47985C56.5122 3.47474 56.4559 3.47197 56.3506 3.47257C56.1998 3.47344 56.1926 3.47426 56.2867 3.47985C56.4413 3.48904 56.4744 3.48904 56.4987 3.47985ZM2.03915 3.35862C2.01364 3.35623 1.98317 3.35653 1.97143 3.35927C1.95968 3.36202 1.98055 3.36397 2.0178 3.36361C2.05896 3.36321 2.06733 3.36126 2.03915 3.35862V3.35862ZM2.45652 3.34775C2.52753 3.34243 2.531 3.34109 2.47419 3.34089C2.43532 3.34076 2.37172 3.34384 2.33286 3.34775C2.24282 3.35679 2.33571 3.35679 2.45652 3.34775ZM2.93063 3.35099C2.96137 3.34823 2.98652 3.3393 2.98652 3.33114C2.98652 3.31849 2.9643 3.31694 2.83635 3.32068C2.674 3.32542 2.56805 3.33949 2.6947 3.33949C2.73631 3.33949 2.78018 3.34321 2.79219 3.34775C2.81732 3.35725 2.85182 3.35806 2.93063 3.35099ZM60.3324 3.20739C60.3324 3.20284 60.3045 3.19919 60.2705 3.19925C60.2177 3.19936 60.2164 3.20054 60.2617 3.20739C60.3284 3.21746 60.3324 3.21746 60.3324 3.20739ZM3.80581 2.87148C3.7803 2.8691 3.74983 2.86939 3.73809 2.87213C3.72635 2.87488 3.74722 2.87683 3.78446 2.87647C3.82562 2.87607 3.834 2.87412 3.80581 2.87148V2.87148ZM3.51652 2.84739C3.51652 2.83394 3.41825 2.83242 3.28915 2.84389C3.14861 2.85638 3.18197 2.86516 3.35752 2.8619C3.46419 2.85992 3.51652 2.85514 3.51652 2.84739ZM4.17282 2.85335C4.13754 2.84001 4.01118 2.83661 4.01118 2.849C4.01118 2.85595 4.04746 2.86061 4.1016 2.86061C4.15133 2.86061 4.18338 2.85734 4.17282 2.85335ZM3.90518 2.8441C3.94461 2.83814 3.92424 2.83606 3.82568 2.83597C3.75281 2.83589 3.69319 2.83956 3.69319 2.8441C3.69319 2.85461 3.83555 2.85461 3.90518 2.8441ZM62.8057 1.87808C62.8057 1.87354 62.7898 1.86982 62.7704 1.86982C62.7509 1.86982 62.735 1.87354 62.735 1.87808C62.735 1.88262 62.7509 1.88634 62.7704 1.88634C62.7898 1.88634 62.8057 1.88262 62.8057 1.87808ZM63.0619 1.72399C63.0376 1.7217 62.9978 1.7217 62.9735 1.72399C62.9492 1.72628 62.9691 1.72816 63.0177 1.72816C63.0663 1.72816 63.0862 1.72628 63.0619 1.72399ZM62.5319 1.62456C62.4881 1.62259 62.4166 1.62259 62.3729 1.62456C62.3291 1.62652 62.3649 1.62813 62.4524 1.62813C62.5398 1.62813 62.5756 1.62652 62.5319 1.62456ZM60.8977 1.5579C60.8977 1.55437 60.7665 1.54707 60.6062 1.54168C60.4459 1.5363 60.2764 1.52932 60.2297 1.52617C60.1769 1.52262 60.1528 1.52354 60.1663 1.52862C60.1781 1.53311 60.3277 1.54151 60.4986 1.54729C60.6695 1.55307 60.8253 1.55897 60.8447 1.56041C60.8641 1.56185 60.884 1.56332 60.8889 1.56368C60.8937 1.56404 60.8977 1.56144 60.8977 1.5579ZM9.36417 1.48176C9.42727 1.47543 9.42465 1.47461 9.33976 1.47409C9.28746 1.47377 9.23485 1.47722 9.22284 1.48176C9.19677 1.49162 9.26601 1.49162 9.36417 1.48176ZM60.6504 1.43339C60.6504 1.42949 60.4908 1.42206 60.2958 1.41688C59.8565 1.40521 59.7776 1.40497 59.8225 1.41546C59.8414 1.41987 60.0314 1.42678 60.2447 1.43082C60.4581 1.43487 60.6367 1.43869 60.6415 1.43933C60.6464 1.43996 60.6504 1.43729 60.6504 1.43339V1.43339ZM7.38187 1.33452C7.39188 1.33074 7.37692 1.32764 7.34862 1.32764C7.32033 1.32764 7.29718 1.33074 7.29718 1.33452C7.29718 1.33831 7.31214 1.3414 7.33042 1.3414C7.34871 1.3414 7.37186 1.33831 7.38187 1.33452ZM12.1091 1.31925C12.0836 1.31687 12.0531 1.31716 12.0414 1.3199C12.0297 1.32264 12.0505 1.3246 12.0878 1.32424C12.1289 1.32384 12.1373 1.32188 12.1091 1.31925V1.31925ZM6.62584 1.30838C6.62584 1.30384 6.59802 1.30018 6.56401 1.30025C6.51117 1.30035 6.50988 1.30154 6.55518 1.30838C6.62186 1.31845 6.62584 1.31845 6.62584 1.30838ZM6.76718 1.29551C6.76718 1.2935 6.75128 1.29186 6.73184 1.29186C6.71241 1.29186 6.69651 1.2958 6.69651 1.30061C6.69651 1.30542 6.71241 1.30706 6.73184 1.30425C6.75128 1.30144 6.76718 1.29751 6.76718 1.29551ZM8.78117 1.23802C8.82975 1.23484 8.98081 1.22915 9.11684 1.22536C9.25287 1.22157 9.41982 1.21454 9.48784 1.20974C9.55585 1.20494 9.6115 1.20132 9.6115 1.2017C9.6115 1.20487 9.85353 1.1872 9.97367 1.17526C10.156 1.15715 10.1675 1.14325 10.0002 1.14325C9.9138 1.14325 9.8765 1.13951 9.8765 1.13086C9.8765 1.11816 10.0346 1.11314 10.2971 1.11751C10.4115 1.11941 10.7378 1.10518 10.8125 1.09503C10.8683 1.08746 10.69 1.07891 10.4574 1.07802C10.3061 1.07743 10.1771 1.08325 10.0178 1.09783C9.89387 1.10919 9.75968 1.11853 9.71964 1.1186C9.66165 1.11871 9.65728 1.12027 9.69815 1.12631C9.72637 1.13049 9.76215 1.13207 9.77765 1.12983C9.79315 1.12759 9.80584 1.12927 9.80584 1.13356C9.80584 1.14096 9.72849 1.14618 9.45862 1.157C9.39397 1.15959 9.33249 1.16694 9.322 1.17333C9.3064 1.18283 9.2928 1.18303 9.24743 1.17442C9.20096 1.1656 9.19532 1.166 9.21275 1.1769C9.22797 1.18641 9.21313 1.18954 9.15753 1.18853C9.11572 1.18777 9.02874 1.19052 8.96426 1.19464C8.88296 1.19983 8.83151 1.19912 8.79643 1.19232C8.76798 1.1868 8.74584 1.18607 8.74584 1.19065C8.74584 1.19976 8.47662 1.22581 8.38249 1.22581C8.34913 1.22581 8.32184 1.23089 8.32184 1.2371C8.32184 1.2455 8.36922 1.2478 8.50734 1.24609C8.60936 1.24482 8.73259 1.24119 8.78117 1.23802V1.23802ZM10.2347 0.938584C10.2092 0.936599 10.1715 0.938898 10.151 0.943698C10.1248 0.949825 10.1386 0.950899 10.1973 0.947308C10.2451 0.944388 10.2611 0.940646 10.2347 0.938584ZM52.9123 0.90587C52.9123 0.902464 52.864 0.898888 52.8051 0.897923C52.7437 0.896918 52.7068 0.899566 52.7189 0.904115C52.7435 0.913429 52.9124 0.914962 52.9123 0.90587ZM10.3358 0.853856L10.4242 0.85322L10.3418 0.845501C10.2486 0.83678 10.0885 0.843498 10.0885 0.856124C10.0885 0.860728 10.124 0.862223 10.168 0.85947C10.2117 0.856732 10.2873 0.854206 10.3358 0.853856ZM52.6297 0.855643C52.6297 0.851859 52.6059 0.848762 52.5767 0.848762C52.5476 0.848762 52.5237 0.851859 52.5237 0.855643C52.5237 0.859427 52.5476 0.862523 52.5767 0.862523C52.6059 0.862523 52.6297 0.859427 52.6297 0.855643ZM52.7777 0.856882C52.7522 0.854497 52.7217 0.854791 52.71 0.857533C52.6982 0.860278 52.7191 0.862229 52.7563 0.86187C52.7975 0.861475 52.8059 0.859517 52.7777 0.856882V0.856882ZM10.9431 0.84037C10.9176 0.837984 10.8871 0.838278 10.8754 0.84102C10.8637 0.843764 10.8845 0.845716 10.9218 0.845357C10.9629 0.844962 10.9713 0.843004 10.9431 0.840369V0.84037ZM6.97918 0.829496C6.97918 0.824956 6.96328 0.82124 6.94384 0.82124C6.92441 0.82124 6.90851 0.824956 6.90851 0.829496C6.90851 0.834038 6.92441 0.837753 6.94384 0.837753C6.96328 0.837753 6.97918 0.834038 6.97918 0.829496ZM7.89784 0.807845C7.89784 0.798594 7.83148 0.806705 7.81248 0.81828C7.79387 0.829611 7.79904 0.830122 7.84403 0.821396C7.87363 0.815658 7.89784 0.809559 7.89784 0.807845ZM8.25117 0.808856C8.25117 0.802044 8.24492 0.796471 8.23729 0.796471C8.22965 0.796471 8.21425 0.802044 8.20306 0.808856C8.19188 0.815667 8.19812 0.82124 8.21695 0.82124C8.23577 0.82124 8.25117 0.815667 8.25117 0.808856ZM54.509 0.526621C54.4835 0.524235 54.453 0.52453 54.4413 0.527271C54.4296 0.530015 54.4504 0.531967 54.4877 0.531608C54.5288 0.531213 54.5372 0.529256 54.509 0.52662V0.526621ZM21.9766 0.359442C21.9878 0.355215 21.9825 0.349663 21.9648 0.347105C21.947 0.344546 21.9234 0.348006 21.9123 0.354791C21.8903 0.368168 21.9434 0.372005 21.9766 0.359442ZM5.2055 3.903C5.18517 3.89732 5.1824 3.89256 5.19936 3.89243C5.21631 3.89229 5.20045 3.88814 5.16411 3.88321C5.07089 3.87055 5.15348 3.8597 5.33618 3.8606C5.43161 3.86107 5.45456 3.86304 5.40685 3.86667C5.33953 3.87178 5.28934 3.8928 5.34501 3.89257C5.44876 3.89212 5.52368 3.88133 5.50752 3.86916C5.49174 3.85727 5.49595 3.85738 5.54036 3.86997C5.60071 3.88709 5.86958 3.89024 5.89282 3.8741C5.90463 3.8659 5.91899 3.86596 5.96262 3.87437C6.0314 3.88764 6.07199 3.91986 6.01357 3.91482C5.9908 3.91286 5.97733 3.90625 5.98363 3.90014C5.99163 3.89236 5.97542 3.89317 5.92969 3.90284C5.87747 3.91389 5.80168 3.91633 5.55339 3.915C5.35594 3.91393 5.22898 3.90955 5.2055 3.903L5.2055 3.903ZM4.72047 3.8848C4.6734 3.878 4.69604 3.85965 4.75149 3.85965C4.79179 3.85965 4.82718 3.88297 4.79412 3.88774C4.77946 3.88986 4.74632 3.88853 4.72047 3.8848ZM5.46805 3.81837C5.42897 3.80375 5.43305 3.80171 5.50371 3.8006C5.5476 3.79991 5.60736 3.79873 5.63651 3.79799C5.73077 3.79559 5.7485 3.80314 5.68634 3.81919C5.60781 3.83947 5.52358 3.83915 5.46805 3.81837ZM26.8718 3.75693C26.8718 3.75493 26.8877 3.75099 26.9071 3.74819C26.9266 3.74538 26.9425 3.74702 26.9425 3.75183C26.9425 3.75664 26.9266 3.76057 26.9071 3.76057C26.8877 3.76057 26.8718 3.75893 26.8718 3.75693ZM27.2864 3.75129C27.3103 3.74565 27.3388 3.74311 27.3497 3.74565C27.3606 3.7482 27.341 3.75281 27.3061 3.75591C27.2558 3.76039 27.2517 3.75945 27.2864 3.75129ZM8.32184 3.72856C8.32184 3.72457 8.34636 3.71656 8.37634 3.71074C8.41871 3.70253 8.44027 3.70238 8.47321 3.71008C8.50615 3.71777 8.50385 3.72171 8.46288 3.72776C8.39625 3.73761 8.32184 3.73803 8.32184 3.72856V3.72856ZM48.2131 3.65324C48.2131 3.6487 48.236 3.64498 48.264 3.64498C48.292 3.64498 48.3247 3.6487 48.3367 3.65324C48.3487 3.65778 48.3258 3.66149 48.2858 3.66149C48.2458 3.66149 48.2131 3.65778 48.2131 3.65324ZM47.6124 3.64447C47.6124 3.63507 47.7073 3.63411 47.7315 3.64327C47.7411 3.64687 47.7181 3.65035 47.6806 3.65101C47.6431 3.65167 47.6124 3.64873 47.6124 3.64447ZM12.5722 3.63115C12.5404 3.61178 12.5889 3.60894 12.711 3.62301C12.7747 3.63035 12.8109 3.63691 12.7915 3.63759C12.6426 3.64282 12.5888 3.64124 12.5722 3.63115ZM43.1251 3.61195C43.1251 3.60741 43.1321 3.6037 43.1407 3.6037C43.1492 3.6037 43.1661 3.60741 43.1781 3.61195C43.1901 3.6165 43.1831 3.62021 43.1625 3.62021C43.1419 3.62021 43.1251 3.6165 43.1251 3.61195ZM42.6157 3.60481C42.6005 3.59905 42.5976 3.59211 42.6092 3.58939C42.6408 3.582 42.6753 3.59287 42.6582 3.60484C42.6463 3.61323 42.6379 3.61322 42.6157 3.60479V3.60481ZM42.7453 3.60649C42.6729 3.59967 42.6952 3.58837 42.7718 3.59305C42.8106 3.59542 42.8424 3.60065 42.8424 3.60466C42.8424 3.61253 42.8149 3.61305 42.7453 3.60649ZM59.6846 3.56517C59.6439 3.55567 59.6589 3.5459 59.714 3.5459C59.7432 3.5459 59.767 3.55148 59.767 3.55829C59.767 3.57118 59.7253 3.57467 59.6846 3.56517ZM15.8347 3.51459C15.8252 3.51099 15.8484 3.5075 15.8864 3.50683C15.9243 3.50617 15.9461 3.50911 15.9348 3.51338C15.9098 3.52284 15.8582 3.52347 15.8347 3.51459ZM16.1532 3.50041C16.1643 3.49364 16.1995 3.48782 16.2314 3.48747C16.2634 3.48712 16.361 3.48516 16.4485 3.48312C16.5632 3.48043 16.5927 3.48173 16.5545 3.48775C16.5108 3.49465 16.5102 3.49613 16.5515 3.49624C16.5791 3.49631 16.5917 3.49868 16.5796 3.50151C16.5675 3.50434 16.462 3.50802 16.3453 3.50968C16.1684 3.5122 16.1364 3.51066 16.1532 3.50041ZM1.7337 3.48042C1.70757 3.47054 1.77404 3.46075 1.8211 3.46755C1.86062 3.47326 1.83467 3.48811 1.78519 3.48811C1.76805 3.48811 1.74488 3.48465 1.7337 3.48042ZM2.06786 3.26567C2.06786 3.26139 2.08357 3.25563 2.10279 3.25285C2.12281 3.24996 2.12874 3.25328 2.11667 3.26062C2.09318 3.27493 2.06786 3.27754 2.06786 3.26567ZM2.32697 3.26142C2.32697 3.2548 2.34048 3.25134 2.35699 3.25373C2.3735 3.25611 2.37786 3.26152 2.36668 3.26575C2.33811 3.27655 2.32697 3.27534 2.32697 3.26142ZM63.901 2.18357C63.8719 2.17917 63.8639 2.17557 63.8834 2.17557C63.9028 2.17557 63.9426 2.17917 63.9717 2.18357C64.0008 2.18797 64.0088 2.19157 63.9894 2.19157C63.9699 2.19157 63.9302 2.18797 63.901 2.18357ZM5.84851 1.57083C5.84851 1.56725 5.88031 1.56433 5.91918 1.56433C5.95805 1.56433 5.98985 1.56781 5.98985 1.57207C5.98985 1.57633 5.95805 1.57926 5.91918 1.57857C5.88031 1.57789 5.84851 1.5744 5.84851 1.57083ZM7.32815 1.44957L7.2453 1.4339L7.45674 1.42734C7.57303 1.42373 7.75163 1.42057 7.85363 1.42031C7.95563 1.42005 8.03911 1.41731 8.03913 1.41422C8.03917 1.4078 8.24962 1.4206 8.28247 1.42903C8.29441 1.43209 8.25512 1.43242 8.19517 1.42976C8.12807 1.42678 8.04658 1.42982 7.98317 1.43765C7.92652 1.44465 7.7967 1.45073 7.69467 1.45117C7.59265 1.45161 7.50917 1.45496 7.50917 1.45861C7.50917 1.47045 7.41312 1.46565 7.32815 1.44957V1.44957ZM6.88275 1.45201C6.89449 1.44926 6.92496 1.44897 6.95047 1.45135C6.97865 1.45399 6.97028 1.45595 6.92912 1.45634C6.89187 1.4567 6.87101 1.45475 6.88275 1.45201V1.45201ZM6.23997 1.33796C6.23844 1.32926 6.24678 1.32438 6.25852 1.32712C6.27027 1.32987 6.27152 1.33699 6.26132 1.34295C6.25004 1.34954 6.24166 1.34758 6.23997 1.33796H6.23997ZM7.20495 1.26857C7.21482 1.26483 7.19035 1.25527 7.15058 1.24732C7.07944 1.23308 7.08178 1.23246 7.2969 1.20869C7.55599 1.18006 7.57984 1.17941 7.57984 1.20104C7.57984 1.21121 7.55611 1.2176 7.51801 1.21768C7.46789 1.21778 7.46565 1.21921 7.50616 1.2252C7.53366 1.22927 7.58533 1.23128 7.621 1.22968C7.65666 1.22807 7.68584 1.23054 7.68584 1.23517C7.68584 1.2398 7.63417 1.24293 7.57101 1.24212C7.50785 1.24131 7.42438 1.24108 7.38551 1.24162C7.32664 1.24242 7.32369 1.24391 7.36784 1.25058C7.41314 1.25742 7.41185 1.2586 7.35901 1.25871C7.325 1.25879 7.29718 1.26255 7.29718 1.2671C7.29718 1.27164 7.27239 1.27535 7.24209 1.27535C7.21179 1.27535 7.19508 1.2723 7.20495 1.26857V1.26857ZM7.65674 1.20194C7.62121 1.19681 7.6226 1.19337 7.66336 1.18546C7.72053 1.17437 7.76609 1.18406 7.72674 1.19893C7.71272 1.20424 7.68183 1.20556 7.65674 1.20194ZM6.43151 0.854265C6.4195 0.849724 6.43353 0.846008 6.46267 0.846008C6.49182 0.846008 6.5255 0.849724 6.53751 0.854265C6.54952 0.858806 6.5355 0.862522 6.50635 0.862522C6.4772 0.862522 6.44352 0.858806 6.43151 0.854265ZM7.15517 0.817299C7.20606 0.802973 7.22651 0.801482 7.22651 0.812099C7.22651 0.816155 7.20041 0.821812 7.16851 0.824673C7.12002 0.829021 7.11783 0.827813 7.15517 0.817299ZM57.0917 0.684057C57.1331 0.674378 57.3593 0.666794 57.405 0.673553C57.4312 0.677442 57.4368 0.681051 57.4174 0.681571C57.2272 0.686666 57.0756 0.687823 57.0917 0.684057ZM56.8772 0.673871C56.8478 0.669516 56.8698 0.667117 56.939 0.667117C56.9981 0.667117 57.0464 0.670213 57.0464 0.673997C57.0464 0.682785 56.9367 0.682703 56.8772 0.673863V0.673871ZM55.9687 0.66333C55.8175 0.655417 55.4503 0.649742 54.7642 0.644714C54.5292 0.642991 54.303 0.637331 54.2614 0.632136C54.2162 0.626482 54.0579 0.623606 53.8671 0.624971C53.6918 0.626227 53.5484 0.62641 53.5484 0.625373C53.5484 0.6225 53.754 0.598306 53.7784 0.598306C53.7902 0.598306 53.7901 0.602022 53.7781 0.606562C53.7653 0.61138 53.8013 0.614819 53.8643 0.614819C53.9238 0.614819 53.9724 0.611104 53.9724 0.606562C53.9724 0.602022 53.9892 0.598306 54.0098 0.598306C54.0304 0.598306 54.0353 0.60295 54.0207 0.608626C54.0011 0.616258 54.0074 0.616769 54.0451 0.610586C54.0731 0.605987 54.1279 0.602651 54.1667 0.603172C54.2056 0.603691 54.3218 0.604668 54.425 0.605341C54.5282 0.606012 54.6052 0.609349 54.5962 0.612755C54.5871 0.61616 54.6776 0.618403 54.7972 0.617739C54.9169 0.617067 55.0426 0.619992 55.0766 0.624222C55.1178 0.629356 55.1384 0.628909 55.1384 0.62288C55.1384 0.617911 55.1576 0.616621 55.1811 0.620014C55.2046 0.623407 55.3596 0.627196 55.5256 0.628435C55.6916 0.629673 55.8274 0.631127 55.8274 0.631666C55.8274 0.632205 55.9069 0.633848 56.0041 0.63532C56.1012 0.636792 56.1847 0.638818 56.1896 0.639825C56.1979 0.641541 56.2343 0.644043 56.2956 0.647107C56.3237 0.648513 56.1578 0.672493 56.1277 0.671374C56.118 0.671009 56.0465 0.667391 55.9687 0.663325L55.9687 0.66333ZM54.5377 0.622049C54.5377 0.618076 54.5069 0.614825 54.4691 0.614825C54.4314 0.614825 54.392 0.618076 54.3815 0.622049C54.3709 0.626023 54.4018 0.629274 54.45 0.629274C54.4983 0.629274 54.5377 0.626023 54.5377 0.622049ZM56.4277 0.598177C56.4155 0.593562 56.3907 0.591923 56.3726 0.594536C56.3545 0.597149 56.3397 0.595571 56.3397 0.59103C56.3397 0.575044 56.3967 0.574791 56.4389 0.590592C56.4624 0.59938 56.4745 0.60657 56.4658 0.60657C56.457 0.60657 56.4399 0.602794 56.4277 0.59818V0.598177ZM55.6713 0.565974C55.6341 0.55727 55.5962 0.551872 55.5872 0.553977C55.5782 0.556084 55.4934 0.559051 55.3988 0.560574C55.2349 0.563212 55.0316 0.546202 55.0831 0.534159C55.1244 0.52452 55.3684 0.526776 55.4217 0.537289C55.4763 0.548053 55.5757 0.548411 55.6203 0.537998C55.6577 0.529236 55.838 0.531158 55.8629 0.540585C55.8969 0.553418 55.8464 0.581794 55.7897 0.581794C55.7618 0.581794 55.7086 0.574673 55.6713 0.565969V0.565974ZM56.036 0.572267C56.021 0.566576 56.0263 0.564966 56.0492 0.568272C56.0702 0.571319 56.0975 0.570035 56.1097 0.56542C56.1426 0.552972 56.1866 0.555256 56.1866 0.569414C56.1866 0.583958 56.0726 0.586116 56.036 0.572267ZM14.7267 0.510759C14.7385 0.508015 14.7689 0.507721 14.7944 0.510108C14.8226 0.512743 14.8143 0.5147 14.7731 0.515096C14.7359 0.515454 14.715 0.513504 14.7267 0.51076V0.510759ZM21.8545 0.276306C21.8545 0.271765 21.8615 0.26805 21.8701 0.26805C21.8786 0.26805 21.8955 0.271765 21.9075 0.276306C21.9195 0.280847 21.9125 0.284563 21.8919 0.284563C21.8713 0.284563 21.8545 0.280847 21.8545 0.276306ZM22.6784 0.277142C22.6213 0.267349 22.635 0.253277 22.6978 0.257115C22.7378 0.259563 22.7635 0.256195 22.7672 0.248012C22.7705 0.240868 22.7758 0.22945 22.779 0.222639C22.7823 0.215827 22.8141 0.20979 22.8497 0.209222C22.8853 0.208652 22.9264 0.207423 22.941 0.206485C22.9555 0.205546 23.0152 0.201784 23.0735 0.198122C23.2031 0.18998 23.2735 0.177817 23.2477 0.168036C23.237 0.164009 23.2597 0.160715 23.2981 0.160715C23.3365 0.160715 23.376 0.165359 23.3858 0.171036C23.3983 0.178207 23.4127 0.178652 23.4329 0.172498C23.4848 0.156755 23.593 0.151841 23.6501 0.162638C23.6959 0.171304 23.7002 0.171088 23.6751 0.161376C23.6521 0.15247 23.6597 0.150981 23.7066 0.155183C23.7405 0.158226 23.7897 0.160715 23.816 0.160715C23.8422 0.160715 23.8733 0.167764 23.885 0.17638C23.8987 0.18645 23.929 0.190658 23.9698 0.188162C24.06 0.182651 24.0507 0.162236 23.9597 0.166146C23.8879 0.169234 23.8878 0.169121 23.9568 0.161464C23.9957 0.157149 24.0813 0.153358 24.1471 0.153039C24.2128 0.152717 24.3639 0.148814 24.4827 0.14436C24.7907 0.132817 25.565 0.112589 25.9178 0.106869C26.083 0.104192 26.2897 0.100529 26.3771 0.0987279C26.5614 0.0949351 26.9251 0.0888973 27.4018 0.081719C27.5864 0.078939 27.8408 0.0746181 27.9671 0.0721178C28.2707 0.066108 28.7486 0.0656597 28.8151 0.0713252C28.8443 0.073808 28.9357 0.0786916 29.0183 0.0821793C29.1009 0.0856662 29.1685 0.0912533 29.1685 0.0945948C29.1685 0.0979356 29.1291 0.109855 29.0811 0.121081C29.01 0.1377 28.9607 0.141343 28.816 0.140681C28.7102 0.140192 28.643 0.143258 28.6501 0.14823C28.6566 0.152827 28.7844 0.156895 28.934 0.157269C29.169 0.157853 29.3255 0.168536 29.2721 0.180339C29.2482 0.18562 28.7798 0.190838 28.7799 0.185823C28.7799 0.183367 28.6726 0.182521 28.5414 0.183941C28.4102 0.185362 28.2116 0.18315 28.1001 0.179016C27.9886 0.174887 27.8898 0.173271 27.8806 0.175426C27.8714 0.177579 27.7957 0.180126 27.7123 0.181084C27.629 0.182043 27.5169 0.185696 27.4632 0.189206C27.4051 0.193001 27.3474 0.192061 27.3207 0.186885C27.296 0.182099 27.1221 0.177324 26.9342 0.176274C26.7016 0.174976 26.5998 0.171529 26.6153 0.165477C26.6278 0.160589 26.611 0.161705 26.578 0.167958C26.5368 0.175778 26.4732 0.177651 26.3743 0.173956C26.2799 0.170429 26.2383 0.171486 26.2529 0.177036C26.278 0.186496 26.2733 0.186677 25.9531 0.188687C25.8268 0.18948 25.6877 0.19305 25.644 0.196621C25.6002 0.200192 25.5645 0.200076 25.5645 0.196365C25.5645 0.192653 25.5247 0.189616 25.4761 0.189616C25.4275 0.189616 25.3878 0.192403 25.3878 0.195809C25.3878 0.199215 25.363 0.202001 25.3327 0.202001C25.3024 0.202001 25.2859 0.198863 25.2961 0.195026C25.3206 0.185754 24.9576 0.199371 24.9313 0.208712C24.883 0.225811 24.2218 0.243139 24.2218 0.227304C24.2218 0.222471 24.205 0.218514 24.1844 0.218514C24.1638 0.218514 24.1561 0.221974 24.1673 0.226201C24.1993 0.238286 24.118 0.245726 24.0654 0.235528C24.0301 0.228687 24.0135 0.229106 24.0003 0.237169C23.9889 0.244131 23.9307 0.247311 23.8372 0.246089C23.7572 0.245045 23.6918 0.24766 23.6918 0.251902C23.6918 0.265556 23.5103 0.256589 23.475 0.241194C23.4563 0.233007 23.4256 0.228527 23.4068 0.231239C23.388 0.23395 23.3808 0.239238 23.3907 0.24299C23.4006 0.246741 23.3855 0.251896 23.3571 0.254443C23.3286 0.256992 23.2958 0.255465 23.2842 0.25105C23.2712 0.246155 23.226 0.247837 23.1682 0.255357C23.0595 0.269509 22.7215 0.284545 22.6784 0.277145L22.6784 0.277142ZM22.1725 0.23964C22.1725 0.225137 22.1937 0.223002 22.224 0.234453C22.2351 0.238681 22.2281 0.244474 22.2084 0.247325C22.1886 0.250178 22.1725 0.246727 22.1725 0.23964ZM22.3056 0.225377C22.3262 0.220579 22.3638 0.218278 22.3893 0.220263C22.4158 0.222325 22.3997 0.226067 22.352 0.228987C22.2932 0.232578 22.2794 0.231503 22.3056 0.225377ZM34.4773 0.204427C34.4335 0.202459 34.3978 0.198013 34.3978 0.194547C34.3978 0.184443 34.5513 0.189936 34.5665 0.200583C34.5741 0.205902 34.575 0.209748 34.5685 0.209129C34.5621 0.208509 34.521 0.206396 34.4773 0.204427H34.4773ZM33.7441 0.185484C33.8412 0.175731 33.897 0.175731 33.8324 0.185484C33.8033 0.189887 33.7556 0.193285 33.7264 0.193034C33.6915 0.192735 33.6975 0.190163 33.7441 0.185484ZM33.9581 0.186253C33.9473 0.182135 33.9702 0.180711 34.0091 0.183088C34.0916 0.18813 34.102 0.19374 34.0289 0.19374C34.0009 0.19374 33.969 0.19037 33.9581 0.186253ZM29.4095 0.167568C29.3539 0.154506 29.3791 0.1536 29.8158 0.152985C30.0719 0.15262 30.3169 0.150728 30.3602 0.148772C30.4035 0.146815 30.4472 0.148333 30.4573 0.152143C30.4674 0.155953 30.5243 0.158284 30.5837 0.157321C30.7445 0.154721 30.7453 0.166742 30.5846 0.170323C30.5086 0.172017 30.4539 0.170543 30.4632 0.167058C30.4922 0.156091 30.4378 0.16016 30.3824 0.173098C30.3223 0.187144 30.173 0.189673 30.1401 0.177205C30.1255 0.171707 30.0949 0.171835 30.0489 0.177584C29.9707 0.187367 29.897 0.180719 29.933 0.167121C29.9487 0.161175 29.94 0.16061 29.9071 0.165439C29.8798 0.169443 29.77 0.174694 29.6631 0.177107C29.5102 0.18056 29.4562 0.17853 29.4095 0.167567V0.167568ZM32.2424 0.177226C32.2424 0.172685 32.2495 0.16897 32.258 0.16897C32.2666 0.16897 32.2834 0.172685 32.2954 0.177226C32.3075 0.181767 32.3004 0.185482 32.2799 0.185482C32.2593 0.185482 32.2424 0.181767 32.2424 0.177226ZM30.8291 0.160713C30.7973 0.155904 30.7929 0.152658 30.8182 0.152582C30.8413 0.152507 30.8701 0.156171 30.8821 0.160713C30.9092 0.170964 30.897 0.170964 30.8291 0.160713ZM44.6297 0.159587C44.648 0.152674 44.5134 0.144543 44.4861 0.150915C44.4481 0.159791 44.2911 0.161468 44.2911 0.152996C44.2911 0.147756 44.1905 0.146493 44.0173 0.149558C43.8048 0.153316 43.7157 0.151379 43.6198 0.140922C43.5517 0.133509 43.5229 0.129147 43.5556 0.131229C43.5884 0.133311 43.6202 0.131784 43.6263 0.127841C43.6324 0.123896 43.6613 0.119461 43.6904 0.117984C43.7196 0.11651 43.7551 0.111586 43.7694 0.107044C43.7837 0.102503 43.7956 0.106925 43.7959 0.116876C43.7964 0.133974 43.8017 0.134315 43.8936 0.123102C43.9807 0.112462 43.9958 0.112724 44.0397 0.125656C44.0862 0.139366 44.0875 0.139364 44.0673 0.125656C44.0508 0.114505 44.0655 0.111207 44.1314 0.111207C44.1784 0.111207 44.2331 0.117709 44.2529 0.125656C44.2729 0.133674 44.2894 0.135511 44.29 0.129784C44.2911 0.118972 44.3971 0.114887 44.3971 0.125656C44.3971 0.129061 44.5173 0.131633 44.6642 0.131371C44.8111 0.131108 44.9392 0.133895 44.9489 0.137563C44.9586 0.141231 45.0006 0.144232 45.0422 0.144232C45.1028 0.144232 45.1091 0.146297 45.0737 0.154553C45.0295 0.164887 44.6029 0.169755 44.6297 0.15962V0.159587ZM45.2097 0.159338C45.2097 0.155554 45.2217 0.152207 45.2362 0.1519C45.2508 0.151594 45.3136 0.149788 45.3758 0.147888C45.5156 0.143614 45.5654 0.157778 45.4309 0.163565C45.2979 0.169286 45.2097 0.167602 45.2097 0.159338ZM42.6658 0.131816C42.6658 0.127275 42.6062 0.12356 42.5333 0.12356C42.4604 0.12356 42.3891 0.127275 42.3748 0.131816C42.3575 0.13732 42.3486 0.13732 42.3482 0.131816C42.3474 0.121472 42.1358 0.119025 42.1358 0.129361C42.1358 0.133518 42.1213 0.134832 42.1036 0.132282C42.07 0.127422 41.7592 0.119619 41.4291 0.115346C41.3222 0.113963 41.2348 0.111997 41.2348 0.110977C41.2348 0.105443 40.7699 0.105357 40.7401 0.110887C40.687 0.120756 40.3338 0.127642 40.3338 0.118806C40.3338 0.114609 40.3099 0.111175 40.2808 0.111175C40.2516 0.111175 40.2278 0.11476 40.2278 0.119143C40.2278 0.124118 39.9789 0.125642 39.5653 0.123203C39.2009 0.121055 38.8644 0.119336 38.8175 0.119383C38.7707 0.119458 38.6792 0.116044 38.6144 0.111859C38.5434 0.107283 38.4964 0.107255 38.4964 0.111784C38.4964 0.119287 38.3729 0.118072 38.3393 0.110239C38.3297 0.107979 38.1689 0.107451 37.982 0.109066C37.7568 0.111012 37.6255 0.108738 37.5924 0.102319C37.5535 0.0947774 37.5423 0.0951423 37.5419 0.103968C37.5415 0.111127 37.5318 0.112124 37.5154 0.106674C37.4998 0.101498 37.2988 0.097639 37.0124 0.0970219C36.7501 0.0964596 35.9551 0.093867 35.2458 0.0912704C34.5365 0.0886744 33.6262 0.0860545 33.2229 0.0854499C32.8197 0.0848517 32.4897 0.0820258 32.4897 0.0791844C32.4897 0.0763416 32.4022 0.0740164 32.2954 0.0740164C32.1885 0.0740164 32.1011 0.0768031 32.1011 0.0802088C32.1011 0.0836147 32.0843 0.0864015 32.0637 0.0864015C32.0431 0.0864015 32.0361 0.0826859 32.0481 0.0781445C32.0601 0.0736038 32.0452 0.0698885 32.0149 0.0698885C31.9846 0.0698922 31.9598 0.0661767 31.9598 0.0616361C31.9598 0.0570948 31.9429 0.0533791 31.9224 0.0533791C31.9018 0.0533791 31.8948 0.0570948 31.9068 0.0616361C31.9197 0.0665126 31.8808 0.0698409 31.8117 0.0697657C31.7232 0.069661 31.7077 0.0676934 31.7478 0.0616361C31.7869 0.0557247 31.7886 0.053599 31.7541 0.0535055C31.7181 0.0534009 31.7196 0.050532 31.7604 0.0409943C31.7896 0.0341827 31.8463 0.0286094 31.8866 0.0286094C31.9268 0.0286094 31.9598 0.0246434 31.9598 0.0197961C31.9598 0.0145683 31.9903 0.013249 32.0349 0.0165534C32.0854 0.0203009 32.1021 0.0191324 32.0858 0.0129816C32.0725 0.00795315 32.071 0.00383966 32.0825 0.00383966C32.094 0.00383966 32.1155 0.011481 32.1303 0.0208207L32.1572 0.0378024L32.2503 0.0206753C32.3142 0.00893601 32.3512 0.00646848 32.3681 0.0128326C32.3855 0.0194148 32.4012 0.0188571 32.4222 0.0109143C32.4463 0.00181042 32.6887 -0.000230683 33.7163 1.98181e-05C34.4118 0.000194795 35.267 0.00271378 35.6168 0.00563171C35.9666 0.00854904 36.5469 0.0130903 36.9064 0.0157236C38.2046 0.0252298 38.539 0.0286848 38.5681 0.0328859C38.6331 0.042273 38.9178 0.0505999 38.9609 0.0443739C38.9875 0.0405373 39.0185 0.0419072 39.0343 0.0476228C39.0548 0.0549989 39.0706 0.0543643 39.0966 0.0451224C39.1157 0.0383107 39.1316 0.0364529 39.1319 0.0409943C39.1323 0.0462053 39.3508 0.0488825 39.7243 0.0482531C40.3145 0.047257 41.3231 0.0605852 41.3231 0.0693832C41.3232 0.0719339 41.4464 0.0736023 41.597 0.0730926C41.855 0.0722177 42.4495 0.083517 42.5549 0.0913014C42.5938 0.0941734 42.5945 0.0972599 42.5587 0.107334C42.5227 0.117487 42.5236 0.119135 42.5636 0.116182C42.5906 0.114187 42.6571 0.110277 42.7114 0.107494C42.7721 0.104376 42.8021 0.0985656 42.7896 0.0923557C42.7783 0.0868125 42.7876 0.0880932 42.8103 0.0952C42.8436 0.105652 42.889 0.106934 43.0477 0.101902C43.1593 0.0983642 43.2706 0.0990219 43.3058 0.103427C43.3399 0.107689 43.4125 0.111681 43.4673 0.112299C43.5589 0.113334 43.56 0.11372 43.4815 0.117177C43.4156 0.120082 43.4076 0.122601 43.4462 0.128311C43.5008 0.136391 43.4549 0.137403 42.9573 0.139087C42.7837 0.139672 42.6658 0.136734 42.6658 0.131816L42.6658 0.131816ZM32.3966 0.0575545C32.3855 0.0507684 32.3621 0.0472729 32.3447 0.0497857C32.2949 0.0569902 32.3079 0.0698914 32.365 0.0698914C32.3965 0.0698914 32.4089 0.0650483 32.3966 0.0575545ZM30.3359 0.0857785C30.3722 0.0699009 30.3701 0.0680979 30.3201 0.0725824C30.2702 0.0770558 30.2679 0.0752476 30.3039 0.0595547L30.3456 0.0413331L30.3808 0.0597411C30.4211 0.0808602 30.4941 0.083931 30.5239 0.0657633C30.5351 0.0589516 30.5315 0.0533784 30.5159 0.0533784C30.5003 0.0533784 30.4876 0.04776 30.4876 0.040892C30.4876 0.0307404 30.5195 0.029395 30.6583 0.0336992C30.775 0.0373152 30.8291 0.0360397 30.8291 0.0296735C30.8291 0.0244961 30.885 0.0203527 30.9549 0.0203527C31.0373 0.0203527 31.0723 0.0234802 31.0566 0.029433C31.0395 0.0358883 31.054 0.0358336 31.1067 0.0292431C31.1683 0.0215398 31.1774 0.0220985 31.1602 0.0325474C31.1488 0.0394637 31.1254 0.0451228 31.108 0.0451228C31.0906 0.0451228 31.0764 0.0488383 31.0764 0.0533789C31.0764 0.0705899 31.1403 0.0606426 31.1824 0.0368659C31.2316 0.0091365 31.2329 0.00898407 31.3214 0.020061C31.3661 0.0256489 31.3799 0.0343738 31.3677 0.0493014C31.3581 0.0610035 31.3642 0.0694954 31.3812 0.0681708C31.3982 0.0668473 31.4201 0.069394 31.4298 0.0738329C31.4402 0.0786058 31.3562 0.0824739 31.2242 0.0833028C31.0201 0.0845829 30.9976 0.0830036 30.9624 0.064913C30.9243 0.045407 30.7938 0.0368531 30.7938 0.0538661C30.7938 0.0586762 30.8095 0.0603402 30.8287 0.0575661C30.8484 0.0547188 30.8548 0.0578803 30.8435 0.0648138C30.8317 0.0719965 30.8 0.0750241 30.7674 0.0720959C30.7311 0.0688396 30.7202 0.070382 30.7364 0.0765042C30.7649 0.0872513 30.6474 0.0951866 30.5111 0.0917304C30.4625 0.0904996 30.3938 0.0927938 30.3583 0.0968298C30.3005 0.103405 30.2981 0.102258 30.3359 0.085779V0.0857785ZM31.3025 0.0547549C31.3125 0.0509708 31.2982 0.0478747 31.2708 0.0478747C31.2433 0.0478747 31.2291 0.0509708 31.2391 0.0547549C31.2491 0.0585389 31.2634 0.0616354 31.2708 0.0616354C31.2782 0.0616354 31.2925 0.0585389 31.3025 0.0547549ZM29.8599 0.0873433C29.8493 0.0833182 29.8723 0.0780898 29.911 0.0757231C29.9579 0.0728569 29.9742 0.0670288 29.9598 0.0582717C29.9479 0.0510395 29.9532 0.0451222 29.9714 0.0451222C30.0199 0.0451222 30.0121 0.0720929 29.9601 0.0842427C29.9074 0.0965662 29.8861 0.0972248 29.8599 0.0873433ZM30.0766 0.0643875C30.0865 0.0583324 30.0992 0.0533784 30.1048 0.0533784C30.1103 0.0533784 30.123 0.0583324 30.133 0.0643875C30.1429 0.0704426 30.1302 0.0753965 30.1048 0.0753965C30.0793 0.0753965 30.0667 0.0704426 30.0766 0.0643875ZM30.2129 0.0412565C30.2506 0.0345894 30.3163 0.0290162 30.3589 0.0288716C30.4431 0.02858 30.4968 0.041106 30.444 0.0487318C30.426 0.0513439 30.4051 0.0492133 30.3976 0.0439896C30.3874 0.0368567 30.3653 0.0368429 30.3086 0.043915C30.2 0.0574981 30.1317 0.0555841 30.2129 0.0412334V0.0412565ZM29.7434 0.0401333C29.7551 0.0373897 29.7856 0.0370962 29.8111 0.0394827C29.8393 0.0421181 29.8309 0.0440747 29.7897 0.0444704C29.7525 0.0448279 29.7316 0.0428777 29.7434 0.0401342V0.0401333ZM31.6064 0.0368648C31.5612 0.0300252 31.5624 0.0288423 31.6153 0.0287342C31.6493 0.0286594 31.6771 0.0323233 31.6771 0.0368648C31.6771 0.0469348 31.6731 0.0469348 31.6064 0.0368648ZM31.4167 0.0242893C31.3998 0.0140286 31.4089 0.0133219 31.4659 0.0204512C31.5478 0.0306943 31.5556 0.0368648 31.4866 0.0368648C31.4595 0.0368648 31.428 0.0312054 31.4167 0.0242893Z" fill="#2996D4"/>
</svg>
