<svg width="50" height="50" viewBox="0 0 50 50" fill="none" xmlns="http://www.w3.org/2000/svg">
<path d="M24.9369 4.16669C13.4368 4.16669 4.10352 13.5 4.10352 25C4.10352 36.5 13.4368 45.8334 24.9369 45.8334C36.4369 45.8334 45.7702 36.5 45.7702 25C45.7702 13.5 36.4577 4.16669 24.9369 4.16669ZM31.1869 29.6459L25.1452 33.125C24.3952 33.5625 23.5618 33.7709 22.7493 33.7709C21.916 33.7709 21.1035 33.5625 20.3535 33.125C18.8535 32.25 17.9577 30.7084 17.9577 28.9584V21.9792C17.9577 20.25 18.8535 18.6875 20.3535 17.8125C21.8535 16.9375 23.6452 16.9375 25.166 17.8125L31.2077 21.2917C32.7077 22.1667 33.6035 23.7084 33.6035 25.4584C33.6035 27.2084 32.7077 28.7709 31.1869 29.6459Z" fill="white"/>
</svg>
