<svg width="52" height="52" viewBox="0 0 52 52" fill="none" xmlns="http://www.w3.org/2000/svg">
<g filter="url(#filter0_d_586_4120)">
<rect x="6" y="2" width="40" height="40" rx="12" fill="url(#paint0_linear_586_4120)" shape-rendering="crispEdges"/>
<path d="M23.3101 24.7L24.8101 26.2L28.8101 22.2" stroke="white" stroke-width="1.5" stroke-linecap="round" stroke-linejoin="round"/>
<path d="M24 16H28C30 16 30 15 30 14C30 12 29 12 28 12H24C23 12 22 12 22 14C22 16 23 16 24 16Z" stroke="white" stroke-width="1.5" stroke-miterlimit="10" stroke-linecap="round" stroke-linejoin="round"/>
<path d="M30 14.02C33.33 14.2 35 15.43 35 20V26C35 30 34 32 29 32H23C18 32 17 30 17 26V20C17 15.44 18.67 14.2 22 14.02" stroke="white" stroke-width="1.5" stroke-miterlimit="10" stroke-linecap="round" stroke-linejoin="round"/>
</g>
<defs>
<filter id="filter0_d_586_4120" x="0" y="0" width="52" height="52" filterUnits="userSpaceOnUse" color-interpolation-filters="sRGB">
<feFlood flood-opacity="0" result="BackgroundImageFix"/>
<feColorMatrix in="SourceAlpha" type="matrix" values="0 0 0 0 0 0 0 0 0 0 0 0 0 0 0 0 0 0 127 0" result="hardAlpha"/>
<feOffset dy="4"/>
<feGaussianBlur stdDeviation="3"/>
<feComposite in2="hardAlpha" operator="out"/>
<feColorMatrix type="matrix" values="0 0 0 0 0.419608 0 0 0 0 0.521569 0 0 0 0 0.847059 0 0 0 0.25 0"/>
<feBlend mode="normal" in2="BackgroundImageFix" result="effect1_dropShadow_586_4120"/>
<feBlend mode="normal" in="SourceGraphic" in2="effect1_dropShadow_586_4120" result="shape"/>
</filter>
<linearGradient id="paint0_linear_586_4120" x1="14.6364" y1="5.18182" x2="36.4545" y2="38.3636" gradientUnits="userSpaceOnUse">
<stop stop-color="#6B85D8"/>
<stop offset="1" stop-color="#4667CE"/>
</linearGradient>
</defs>
</svg>
